Original_add_glyphs.ufo
<glyph name="uni359E" format="2">
	<advance width="1000"/>
	<unicode hex="359E"/>
	<note>
		uni359E
	</note>
	<outline>
		<contour>
			<point x="304" y="248" type="line" smooth="yes"/>
			<point x="334" y="250"/>
			<point x="334" y="261" type="qcurve" smooth="yes"/>
			<point x="334" y="267"/>
			<point x="323" y="287"/>
			<point x="309" y="301" type="qcurve"/>
			<point x="328" y="541" type="line"/>
			<point x="329" y="546"/>
			<point x="334" y="556"/>
			<point x="334" y="563" type="qcurve" smooth="yes"/>
			<point x="334" y="574"/>
			<point x="313" y="598"/>
			<point x="293" y="598" type="qcurve" smooth="yes"/>
			<point x="289" y="598"/>
			<point x="280" y="598"/>
			<point x="274" y="597" type="qcurve" smooth="yes"/>
			<point x="137" y="588" type="line"/>
			<point x="112" y="600"/>
			<point x="83" y="610"/>
			<point x="75" y="610" type="qcurve" smooth="yes"/>
			<point x="66" y="610"/>
			<point x="66" y="602" type="qcurve" smooth="yes"/>
			<point x="66" y="597"/>
			<point x="71" y="585" type="qcurve" smooth="yes"/>
			<point x="77" y="572"/>
			<point x="82" y="545"/>
			<point x="83" y="532" type="qcurve" smooth="yes"/>
			<point x="93" y="269" type="line" smooth="yes"/>
			<point x="93" y="264"/>
			<point x="94" y="255"/>
			<point x="94" y="250" type="qcurve" smooth="yes"/>
			<point x="94" y="236"/>
			<point x="91" y="219" type="qcurve" smooth="yes"/>
			<point x="90" y="216"/>
			<point x="90" y="210"/>
			<point x="90" y="207" type="qcurve" smooth="yes"/>
			<point x="90" y="193"/>
			<point x="109" y="175"/>
			<point x="132" y="167"/>
			<point x="137" y="167" type="qcurve" smooth="yes"/>
			<point x="153" y="167"/>
			<point x="153" y="186" type="qcurve" smooth="yes"/>
			<point x="153" y="189" type="line"/>
			<point x="151" y="242" type="line"/>
		</contour>
		<contour>
			<point x="252" y="301" type="line"/>
			<point x="149" y="298" type="line"/>
			<point x="139" y="534" type="line"/>
			<point x="269" y="541" type="line"/>
		</contour>
		<contour>
			<point x="764" y="522" type="line"/>
			<point x="522" y="508" type="line"/>
			<point x="508" y="667" type="line"/>
			<point x="783" y="683" type="line"/>
		</contour>
		<contour>
			<point x="442" y="345" type="line"/>
			<point x="392" y="368"/>
			<point x="379" y="368" type="qcurve" smooth="yes"/>
			<point x="372" y="368"/>
			<point x="372" y="361" type="qcurve" smooth="yes"/>
			<point x="372" y="356"/>
			<point x="375" y="347" type="qcurve" smooth="yes"/>
			<point x="381" y="332"/>
			<point x="385" y="305"/>
			<point x="385" y="285" type="qcurve" smooth="yes"/>
			<point x="385" y="27" type="line" smooth="yes"/>
			<point x="385" y="10"/>
			<point x="382" y="-18"/>
			<point x="380" y="-34" type="qcurve" smooth="yes"/>
			<point x="380" y="-36"/>
			<point x="378" y="-40"/>
			<point x="378" y="-42" type="qcurve" smooth="yes"/>
			<point x="378" y="-57"/>
			<point x="399" y="-74"/>
			<point x="423" y="-82"/>
			<point x="429" y="-82" type="qcurve" smooth="yes"/>
			<point x="438" y="-82"/>
			<point x="445" y="-65"/>
			<point x="445" y="-50" type="qcurve" smooth="yes"/>
			<point x="441" y="292" type="line"/>
			<point x="858" y="314" type="line"/>
			<point x="854" y="-18" type="line"/>
			<point x="822" y="-11"/>
			<point x="763" y="9"/>
			<point x="734" y="19" type="qcurve" smooth="yes"/>
			<point x="718" y="25"/>
			<point x="707" y="25" type="qcurve" smooth="yes"/>
			<point x="698" y="25"/>
			<point x="698" y="19" type="qcurve" smooth="yes"/>
			<point x="698" y="12"/>
			<point x="727" y="-14"/>
			<point x="771" y="-44"/>
			<point x="820" y="-72"/>
			<point x="859" y="-91"/>
			<point x="868" y="-91" type="qcurve" smooth="yes"/>
			<point x="882" y="-91"/>
			<point x="914" y="-64"/>
			<point x="914" y="-33" type="qcurve" smooth="yes"/>
			<point x="914" y="-10" type="line"/>
			<point x="917" y="312" type="line" smooth="yes"/>
			<point x="917" y="319"/>
			<point x="923" y="330"/>
			<point x="923" y="336" type="qcurve" smooth="yes"/>
			<point x="923" y="347"/>
			<point x="905" y="361"/>
			<point x="885" y="369"/>
			<point x="882" y="369" type="qcurve" smooth="yes"/>
			<point x="879" y="369"/>
			<point x="871" y="368"/>
			<point x="866" y="368" type="qcurve" smooth="yes"/>
		</contour>
		<contour>
			<point x="821" y="473" type="line" smooth="yes"/>
			<point x="833" y="474"/>
			<point x="847" y="477"/>
			<point x="847" y="484" type="qcurve" smooth="yes"/>
			<point x="847" y="496"/>
			<point x="824" y="522" type="qcurve"/>
			<point x="848" y="684" type="line" smooth="yes"/>
			<point x="849" y="688"/>
			<point x="855" y="698"/>
			<point x="855" y="704" type="qcurve" smooth="yes"/>
			<point x="855" y="715"/>
			<point x="829" y="740"/>
			<point x="809" y="740" type="qcurve" smooth="yes"/>
			<point x="805" y="740"/>
			<point x="796" y="740"/>
			<point x="790" y="739" type="qcurve"/>
			<point x="509" y="722" type="line"/>
			<point x="478" y="732"/>
			<point x="443" y="740"/>
			<point x="435" y="740" type="qcurve" smooth="yes"/>
			<point x="426" y="740"/>
			<point x="426" y="733" type="qcurve" smooth="yes"/>
			<point x="426" y="730"/>
			<point x="431" y="720"/>
			<point x="433" y="715" type="qcurve"/>
			<point x="441" y="702"/>
			<point x="447" y="679"/>
			<point x="448" y="664" type="qcurve" smooth="yes"/>
			<point x="461" y="526" type="line" smooth="yes"/>
			<point x="462" y="519"/>
			<point x="463" y="506"/>
			<point x="463" y="499" type="qcurve" smooth="yes"/>
			<point x="463" y="492"/>
			<point x="462" y="480"/>
			<point x="461" y="472" type="qcurve" smooth="yes"/>
			<point x="461" y="464" type="line" smooth="yes"/>
			<point x="461" y="449"/>
			<point x="481" y="432"/>
			<point x="505" y="424"/>
			<point x="511" y="424" type="qcurve" smooth="yes"/>
			<point x="526" y="424"/>
			<point x="526" y="445" type="qcurve" smooth="yes"/>
			<point x="526" y="455" type="line"/>
		</contour>
		<contour>
			<point x="657" y="269" type="line"/>
			<point x="660" y="277" type="line"/>
			<point x="668" y="333" type="line"/>
			<point x="670" y="362"/>
			<point x="672" y="424"/>
			<point x="672" y="454" type="qcurve" smooth="yes"/>
			<point x="672" y="471"/>
			<point x="642" y="487"/>
			<point x="608" y="493"/>
			<point x="600" y="493" type="qcurve" smooth="yes"/>
			<point x="591" y="493"/>
			<point x="591" y="487" type="qcurve" smooth="yes"/>
			<point x="591" y="482"/>
			<point x="593" y="478" type="qcurve" smooth="yes"/>
			<point x="603" y="461"/>
			<point x="608" y="418"/>
			<point x="608" y="387" type="qcurve" smooth="yes"/>
			<point x="608" y="333"/>
			<point x="593" y="244"/>
			<point x="547" y="157"/>
			<point x="498" y="102" type="qcurve"/>
			<point x="482" y="81"/>
			<point x="482" y="74" type="qcurve" smooth="yes"/>
			<point x="482" y="70"/>
			<point x="485" y="70" type="qcurve" smooth="yes"/>
			<point x="493" y="70"/>
			<point x="542" y="99"/>
			<point x="605" y="161"/>
			<point x="633" y="209" type="qcurve"/>
			<point x="671" y="184"/>
			<point x="738" y="136"/>
			<point x="764" y="114" type="qcurve" smooth="yes"/>
			<point x="772" y="108"/>
			<point x="784" y="100"/>
			<point x="788" y="100" type="qcurve" smooth="yes"/>
			<point x="797" y="100"/>
			<point x="812" y="116"/>
			<point x="821" y="136"/>
			<point x="821" y="140" type="qcurve" smooth="yes"/>
			<point x="821" y="145"/>
			<point x="814" y="158"/>
			<point x="783" y="181"/>
			<point x="713" y="221"/>
			<point x="652" y="252" type="qcurve"/>
		</contour>
	</outline>
</glyph>
<glyph name="uni3B4E" format="2">
	<advance width="1000"/>
	<unicode hex="3B4E"/>
	<note>
		uni3B4E
	</note>
	<outline>
		<contour>
			<point x="850" y="-6" type="line"/>
			<point x="825" y="-1"/>
			<point x="761" y="25"/>
			<point x="728" y="41" type="qcurve" smooth="yes"/>
			<point x="704" y="53"/>
			<point x="693" y="53" type="qcurve" smooth="yes"/>
			<point x="686" y="53"/>
			<point x="686" y="48" type="qcurve" smooth="yes"/>
			<point x="686" y="39"/>
			<point x="716" y="7"/>
			<point x="763" y="-30"/>
			<point x="814" y="-64"/>
			<point x="856" y="-85"/>
			<point x="865" y="-85" type="qcurve" smooth="yes"/>
			<point x="885" y="-85"/>
			<point x="913" y="-51"/>
			<point x="913" y="-38" type="qcurve" smooth="yes"/>
			<point x="913" y="-30"/>
			<point x="910" y="-13"/>
			<point x="910" y="-2" type="qcurve" smooth="yes"/>
			<point x="909" y="695" type="line" smooth="yes"/>
			<point x="909" y="702"/>
			<point x="916" y="713"/>
			<point x="916" y="719" type="qcurve" smooth="yes"/>
			<point x="916" y="728"/>
			<point x="899" y="743"/>
			<point x="879" y="752"/>
			<point x="873" y="752" type="qcurve" smooth="yes"/>
			<point x="869" y="752"/>
			<point x="863" y="751"/>
			<point x="859" y="751" type="qcurve" smooth="yes"/>
			<point x="475" y="727" type="line"/>
			<point x="447" y="740"/>
			<point x="418" y="752"/>
			<point x="411" y="752" type="qcurve" smooth="yes"/>
			<point x="405" y="752"/>
			<point x="405" y="746" type="qcurve" smooth="yes"/>
			<point x="405" y="740"/>
			<point x="408" y="731" type="qcurve" smooth="yes"/>
			<point x="415" y="711"/>
			<point x="419" y="677"/>
			<point x="419" y="657" type="qcurve" smooth="yes"/>
			<point x="418" y="526" type="line"/>
			<point x="418" y="524" type="line" smooth="yes"/>
			<point x="418" y="531"/>
			<point x="401" y="551"/>
			<point x="379" y="567"/>
			<point x="369" y="567" type="qcurve" smooth="yes"/>
			<point x="364" y="567"/>
			<point x="362" y="566" type="qcurve" smooth="yes"/>
			<point x="353" y="563"/>
			<point x="335" y="560"/>
			<point x="326" y="559" type="qcurve" smooth="yes"/>
			<point x="278" y="556" type="line"/>
			<point x="280" y="759" type="line" smooth="yes"/>
			<point x="280" y="770"/>
			<point x="270" y="782"/>
			<point x="249" y="790" type="qcurve" smooth="yes"/>
			<point x="239" y="795"/>
			<point x="222" y="798"/>
			<point x="216" y="798" type="qcurve" smooth="yes"/>
			<point x="204" y="798"/>
			<point x="204" y="790" type="qcurve" smooth="yes"/>
			<point x="204" y="786"/>
			<point x="207" y="781" type="qcurve" smooth="yes"/>
			<point x="213" y="770"/>
			<point x="220" y="753"/>
			<point x="220" y="737" type="qcurve" smooth="yes"/>
			<point x="218" y="552" type="line"/>
			<point x="117" y="545" type="line" smooth="yes"/>
			<point x="113" y="545"/>
			<point x="104" y="544"/>
			<point x="100" y="544" type="qcurve" smooth="yes"/>
			<point x="86" y="544"/>
			<point x="71" y="547" type="qcurve" smooth="yes"/>
			<point x="68" y="548"/>
			<point x="64" y="548" type="qcurve" smooth="yes"/>
			<point x="57" y="548"/>
			<point x="57" y="542" type="qcurve" smooth="yes"/>
			<point x="57" y="541"/>
			<point x="65" y="515"/>
			<point x="87" y="490"/>
			<point x="109" y="490" type="qcurve" smooth="yes"/>
			<point x="115" y="490"/>
			<point x="129" y="491"/>
			<point x="138" y="492" type="qcurve" smooth="yes"/>
			<point x="207" y="497" type="line"/>
			<point x="173" y="393"/>
			<point x="93" y="221"/>
			<point x="45" y="138" type="qcurve" smooth="yes"/>
			<point x="37" y="125"/>
			<point x="37" y="114" type="qcurve" smooth="yes"/>
			<point x="37" y="104"/>
			<point x="45" y="104" type="qcurve" smooth="yes"/>
			<point x="55" y="104"/>
			<point x="91" y="144"/>
			<point x="135" y="208"/>
			<point x="178" y="282"/>
			<point x="212" y="354"/>
			<point x="219" y="380" type="qcurve"/>
			<point x="219" y="380"/>
			<point x="218" y="358"/>
			<point x="216" y="328"/>
			<point x="216" y="316" type="qcurve" smooth="yes"/>
			<point x="215" y="273"/>
			<point x="214" y="170"/>
			<point x="213" y="76"/>
			<point x="212" y="15"/>
			<point x="212" y="15" type="qcurve"/>
			<point x="212" y="-10"/>
			<point x="205" y="-41" type="qcurve" smooth="yes"/>
			<point x="204" y="-44"/>
			<point x="204" y="-50"/>
			<point x="204" y="-52" type="qcurve" smooth="yes"/>
			<point x="204" y="-65"/>
			<point x="237" y="-97"/>
			<point x="253" y="-97" type="qcurve" smooth="yes"/>
			<point x="270" y="-97"/>
			<point x="270" y="-70" type="qcurve" smooth="yes"/>
			<point x="276" y="384" type="line"/>
			<point x="309" y="346"/>
			<point x="340" y="299" type="qcurve" smooth="yes"/>
			<point x="352" y="281"/>
			<point x="361" y="281" type="qcurve" smooth="yes"/>
			<point x="372" y="281"/>
			<point x="396" y="305"/>
			<point x="396" y="312" type="qcurve" smooth="yes"/>
			<point x="396" y="318"/>
			<point x="370" y="356"/>
			<point x="333" y="400"/>
			<point x="300" y="432"/>
			<point x="292" y="432" type="qcurve" smooth="yes"/>
			<point x="285" y="432"/>
			<point x="276" y="426" type="qcurve"/>
			<point x="277" y="502" type="line"/>
			<point x="396" y="511" type="line" smooth="yes"/>
			<point x="415" y="513"/>
			<point x="418" y="522" type="qcurve"/>
			<point x="414" y="36" type="line" smooth="yes"/>
			<point x="414" y="17"/>
			<point x="411" y="-21"/>
			<point x="407" y="-42" type="qcurve"/>
			<point x="406" y="-44"/>
			<point x="406" y="-50"/>
			<point x="406" y="-52" type="qcurve" smooth="yes"/>
			<point x="406" y="-60"/>
			<point x="424" y="-79"/>
			<point x="449" y="-92"/>
			<point x="458" y="-92" type="qcurve" smooth="yes"/>
			<point x="468" y="-92"/>
			<point x="474" y="-75"/>
			<point x="474" y="-62" type="qcurve" smooth="yes"/>
			<point x="476" y="675" type="line"/>
			<point x="849" y="697" type="line"/>
		</contour>
		<contour>
			<point x="710" y="235"/>
			<point x="751" y="157"/>
			<point x="769" y="117" type="qcurve" smooth="yes"/>
			<point x="779" y="97"/>
			<point x="790" y="96" type="qcurve" smooth="yes"/>
			<point x="803" y="95"/>
			<point x="831" y="123"/>
			<point x="831" y="129" type="qcurve" smooth="yes"/>
			<point x="831" y="136"/>
			<point x="810" y="178"/>
			<point x="778" y="235"/>
			<point x="746" y="289"/>
			<point x="722" y="328"/>
			<point x="721" y="331" type="qcurve"/>
			<point x="753" y="392"/>
			<point x="797" y="510"/>
			<point x="815" y="576" type="qcurve"/>
			<point x="817" y="579"/>
			<point x="817" y="585" type="qcurve" smooth="yes"/>
			<point x="817" y="597"/>
			<point x="791" y="617"/>
			<point x="761" y="629"/>
			<point x="754" y="629" type="qcurve" smooth="yes"/>
			<point x="744" y="630"/>
			<point x="744" y="622" type="qcurve"/>
			<point x="743" y="618"/>
			<point x="744" y="616" type="qcurve" smooth="yes"/>
			<point x="748" y="605"/>
			<point x="747" y="592" type="qcurve" smooth="yes"/>
			<point x="746" y="569"/>
			<point x="712" y="453"/>
			<point x="684" y="386" type="qcurve"/>
			<point x="641" y="456"/>
			<point x="589" y="532"/>
			<point x="562" y="567"/>
			<point x="551" y="574"/>
			<point x="548" y="574" type="qcurve" smooth="yes"/>
			<point x="542" y="575"/>
			<point x="515" y="558"/>
			<point x="515" y="547" type="qcurve" smooth="yes"/>
			<point x="514" y="540"/>
			<point x="522" y="529" type="qcurve" smooth="yes"/>
			<point x="557" y="479"/>
			<point x="619" y="384"/>
			<point x="652" y="328" type="qcurve"/>
			<point x="619" y="259"/>
			<point x="549" y="149"/>
			<point x="502" y="91" type="qcurve" smooth="yes"/>
			<point x="490" y="75"/>
			<point x="490" y="67" type="qcurve" smooth="yes"/>
			<point x="489" y="59"/>
			<point x="497" y="59" type="qcurve" smooth="yes"/>
			<point x="506" y="59"/>
			<point x="567" y="110"/>
			<point x="648" y="206"/>
			<point x="687" y="273" type="qcurve"/>
		</contour>
	</outline>
</glyph>
<glyph name="uni4337" format="2">
	<advance width="1000"/>
	<unicode hex="4337"/>
	<note>
		uni4337
	</note>
	<outline>
		<contour>
			<point x="871" y="-3" type="line" smooth="yes"/>
			<point x="885" y="-2"/>
			<point x="903" y="2"/>
			<point x="903" y="9" type="qcurve" smooth="yes"/>
			<point x="903" y="20"/>
			<point x="877" y="52" type="qcurve"/>
			<point x="910" y="453" type="line" smooth="yes"/>
			<point x="911" y="459"/>
			<point x="917" y="470"/>
			<point x="917" y="477" type="qcurve" smooth="yes"/>
			<point x="917" y="492"/>
			<point x="882" y="517"/>
			<point x="868" y="517" type="qcurve" smooth="yes"/>
			<point x="865" y="517"/>
			<point x="859" y="516"/>
			<point x="856" y="516" type="qcurve" smooth="yes"/>
			<point x="689" y="507" type="line"/>
			<point x="690" y="746" type="line" smooth="yes"/>
			<point x="690" y="756"/>
			<point x="681" y="773"/>
			<point x="656" y="779" type="qcurve" smooth="yes"/>
			<point x="632" y="785"/>
			<point x="621" y="785" type="qcurve" smooth="yes"/>
			<point x="608" y="785"/>
			<point x="608" y="778" type="qcurve" smooth="yes"/>
			<point x="608" y="773"/>
			<point x="614" y="765" type="qcurve" smooth="yes"/>
			<point x="622" y="755"/>
			<point x="628" y="732"/>
			<point x="628" y="723" type="qcurve" smooth="yes"/>
			<point x="629" y="503" type="line"/>
			<point x="486" y="495" type="line"/>
			<point x="458" y="504"/>
			<point x="425" y="512"/>
			<point x="417" y="512" type="qcurve" smooth="yes"/>
			<point x="408" y="512"/>
			<point x="408" y="507" type="qcurve" smooth="yes"/>
			<point x="408" y="504"/>
			<point x="413" y="494"/>
			<point x="416" y="488" type="qcurve" smooth="yes"/>
			<point x="427" y="467"/>
			<point x="428" y="433" type="qcurve" smooth="yes"/>
			<point x="447" y="42" type="line"/>
			<point x="447" y="23" type="line" smooth="yes"/>
			<point x="447" y="13"/>
			<point x="447" y="-5"/>
			<point x="446" y="-13" type="qcurve" smooth="yes"/>
			<point x="446" y="-16"/>
			<point x="445" y="-22"/>
			<point x="445" y="-24" type="qcurve" smooth="yes"/>
			<point x="445" y="-38"/>
			<point x="468" y="-56"/>
			<point x="493" y="-64"/>
			<point x="497" y="-64" type="qcurve" smooth="yes"/>
			<point x="505" y="-64"/>
			<point x="511" y="-52"/>
			<point x="511" y="-44" type="qcurve" smooth="yes"/>
			<point x="511" y="-38" type="line"/>
			<point x="510" y="-13" type="line"/>
		</contour>
		<contour>
			<point x="833" y="293" type="line"/>
			<point x="689" y="287" type="line"/>
			<point x="689" y="451" type="line"/>
			<point x="843" y="459" type="line"/>
		</contour>
		<contour>
			<point x="629" y="284" type="line"/>
			<point x="496" y="278" type="line"/>
			<point x="488" y="441" type="line"/>
			<point x="629" y="448" type="line"/>
		</contour>
		<contour>
			<point x="819" y="52" type="line"/>
			<point x="688" y="48" type="line"/>
			<point x="689" y="233" type="line"/>
			<point x="830" y="239" type="line"/>
		</contour>
		<contour>
			<point x="630" y="47" type="line"/>
			<point x="507" y="43" type="line"/>
			<point x="498" y="224" type="line"/>
			<point x="629" y="230" type="line"/>
		</contour>
		<contour>
			<point x="127" y="204" type="line" smooth="yes"/>
			<point x="110" y="203"/>
			<point x="100" y="204" type="qcurve" smooth="yes"/>
			<point x="86" y="205"/>
			<point x="80" y="206" type="qcurve" smooth="yes"/>
			<point x="71" y="208" type="line" smooth="yes"/>
			<point x="64" y="209"/>
			<point x="63" y="202" type="qcurve" smooth="yes"/>
			<point x="63" y="199"/>
			<point x="64" y="193" type="qcurve" smooth="yes"/>
			<point x="69" y="173"/>
			<point x="75" y="164" type="qcurve" smooth="yes"/>
			<point x="77" y="160"/>
			<point x="79" y="156" type="qcurve" smooth="yes"/>
			<point x="83" y="149"/>
			<point x="97" y="127"/>
			<point x="106" y="125" type="qcurve" smooth="yes"/>
			<point x="114" y="123"/>
			<point x="164" y="136"/>
			<point x="232" y="160"/>
			<point x="306" y="189"/>
			<point x="370" y="218"/>
			<point x="410" y="243"/>
			<point x="411" y="251" type="qcurve" smooth="yes"/>
			<point x="412" y="257"/>
			<point x="404" y="258" type="qcurve" smooth="yes"/>
			<point x="398" y="259"/>
			<point x="380" y="255" type="qcurve" smooth="yes"/>
			<point x="354" y="248"/>
			<point x="297" y="233"/>
			<point x="269" y="227" type="qcurve" smooth="yes"/>
			<point x="214" y="217" type="line"/>
			<point x="194" y="213" type="line"/>
		</contour>
		<contour>
			<point x="283" y="362" type="line"/>
			<point x="230" y="419"/>
			<point x="215" y="435" type="qcurve" smooth="yes"/>
			<point x="199" y="451"/>
			<point x="185" y="466" type="qcurve"/>
			<point x="217" y="511"/>
			<point x="274" y="610"/>
			<point x="306" y="713" type="qcurve"/>
			<point x="309" y="719"/>
			<point x="309" y="725" type="qcurve" smooth="yes"/>
			<point x="309" y="735"/>
			<point x="288" y="757"/>
			<point x="261" y="772"/>
			<point x="253" y="772" type="qcurve" smooth="yes"/>
			<point x="242" y="772"/>
			<point x="242" y="760" type="qcurve" smooth="yes"/>
			<point x="242" y="751" type="line" smooth="yes"/>
			<point x="242" y="734"/>
			<point x="206" y="616"/>
			<point x="166" y="538"/>
			<point x="144" y="505" type="qcurve"/>
			<point x="118" y="528"/>
			<point x="105" y="536"/>
			<point x="100" y="536" type="qcurve" smooth="yes"/>
			<point x="87" y="536"/>
			<point x="67" y="505"/>
			<point x="67" y="500" type="qcurve" smooth="yes"/>
			<point x="67" y="492"/>
			<point x="84" y="478" type="qcurve" smooth="yes"/>
			<point x="112" y="456"/>
			<point x="144" y="424" type="qcurve" smooth="yes"/>
			<point x="175" y="392"/>
			<point x="249" y="310" type="qcurve"/>
		</contour>
		<contour>
			<point x="221" y="321" type="line"/>
			<point x="213" y="309" type="line" smooth="yes"/>
			<point x="186" y="264"/>
			<point x="157" y="218" type="qcurve" smooth="yes"/>
			<point x="129" y="176"/>
			<point x="99" y="135" type="qcurve"/>
			<point x="173" y="149" type="line"/>
			<point x="226" y="221"/>
			<point x="281" y="311" type="qcurve" smooth="yes"/>
			<point x="338" y="405"/>
			<point x="403" y="527" type="qcurve" smooth="yes"/>
			<point x="407" y="535"/>
			<point x="407" y="541" type="qcurve" smooth="yes"/>
			<point x="406" y="552"/>
			<point x="383" y="569"/>
			<point x="356" y="584"/>
			<point x="349" y="583" type="qcurve" smooth="yes"/>
			<point x="342" y="583"/>
			<point x="341" y="569" type="qcurve" smooth="yes"/>
			<point x="340" y="562"/>
			<point x="337" y="543"/>
			<point x="321" y="507"/>
			<point x="293" y="450" type="qcurve" smooth="yes"/>
			<point x="277" y="421"/>
			<point x="251" y="375" type="qcurve" smooth="yes"/>
		</contour>
		<contour>
			<point x="212" y="35" type="line" smooth="yes"/>
			<point x="173" y="20"/>
			<point x="124" y="2"/>
			<point x="85" y="-5"/>
			<point x="61" y="-5" type="qcurve"/>
			<point x="54" y="-6"/>
			<point x="54" y="-12" type="qcurve" smooth="yes"/>
			<point x="54" y="-17"/>
			<point x="74" y="-49"/>
			<point x="103" y="-78"/>
			<point x="114" y="-78" type="qcurve" smooth="yes"/>
			<point x="123" y="-78"/>
			<point x="173" y="-54"/>
			<point x="241" y="-16"/>
			<point x="313" y="28"/>
			<point x="375" y="72"/>
			<point x="414" y="105"/>
			<point x="414" y="112" type="qcurve" smooth="yes"/>
			<point x="414" y="118"/>
			<point x="406" y="118" type="qcurve" smooth="yes"/>
			<point x="397" y="118"/>
			<point x="379" y="109" type="qcurve" smooth="yes"/>
			<point x="354" y="96"/>
			<point x="299" y="71"/>
			<point x="271" y="59" type="qcurve" smooth="yes"/>
		</contour>
	</outline>
</glyph>
<glyph name="uni4723" format="2">
	<advance width="1000"/>
	<unicode hex="4723"/>
	<note>
		uni4723
	</note>
	<outline>
		<contour>
			<point x="337" y="575"/>
			<point x="362" y="605"/>
			<point x="362" y="613" type="qcurve" smooth="yes"/>
			<point x="362" y="619"/>
			<point x="334" y="651"/>
			<point x="291" y="692"/>
			<point x="246" y="731"/>
			<point x="210" y="756"/>
			<point x="204" y="756" type="qcurve" smooth="yes"/>
			<point x="193" y="756"/>
			<point x="175" y="728"/>
			<point x="175" y="725" type="qcurve" smooth="yes"/>
			<point x="175" y="717"/>
			<point x="187" y="706" type="qcurve" smooth="yes"/>
			<point x="215" y="681"/>
			<point x="278" y="620"/>
			<point x="303" y="590" type="qcurve" smooth="yes"/>
			<point x="315" y="575"/>
			<point x="325" y="575" type="qcurve" smooth="yes"/>
		</contour>
		<contour>
			<point x="225" y="97" type="line"/>
			<point x="214" y="91"/>
			<point x="204" y="86" type="qcurve" smooth="yes"/>
			<point x="192" y="80"/>
			<point x="173" y="73" type="qcurve" smooth="yes"/>
			<point x="165" y="71"/>
			<point x="165" y="66" type="qcurve"/>
			<point x="167" y="60"/>
			<point x="196" y="37"/>
			<point x="231" y="19"/>
			<point x="242" y="22" type="qcurve" smooth="yes"/>
			<point x="253" y="24"/>
			<point x="294" y="60"/>
			<point x="382" y="191"/>
			<point x="409" y="233"/>
			<point x="408" y="241" type="qcurve" smooth="yes"/>
			<point x="408" y="246"/>
			<point x="400" y="245" type="qcurve"/>
			<point x="390" y="242"/>
			<point x="376" y="228" type="qcurve" smooth="yes"/>
			<point x="355" y="209"/>
			<point x="318" y="172" type="qcurve" smooth="yes"/>
			<point x="295" y="148"/>
			<point x="278" y="135" type="qcurve" smooth="yes"/>
		</contour>
		<contour>
			<point x="285" y="96" type="line"/>
			<point x="298" y="448" type="line"/>
			<point x="299" y="454"/>
			<point x="302" y="465"/>
			<point x="302" y="470" type="qcurve" smooth="yes"/>
			<point x="303" y="486"/>
			<point x="275" y="503"/>
			<point x="261" y="503" type="qcurve" smooth="yes"/>
			<point x="254" y="503" type="line"/>
			<point x="231" y="501" type="line"/>
			<point x="123" y="493" type="line" smooth="yes"/>
			<point x="119" y="493"/>
			<point x="110" y="492"/>
			<point x="106" y="492" type="qcurve" smooth="yes"/>
			<point x="88" y="492"/>
			<point x="73" y="496" type="qcurve" smooth="yes"/>
			<point x="70" y="497"/>
			<point x="66" y="497" type="qcurve" smooth="yes"/>
			<point x="60" y="497"/>
			<point x="60" y="491" type="qcurve" smooth="yes"/>
			<point x="60" y="487"/>
			<point x="69" y="461"/>
			<point x="89" y="443" type="qcurve" smooth="yes"/>
			<point x="94" y="438"/>
			<point x="112" y="438" type="qcurve" smooth="yes"/>
			<point x="118" y="438"/>
			<point x="132" y="438"/>
			<point x="141" y="439" type="qcurve" smooth="yes"/>
			<point x="239" y="450" type="line"/>
			<point x="227" y="66" type="line"/>
		</contour>
		<contour>
			<point x="500" y="660"/>
			<point x="487" y="665" type="qcurve" smooth="yes"/>
			<point x="472" y="670"/>
			<point x="464" y="670" type="qcurve" smooth="yes"/>
			<point x="453" y="670"/>
			<point x="453" y="661" type="qcurve" smooth="yes"/>
			<point x="453" y="653"/>
			<point x="456" y="646" type="qcurve"/>
			<point x="461" y="628"/>
			<point x="466" y="598"/>
			<point x="467" y="558"/>
			<point x="467" y="525" type="qcurve" smooth="yes"/>
			<point x="467" y="464"/>
			<point x="460" y="334"/>
			<point x="432" y="195"/>
			<point x="373" y="53"/>
			<point x="320" y="-20" type="qcurve" smooth="yes"/>
			<point x="308" y="-38"/>
			<point x="308" y="-45" type="qcurve" smooth="yes"/>
			<point x="308" y="-50"/>
			<point x="315" y="-50" type="qcurve" smooth="yes"/>
			<point x="322" y="-50"/>
			<point x="363" y="-15"/>
			<point x="418" y="51"/>
			<point x="472" y="150"/>
			<point x="514" y="279"/>
			<point x="521" y="359" type="qcurve" smooth="yes"/>
			<point x="523" y="373"/>
			<point x="524" y="400"/>
			<point x="525" y="414" type="qcurve"/>
			<point x="527" y="414" type="line"/>
			<point x="698" y="424" type="line"/>
			<point x="696" y="21" type="line" smooth="yes"/>
			<point x="696" y="5"/>
			<point x="694" y="-24"/>
			<point x="691" y="-38" type="qcurve" smooth="yes"/>
			<point x="690" y="-42"/>
			<point x="689" y="-50"/>
			<point x="689" y="-53" type="qcurve" smooth="yes"/>
			<point x="689" y="-67"/>
			<point x="711" y="-87"/>
			<point x="737" y="-96"/>
			<point x="744" y="-96" type="qcurve" smooth="yes"/>
			<point x="761" y="-96"/>
			<point x="761" y="-70" type="qcurve" smooth="yes"/>
			<point x="761" y="427" type="line"/>
			<point x="943" y="437" type="line" smooth="yes"/>
			<point x="954" y="438"/>
			<point x="967" y="444"/>
			<point x="967" y="451" type="qcurve" smooth="yes"/>
			<point x="967" y="459"/>
			<point x="947" y="482"/>
			<point x="921" y="499"/>
			<point x="913" y="499" type="qcurve" smooth="yes"/>
			<point x="910" y="499"/>
			<point x="904" y="497" type="qcurve" smooth="yes"/>
			<point x="893" y="493"/>
			<point x="872" y="490"/>
			<point x="861" y="489" type="qcurve" smooth="yes"/>
			<point x="527" y="470" type="line"/>
			<point x="528" y="501"/>
			<point x="528" y="565"/>
			<point x="528" y="599" type="qcurve" smooth="yes"/>
			<point x="528" y="600" type="line"/>
			<point x="616" y="628"/>
			<point x="686" y="658" type="qcurve" smooth="yes"/>
			<point x="757" y="687"/>
			<point x="830" y="727" type="qcurve" smooth="yes"/>
			<point x="843" y="734"/>
			<point x="843" y="743" type="qcurve" smooth="yes"/>
			<point x="843" y="754"/>
			<point x="825" y="778" type="qcurve" smooth="yes"/>
			<point x="804" y="805"/>
			<point x="792" y="805" type="qcurve" smooth="yes"/>
			<point x="783" y="805"/>
			<point x="777" y="793" type="qcurve" smooth="yes"/>
			<point x="767" y="772"/>
			<point x="750" y="760" type="qcurve" smooth="yes"/>
			<point x="706" y="732"/>
			<point x="651" y="703" type="qcurve" smooth="yes"/>
			<point x="595" y="674"/>
			<point x="523" y="647" type="qcurve"/>
		</contour>
	</outline>
</glyph>
<glyph name="uni4729" format="2">
	<advance width="1000"/>
	<unicode hex="4729"/>
	<note>
		uni4729
	</note>
	<outline>
		<contour>
			<point x="892" y="635" type="line" smooth="yes"/>
			<point x="920" y="637"/>
			<point x="920" y="651" type="qcurve" smooth="yes"/>
			<point x="920" y="662"/>
			<point x="889" y="688"/>
			<point x="875" y="688" type="qcurve" smooth="yes"/>
			<point x="872" y="688"/>
			<point x="864" y="686" type="qcurve" smooth="yes"/>
			<point x="855" y="683"/>
			<point x="839" y="681"/>
			<point x="828" y="680" type="qcurve" smooth="yes"/>
			<point x="728" y="674" type="line"/>
			<point x="735" y="764" type="line"/>
			<point x="735" y="767" type="line" smooth="yes"/>
			<point x="735" y="784"/>
			<point x="710" y="802"/>
			<point x="681" y="809"/>
			<point x="675" y="809" type="qcurve" smooth="yes"/>
			<point x="665" y="809"/>
			<point x="665" y="803" type="qcurve" smooth="yes"/>
			<point x="665" y="797"/>
			<point x="669" y="792" type="qcurve" smooth="yes"/>
			<point x="675" y="782"/>
			<point x="679" y="761"/>
			<point x="679" y="748" type="qcurve" smooth="yes"/>
			<point x="679" y="739" type="line"/>
			<point x="675" y="671" type="line"/>
			<point x="577" y="665" type="line"/>
			<point x="572" y="753" type="line" smooth="yes"/>
			<point x="571" y="769"/>
			<point x="544" y="782"/>
			<point x="517" y="785"/>
			<point x="514" y="785" type="qcurve" smooth="yes"/>
			<point x="501" y="785"/>
			<point x="501" y="778" type="qcurve" smooth="yes"/>
			<point x="501" y="774"/>
			<point x="503" y="772" type="qcurve" smooth="yes"/>
			<point x="513" y="759"/>
			<point x="520" y="736"/>
			<point x="521" y="724" type="qcurve" smooth="yes"/>
			<point x="525" y="662" type="line"/>
			<point x="419" y="655" type="line"/>
			<point x="406" y="655" type="line" smooth="yes"/>
			<point x="386" y="655"/>
			<point x="370" y="659" type="qcurve"/>
			<point x="368" y="660"/>
			<point x="365" y="660" type="qcurve" smooth="yes"/>
			<point x="360" y="660"/>
			<point x="360" y="655" type="qcurve" smooth="yes"/>
			<point x="360" y="648"/>
			<point x="371" y="627"/>
			<point x="380" y="616" type="qcurve" smooth="yes"/>
			<point x="388" y="607"/>
			<point x="408" y="607" type="qcurve" smooth="yes"/>
			<point x="420" y="607" type="line"/>
			<point x="528" y="614" type="line"/>
			<point x="533" y="535" type="line"/>
			<point x="533" y="521" type="line" smooth="yes"/>
			<point x="533" y="514"/>
			<point x="533" y="502"/>
			<point x="532" y="497" type="qcurve" smooth="yes"/>
			<point x="532" y="492" type="line" smooth="yes"/>
			<point x="532" y="478"/>
			<point x="550" y="462"/>
			<point x="570" y="457"/>
			<point x="573" y="457" type="qcurve" smooth="yes"/>
			<point x="587" y="457"/>
			<point x="587" y="476" type="qcurve" smooth="yes"/>
			<point x="587" y="482" type="line"/>
			<point x="716" y="490" type="line" smooth="yes"/>
			<point x="725" y="491"/>
			<point x="736" y="494"/>
			<point x="736" y="500" type="qcurve" smooth="yes"/>
			<point x="736" y="505"/>
			<point x="728" y="523"/>
			<point x="717" y="537" type="qcurve"/>
			<point x="724" y="625" type="line"/>
		</contour>
		<contour>
			<point x="667" y="532" type="line"/>
			<point x="585" y="527" type="line"/>
			<point x="580" y="617" type="line"/>
			<point x="672" y="622" type="line"/>
		</contour>
		<contour>
			<point x="748" y="238" type="line" smooth="yes"/>
			<point x="748" y="192"/>
			<point x="799" y="163"/>
			<point x="833" y="163" type="qcurve" smooth="yes"/>
			<point x="879" y="163"/>
			<point x="923" y="183"/>
			<point x="937" y="233"/>
			<point x="937" y="277" type="qcurve" smooth="yes"/>
			<point x="937" y="287"/>
			<point x="936" y="307"/>
			<point x="936" y="317" type="qcurve" smooth="yes"/>
			<point x="935" y="353"/>
			<point x="925" y="353" type="qcurve" smooth="yes"/>
			<point x="916" y="353"/>
			<point x="911" y="317" type="qcurve" smooth="yes"/>
			<point x="904" y="268"/>
			<point x="889" y="227"/>
			<point x="862" y="219"/>
			<point x="837" y="219" type="qcurve" smooth="yes"/>
			<point x="815" y="219"/>
			<point x="799" y="227"/>
			<point x="799" y="247" type="qcurve" smooth="yes"/>
			<point x="800" y="320" type="line"/>
			<point x="828" y="334"/>
			<point x="879" y="364"/>
			<point x="907" y="383" type="qcurve"/>
			<point x="910" y="386"/>
			<point x="916" y="391"/>
			<point x="916" y="398" type="qcurve" smooth="yes"/>
			<point x="916" y="405"/>
			<point x="908" y="431"/>
			<point x="896" y="453"/>
			<point x="888" y="453" type="qcurve" smooth="yes"/>
			<point x="881" y="453"/>
			<point x="876" y="439" type="qcurve" smooth="yes"/>
			<point x="873" y="431"/>
			<point x="846" y="400"/>
			<point x="801" y="371" type="qcurve"/>
			<point x="803" y="481" type="line" smooth="yes"/>
			<point x="803" y="493"/>
			<point x="781" y="508"/>
			<point x="755" y="514"/>
			<point x="748" y="514" type="qcurve" smooth="yes"/>
			<point x="739" y="514"/>
			<point x="739" y="508" type="qcurve" smooth="yes"/>
			<point x="739" y="504"/>
			<point x="741" y="501" type="qcurve" smooth="yes"/>
			<point x="748" y="491"/>
			<point x="751" y="471"/>
			<point x="751" y="463" type="qcurve" smooth="yes"/>
			<point x="748" y="241" type="line"/>
		</contour>
		<contour>
			<point x="509" y="237" type="line"/>
			<point x="505" y="466" type="line" smooth="yes"/>
			<point x="505" y="479"/>
			<point x="481" y="491"/>
			<point x="454" y="495"/>
			<point x="449" y="495" type="qcurve" smooth="yes"/>
			<point x="439" y="495"/>
			<point x="439" y="489" type="qcurve" smooth="yes"/>
			<point x="439" y="486"/>
			<point x="442" y="480" type="qcurve" smooth="yes"/>
			<point x="454" y="461"/>
			<point x="454" y="438" type="qcurve" smooth="yes"/>
			<point x="455" y="383" type="line"/>
			<point x="394" y="379" type="line"/>
			<point x="387" y="379" type="line" smooth="yes"/>
			<point x="380" y="379"/>
			<point x="365" y="382"/>
			<point x="360" y="383" type="qcurve" smooth="yes"/>
			<point x="357" y="384"/>
			<point x="352" y="385"/>
			<point x="350" y="385" type="qcurve" smooth="yes"/>
			<point x="344" y="385"/>
			<point x="344" y="378" type="qcurve" smooth="yes"/>
			<point x="344" y="374"/>
			<point x="345" y="371" type="qcurve"/>
			<point x="346" y="370"/>
			<point x="354" y="350"/>
			<point x="372" y="331"/>
			<point x="388" y="331" type="qcurve" smooth="yes"/>
			<point x="392" y="331"/>
			<point x="400" y="331"/>
			<point x="404" y="332" type="qcurve" smooth="yes"/>
			<point x="456" y="338" type="line"/>
			<point x="459" y="218" type="line"/>
			<point x="397" y="196"/>
			<point x="380" y="196" type="qcurve" smooth="yes"/>
			<point x="376" y="196"/>
			<point x="370" y="197"/>
			<point x="366" y="198" type="qcurve" smooth="yes"/>
			<point x="363" y="199"/>
			<point x="359" y="199" type="qcurve" smooth="yes"/>
			<point x="351" y="199"/>
			<point x="351" y="192" type="qcurve" smooth="yes"/>
			<point x="351" y="184"/>
			<point x="364" y="160"/>
			<point x="384" y="142"/>
			<point x="393" y="142" type="qcurve" smooth="yes"/>
			<point x="398" y="142"/>
			<point x="433" y="158"/>
			<point x="479" y="182"/>
			<point x="522" y="210"/>
			<point x="551" y="234"/>
			<point x="551" y="241" type="qcurve" smooth="yes"/>
			<point x="551" y="247"/>
			<point x="542" y="247" type="qcurve" smooth="yes"/>
			<point x="533" y="247"/>
			<point x="522" y="242" type="qcurve" smooth="yes"/>
		</contour>
		<contour>
			<point x="700" y="198" type="line" smooth="yes"/>
			<point x="711" y="199"/>
			<point x="725" y="202"/>
			<point x="725" y="209" type="qcurve" smooth="yes"/>
			<point x="725" y="218"/>
			<point x="706" y="246" type="qcurve"/>
			<point x="714" y="370" type="line"/>
			<point x="715" y="375"/>
			<point x="719" y="384"/>
			<point x="719" y="390" type="qcurve" smooth="yes"/>
			<point x="719" y="402"/>
			<point x="695" y="422"/>
			<point x="683" y="422" type="qcurve" smooth="yes"/>
			<point x="681" y="422"/>
			<point x="675" y="421"/>
			<point x="671" y="421" type="qcurve" smooth="yes"/>
			<point x="600" y="416" type="line"/>
			<point x="581" y="422"/>
			<point x="556" y="427"/>
			<point x="548" y="427" type="qcurve" smooth="yes"/>
			<point x="538" y="427"/>
			<point x="538" y="421" type="qcurve" smooth="yes"/>
			<point x="538" y="417"/>
			<point x="542" y="410" type="qcurve" smooth="yes"/>
			<point x="547" y="400"/>
			<point x="552" y="376"/>
			<point x="553" y="362" type="qcurve" smooth="yes"/>
			<point x="562" y="242" type="line"/>
			<point x="562" y="228" type="line" smooth="yes"/>
			<point x="562" y="221"/>
			<point x="562" y="207"/>
			<point x="561" y="201" type="qcurve" smooth="yes"/>
			<point x="561" y="199"/>
			<point x="560" y="195"/>
			<point x="560" y="193" type="qcurve" smooth="yes"/>
			<point x="560" y="180"/>
			<point x="589" y="161"/>
			<point x="599" y="161" type="qcurve" smooth="yes"/>
			<point x="610" y="161"/>
			<point x="610" y="181" type="qcurve" smooth="yes"/>
			<point x="610" y="195" type="line"/>
		</contour>
		<contour>
			<point x="658" y="242" type="line"/>
			<point x="607" y="240" type="line"/>
			<point x="600" y="370" type="line"/>
			<point x="662" y="374" type="line"/>
		</contour>
		<contour>
			<point x="938" y="-89"/>
			<point x="968" y="-64"/>
			<point x="968" y="-48" type="qcurve" smooth="yes"/>
			<point x="968" y="-46"/>
			<point x="963" y="-31"/>
			<point x="938" y="3"/>
			<point x="882" y="69"/>
			<point x="831" y="122" type="qcurve" smooth="yes"/>
			<point x="821" y="132"/>
			<point x="814" y="132" type="qcurve" smooth="yes"/>
			<point x="803" y="132"/>
			<point x="784" y="105"/>
			<point x="784" y="101" type="qcurve" smooth="yes"/>
			<point x="784" y="95"/>
			<point x="794" y="83" type="qcurve" smooth="yes"/>
			<point x="821" y="54"/>
			<point x="885" y="-30"/>
			<point x="913" y="-74" type="qcurve" smooth="yes"/>
			<point x="923" y="-89"/>
			<point x="931" y="-89" type="qcurve" smooth="yes"/>
		</contour>
		<contour>
			<point x="371" y="-85"/>
			<point x="396" y="-52"/>
			<point x="426" y="-1"/>
			<point x="453" y="52"/>
			<point x="471" y="94"/>
			<point x="471" y="101" type="qcurve" smooth="yes"/>
			<point x="471" y="112"/>
			<point x="444" y="129"/>
			<point x="436" y="129" type="qcurve" smooth="yes"/>
			<point x="429" y="129"/>
			<point x="422" y="119"/>
			<point x="419" y="111" type="qcurve" smooth="yes"/>
			<point x="402" y="68"/>
			<point x="358" y="-5"/>
			<point x="335" y="-32" type="qcurve" smooth="yes"/>
			<point x="327" y="-40"/>
			<point x="327" y="-50" type="qcurve" smooth="yes"/>
			<point x="327" y="-60"/>
			<point x="354" y="-85"/>
			<point x="364" y="-85" type="qcurve" smooth="yes"/>
		</contour>
		<contour>
			<point x="642" y="-23"/>
			<point x="625" y="11"/>
			<point x="598" y="56"/>
			<point x="570" y="98"/>
			<point x="546" y="126"/>
			<point x="540" y="126" type="qcurve" smooth="yes"/>
			<point x="533" y="126"/>
			<point x="521" y="117" type="qcurve" smooth="yes"/>
			<point x="509" y="108"/>
			<point x="509" y="99" type="qcurve" smooth="yes"/>
			<point x="509" y="92"/>
			<point x="517" y="79" type="qcurve" smooth="yes"/>
			<point x="534" y="53"/>
			<point x="569" y="-8"/>
			<point x="586" y="-43" type="qcurve" smooth="yes"/>
			<point x="594" y="-60"/>
			<point x="604" y="-60" type="qcurve" smooth="yes"/>
			<point x="615" y="-60"/>
			<point x="642" y="-39"/>
			<point x="642" y="-28" type="qcurve" smooth="yes"/>
		</contour>
		<contour>
			<point x="797" y="-18"/>
			<point x="784" y="5"/>
			<point x="741" y="59"/>
			<point x="694" y="113" type="qcurve" smooth="yes"/>
			<point x="685" y="124"/>
			<point x="677" y="124" type="qcurve" smooth="yes"/>
			<point x="670" y="124"/>
			<point x="660" y="114" type="qcurve"/>
			<point x="646" y="103"/>
			<point x="646" y="94" type="qcurve" smooth="yes"/>
			<point x="646" y="87"/>
			<point x="656" y="75" type="qcurve" smooth="yes"/>
			<point x="696" y="26"/>
			<point x="744" y="-44" type="qcurve" smooth="yes"/>
			<point x="754" y="-59"/>
			<point x="762" y="-59" type="qcurve" smooth="yes"/>
			<point x="771" y="-59"/>
			<point x="797" y="-33"/>
			<point x="797" y="-24" type="qcurve" smooth="yes"/>
		</contour>
		<contour>
			<point x="333" y="575"/>
			<point x="358" y="605"/>
			<point x="358" y="613" type="qcurve" smooth="yes"/>
			<point x="358" y="619"/>
			<point x="330" y="651"/>
			<point x="288" y="692"/>
			<point x="243" y="731"/>
			<point x="208" y="756"/>
			<point x="202" y="756" type="qcurve" smooth="yes"/>
			<point x="191" y="756"/>
			<point x="173" y="728"/>
			<point x="173" y="725" type="qcurve" smooth="yes"/>
			<point x="173" y="717"/>
			<point x="185" y="706" type="qcurve" smooth="yes"/>
			<point x="213" y="681"/>
			<point x="275" y="620"/>
			<point x="300" y="590" type="qcurve" smooth="yes"/>
			<point x="312" y="575"/>
			<point x="321" y="575" type="qcurve" smooth="yes"/>
		</contour>
		<contour>
			<point x="189" y="34" type="line" smooth="yes"/>
			<point x="188" y="33"/>
			<point x="187" y="33" type="qcurve"/>
			<point x="176" y="26"/>
			<point x="154" y="14"/>
			<point x="138" y="9" type="qcurve" smooth="yes"/>
			<point x="131" y="7"/>
			<point x="132" y="2" type="qcurve" smooth="yes"/>
			<point x="134" y="-4"/>
			<point x="158" y="-29"/>
			<point x="187" y="-48"/>
			<point x="197" y="-46" type="qcurve" smooth="yes"/>
			<point x="206" y="-44"/>
			<point x="242" y="-10"/>
			<point x="318" y="117"/>
			<point x="342" y="158"/>
			<point x="341" y="166" type="qcurve" smooth="yes"/>
			<point x="341" y="171"/>
			<point x="334" y="170" type="qcurve" smooth="yes"/>
			<point x="326" y="168"/>
			<point x="312" y="154" type="qcurve" smooth="yes"/>
			<point x="264" y="101" type="line" smooth="yes"/>
			<point x="250" y="86"/>
			<point x="240" y="75" type="qcurve"/>
		</contour>
		<contour>
			<point x="244" y="33" type="line"/>
			<point x="257" y="446" type="line"/>
			<point x="258" y="452"/>
			<point x="260" y="463"/>
			<point x="260" y="468" type="qcurve" smooth="yes"/>
			<point x="261" y="484"/>
			<point x="234" y="501"/>
			<point x="221" y="501" type="qcurve" smooth="yes"/>
			<point x="214" y="501" type="line"/>
			<point x="192" y="499" type="line"/>
			<point x="117" y="493" type="line" smooth="yes"/>
			<point x="113" y="493"/>
			<point x="104" y="492"/>
			<point x="100" y="492" type="qcurve" smooth="yes"/>
			<point x="84" y="492"/>
			<point x="70" y="496" type="qcurve" smooth="yes"/>
			<point x="67" y="497"/>
			<point x="63" y="497" type="qcurve" smooth="yes"/>
			<point x="57" y="497"/>
			<point x="57" y="491" type="qcurve" smooth="yes"/>
			<point x="57" y="487"/>
			<point x="66" y="461"/>
			<point x="85" y="443" type="qcurve" smooth="yes"/>
			<point x="90" y="438"/>
			<point x="106" y="438" type="qcurve" smooth="yes"/>
			<point x="112" y="438"/>
			<point x="125" y="438"/>
			<point x="134" y="439" type="qcurve" smooth="yes"/>
			<point x="201" y="448" type="line"/>
			<point x="199" y="410" type="line"/>
			<point x="189" y="7" type="line"/>
		</contour>
	</outline>
</glyph>
<glyph name="uni497D" format="2">
	<advance width="1000"/>
	<unicode hex="497D"/>
	<note>
		uni497D
	</note>
	<outline>
		<contour>
			<point x="536" y="320" type="line"/>
			<point x="587" y="231"/>
			<point x="611" y="195" type="qcurve" smooth="yes"/>
			<point x="639" y="154"/>
			<point x="668" y="122" type="qcurve"/>
			<point x="625" y="70"/>
			<point x="499" y="-19"/>
			<point x="423" y="-56" type="qcurve" smooth="yes"/>
			<point x="402" y="-65"/>
			<point x="402" y="-78" type="qcurve" smooth="yes"/>
			<point x="402" y="-89"/>
			<point x="414" y="-89" type="qcurve" smooth="yes"/>
			<point x="421" y="-89"/>
			<point x="483" y="-68"/>
			<point x="570" y="-26"/>
			<point x="663" y="37"/>
			<point x="705" y="82" type="qcurve"/>
			<point x="738" y="50"/>
			<point x="811" y="-9"/>
			<point x="881" y="-59"/>
			<point x="931" y="-90"/>
			<point x="936" y="-90" type="qcurve" smooth="yes"/>
			<point x="941" y="-90"/>
			<point x="961" y="-77"/>
			<point x="981" y="-56"/>
			<point x="981" y="-46" type="qcurve" smooth="yes"/>
			<point x="981" y="-35"/>
			<point x="964" y="-28" type="qcurve" smooth="yes"/>
			<point x="902" y="3"/>
			<point x="787" y="80"/>
			<point x="739" y="126" type="qcurve"/>
			<point x="771" y="169"/>
			<point x="798" y="227" type="qcurve" smooth="yes"/>
			<point x="811" y="254"/>
			<point x="830" y="308"/>
			<point x="838" y="332" type="qcurve"/>
			<point x="840" y="336"/>
			<point x="848" y="344"/>
			<point x="848" y="353" type="qcurve" smooth="yes"/>
			<point x="848" y="366"/>
			<point x="821" y="388"/>
			<point x="798" y="388" type="qcurve" smooth="yes"/>
			<point x="786" y="388" type="line"/>
			<point x="581" y="376" type="line"/>
			<point x="570" y="341" type="line"/>
			<point x="546" y="341" type="line"/>
		</contour>
		<contour>
			<point x="774" y="333" type="line"/>
			<point x="767" y="301"/>
			<point x="750" y="256" type="qcurve" smooth="yes"/>
			<point x="730" y="209"/>
			<point x="700" y="165" type="qcurve"/>
			<point x="663" y="208"/>
			<point x="634" y="252" type="qcurve" smooth="yes"/>
			<point x="622" y="268"/>
			<point x="590" y="323" type="qcurve"/>
		</contour>
		<contour>
			<point x="861" y="621"/>
			<point x="840" y="648"/>
			<point x="805" y="682"/>
			<point x="770" y="712"/>
			<point x="741" y="732"/>
			<point x="735" y="732" type="qcurve" smooth="yes"/>
			<point x="727" y="732"/>
			<point x="706" y="708"/>
			<point x="706" y="702" type="qcurve" smooth="yes"/>
			<point x="706" y="695"/>
			<point x="718" y="684" type="qcurve" smooth="yes"/>
			<point x="740" y="665"/>
			<point x="787" y="616"/>
			<point x="807" y="590" type="qcurve" smooth="yes"/>
			<point x="819" y="577"/>
			<point x="827" y="577" type="qcurve" smooth="yes"/>
			<point x="836" y="577"/>
			<point x="861" y="604"/>
			<point x="861" y="614" type="qcurve" smooth="yes"/>
		</contour>
		<contour>
			<point x="471" y="510" type="line"/>
			<point x="509" y="599"/>
			<point x="536" y="671"/>
			<point x="537" y="682" type="qcurve" smooth="yes"/>
			<point x="537" y="687" type="line" smooth="yes"/>
			<point x="538" y="698"/>
			<point x="520" y="717"/>
			<point x="496" y="732"/>
			<point x="479" y="738"/>
			<point x="478" y="738" type="qcurve" smooth="yes"/>
			<point x="470" y="739"/>
			<point x="470" y="732" type="qcurve" smooth="yes"/>
			<point x="470" y="730"/>
			<point x="471" y="724" type="qcurve"/>
			<point x="476" y="714"/>
			<point x="477" y="691"/>
			<point x="477" y="679" type="qcurve" smooth="yes"/>
			<point x="477" y="671" type="line" smooth="yes"/>
			<point x="477" y="665"/>
			<point x="461" y="614"/>
			<point x="408" y="493" type="qcurve"/>
			<point x="408" y="489"/>
			<point x="407" y="483"/>
			<point x="407" y="480" type="qcurve" smooth="yes"/>
			<point x="408" y="468"/>
			<point x="438" y="448"/>
			<point x="448" y="448" type="qcurve" smooth="yes"/>
			<point x="457" y="448"/>
			<point x="468" y="456"/>
			<point x="477" y="457" type="qcurve" smooth="yes"/>
			<point x="927" y="486" type="line" smooth="yes"/>
			<point x="947" y="488"/>
			<point x="946" y="499" type="qcurve" smooth="yes"/>
			<point x="946" y="502"/>
			<point x="928" y="525"/>
			<point x="904" y="543"/>
			<point x="893" y="543" type="qcurve" smooth="yes"/>
			<point x="887" y="543" type="line"/>
			<point x="871" y="537"/>
			<point x="853" y="536" type="qcurve" smooth="yes"/>
		</contour>
		<contour>
			<point x="276" y="47" type="line" smooth="yes"/>
			<point x="272" y="45"/>
			<point x="269" y="42" type="qcurve"/>
			<point x="270" y="222" type="line"/>
			<point x="386" y="230" type="line" smooth="yes"/>
			<point x="396" y="231"/>
			<point x="409" y="237"/>
			<point x="409" y="244" type="qcurve" smooth="yes"/>
			<point x="409" y="254"/>
			<point x="388" y="274"/>
			<point x="364" y="288"/>
			<point x="359" y="288" type="qcurve" smooth="yes"/>
			<point x="356" y="288"/>
			<point x="350" y="286" type="qcurve" smooth="yes"/>
			<point x="340" y="282"/>
			<point x="321" y="279"/>
			<point x="312" y="278" type="qcurve" smooth="yes"/>
			<point x="271" y="276" type="line"/>
			<point x="272" y="410" type="line"/>
			<point x="275" y="410" type="line"/>
			<point x="378" y="418" type="line" smooth="yes"/>
			<point x="388" y="419"/>
			<point x="402" y="426"/>
			<point x="402" y="433" type="qcurve" smooth="yes"/>
			<point x="402" y="439"/>
			<point x="385" y="460"/>
			<point x="361" y="477"/>
			<point x="351" y="477" type="qcurve" smooth="yes"/>
			<point x="348" y="477"/>
			<point x="342" y="475" type="qcurve" smooth="yes"/>
			<point x="322" y="467"/>
			<point x="303" y="466" type="qcurve" smooth="yes"/>
			<point x="285" y="465" type="line"/>
			<point x="223" y="460" type="line"/>
			<point x="174" y="457" type="line"/>
			<point x="161" y="457" type="line" smooth="yes"/>
			<point x="142" y="457"/>
			<point x="127" y="460" type="qcurve"/>
			<point x="125" y="461"/>
			<point x="121" y="461" type="qcurve" smooth="yes"/>
			<point x="113" y="461"/>
			<point x="113" y="454" type="qcurve" smooth="yes"/>
			<point x="113" y="450"/>
			<point x="125" y="422"/>
			<point x="144" y="408" type="qcurve" smooth="yes"/>
			<point x="149" y="404"/>
			<point x="168" y="404" type="qcurve" smooth="yes"/>
			<point x="173" y="404"/>
			<point x="186" y="404"/>
			<point x="193" y="405" type="qcurve" smooth="yes"/>
			<point x="211" y="406" type="line"/>
			<point x="209" y="272" type="line"/>
			<point x="120" y="267" type="line" smooth="yes"/>
			<point x="116" y="267"/>
			<point x="108" y="266"/>
			<point x="104" y="266" type="qcurve" smooth="yes"/>
			<point x="89" y="266"/>
			<point x="74" y="269" type="qcurve"/>
			<point x="72" y="270"/>
			<point x="68" y="270" type="qcurve" smooth="yes"/>
			<point x="60" y="270"/>
			<point x="60" y="263" type="qcurve" smooth="yes"/>
			<point x="60" y="261"/>
			<point x="62" y="255" type="qcurve" smooth="yes"/>
			<point x="70" y="234"/>
			<point x="92" y="217" type="qcurve" smooth="yes"/>
			<point x="100" y="212"/>
			<point x="114" y="212" type="qcurve" smooth="yes"/>
			<point x="120" y="212"/>
			<point x="134" y="213"/>
			<point x="142" y="214" type="qcurve" smooth="yes"/>
			<point x="208" y="218" type="line"/>
			<point x="209" y="218" type="line"/>
			<point x="207" y="8" type="line"/>
			<point x="187" y="-2"/>
			<point x="176" y="-4" type="qcurve" smooth="yes"/>
			<point x="167" y="-6"/>
			<point x="168" y="-13" type="qcurve" smooth="yes"/>
			<point x="169" y="-18"/>
			<point x="191" y="-48"/>
			<point x="203" y="-59" type="qcurve"/>
			<point x="208" y="-61"/>
			<point x="212" y="-61" type="qcurve" smooth="yes"/>
			<point x="221" y="-62"/>
			<point x="262" y="-34"/>
			<point x="316" y="12"/>
			<point x="374" y="67"/>
			<point x="399" y="94" type="qcurve" smooth="yes"/>
			<point x="414" y="109"/>
			<point x="412" y="121" type="qcurve" smooth="yes"/>
			<point x="410" y="128"/>
			<point x="402" y="128" type="qcurve" smooth="yes"/>
			<point x="395" y="128"/>
			<point x="386" y="121" type="qcurve" smooth="yes"/>
			<point x="368" y="108"/>
			<point x="332" y="82"/>
			<point x="313" y="70" type="qcurve" smooth="yes"/>
		</contour>
		<contour>
			<point x="185" y="580" type="line"/>
			<point x="404" y="595" type="line"/>
			<point x="417" y="597"/>
			<point x="417" y="608" type="qcurve" smooth="yes"/>
			<point x="417" y="622"/>
			<point x="385" y="657"/>
			<point x="366" y="657" type="qcurve" smooth="yes"/>
			<point x="359" y="657"/>
			<point x="353" y="654" type="qcurve"/>
			<point x="340" y="650"/>
			<point x="313" y="642"/>
			<point x="300" y="641" type="qcurve" smooth="yes"/>
			<point x="217" y="634" type="line"/>
			<point x="219" y="638"/>
			<point x="225" y="649" type="qcurve" smooth="yes"/>
			<point x="232" y="662"/>
			<point x="248" y="697"/>
			<point x="261" y="725"/>
			<point x="261" y="729" type="qcurve" smooth="yes"/>
			<point x="261" y="740"/>
			<point x="239" y="762"/>
			<point x="211" y="777"/>
			<point x="203" y="777" type="qcurve" smooth="yes"/>
			<point x="193" y="777"/>
			<point x="193" y="765" type="qcurve" smooth="yes"/>
			<point x="193" y="754" type="line" smooth="yes"/>
			<point x="193" y="735"/>
			<point x="171" y="668"/>
			<point x="135" y="586"/>
			<point x="88" y="501"/>
			<point x="62" y="463" type="qcurve" smooth="yes"/>
			<point x="46" y="440"/>
			<point x="46" y="428" type="qcurve" smooth="yes"/>
			<point x="46" y="421"/>
			<point x="52" y="421" type="qcurve" smooth="yes"/>
			<point x="59" y="421"/>
			<point x="86" y="446"/>
			<point x="119" y="485"/>
			<point x="134" y="506" type="qcurve" smooth="yes"/>
			<point x="149" y="526" type="line" smooth="yes"/>
			<point x="157" y="537"/>
			<point x="167" y="552" type="qcurve" smooth="yes"/>
			<point x="176" y="564"/>
			<point x="182" y="575" type="qcurve" smooth="yes"/>
		</contour>
		<contour>
			<point x="592" y="326"/>
			<point x="607" y="385" type="qcurve" smooth="yes"/>
			<point x="614" y="410"/>
			<point x="626" y="463"/>
			<point x="631" y="489" type="qcurve" smooth="yes"/>
			<point x="641" y="544" type="line" smooth="yes"/>
			<point x="647" y="588"/>
			<point x="657" y="678"/>
			<point x="659" y="724" type="qcurve" smooth="yes"/>
			<point x="659" y="727" type="line" smooth="yes"/>
			<point x="659" y="744"/>
			<point x="630" y="760"/>
			<point x="598" y="766"/>
			<point x="595" y="766" type="qcurve" smooth="yes"/>
			<point x="587" y="766"/>
			<point x="587" y="759" type="qcurve" smooth="yes"/>
			<point x="587" y="757"/>
			<point x="589" y="749" type="qcurve"/>
			<point x="597" y="729"/>
			<point x="597" y="713" type="qcurve" smooth="yes"/>
			<point x="597" y="688"/>
			<point x="590" y="618"/>
			<point x="584" y="556"/>
			<point x="580" y="540" type="qcurve"/>
			<point x="571" y="485" type="line" smooth="yes"/>
			<point x="555" y="398"/>
			<point x="515" y="264"/>
			<point x="465" y="153"/>
			<point x="407" y="55"/>
			<point x="373" y="3" type="qcurve" smooth="yes"/>
			<point x="363" y="-10"/>
			<point x="363" y="-20" type="qcurve" smooth="yes"/>
			<point x="363" y="-28"/>
			<point x="370" y="-28" type="qcurve" smooth="yes"/>
			<point x="379" y="-28"/>
			<point x="390" y="-15" type="qcurve" smooth="yes"/>
			<point x="453" y="52"/>
			<point x="542" y="182"/>
			<point x="573" y="271" type="qcurve" smooth="yes"/>
		</contour>
	</outline>
</glyph>
<glyph name="uni4986" format="2">
	<advance width="1000"/>
	<unicode hex="4986"/>
	<note>
		uni4986
	</note>
	<outline>
		<contour>
			<point x="887" y="536" type="line" smooth="yes"/>
			<point x="896" y="537"/>
			<point x="907" y="539"/>
			<point x="907" y="543" type="qcurve" smooth="yes"/>
			<point x="907" y="549"/>
			<point x="886" y="569" type="qcurve"/>
			<point x="897" y="734" type="line"/>
			<point x="898" y="738"/>
			<point x="902" y="747"/>
			<point x="902" y="752" type="qcurve" smooth="yes"/>
			<point x="902" y="763"/>
			<point x="884" y="774"/>
			<point x="867" y="779"/>
			<point x="866" y="779" type="qcurve" smooth="yes"/>
			<point x="864" y="779"/>
			<point x="859" y="778"/>
			<point x="857" y="778" type="qcurve" smooth="yes"/>
			<point x="708" y="769" type="line"/>
			<point x="668" y="785"/>
			<point x="656" y="785" type="qcurve" smooth="yes"/>
			<point x="649" y="785"/>
			<point x="649" y="779" type="qcurve" smooth="yes"/>
			<point x="649" y="774"/>
			<point x="656" y="758" type="qcurve" smooth="yes"/>
			<point x="662" y="746"/>
			<point x="666" y="726"/>
			<point x="666" y="715" type="qcurve" smooth="yes"/>
			<point x="669" y="583" type="line" smooth="yes"/>
			<point x="669" y="575"/>
			<point x="668" y="556"/>
			<point x="666" y="546" type="qcurve"/>
			<point x="665" y="544"/>
			<point x="665" y="539" type="qcurve" smooth="yes"/>
			<point x="665" y="526"/>
			<point x="699" y="510"/>
			<point x="707" y="510" type="qcurve" smooth="yes"/>
			<point x="718" y="510"/>
			<point x="718" y="528" type="qcurve"/>
		</contour>
		<contour>
			<point x="887" y="225" type="line"/>
			<point x="906" y="227"/>
			<point x="906" y="236" type="qcurve" smooth="yes"/>
			<point x="906" y="239"/>
			<point x="895" y="255"/>
			<point x="878" y="270"/>
			<point x="868" y="270" type="qcurve" smooth="yes"/>
			<point x="866" y="270"/>
			<point x="860" y="269"/>
			<point x="857" y="268" type="qcurve" smooth="yes"/>
			<point x="847" y="265"/>
			<point x="829" y="263"/>
			<point x="818" y="262" type="qcurve" smooth="yes"/>
			<point x="680" y="256" type="line"/>
			<point x="681" y="288" type="line"/>
			<point x="833" y="295" type="line" smooth="yes"/>
			<point x="852" y="297"/>
			<point x="852" y="306" type="qcurve" smooth="yes"/>
			<point x="852" y="312"/>
			<point x="827" y="338"/>
			<point x="816" y="338" type="qcurve" smooth="yes"/>
			<point x="811" y="338"/>
			<point x="805" y="335" type="qcurve" smooth="yes"/>
			<point x="798" y="332"/>
			<point x="781" y="330"/>
			<point x="771" y="329" type="qcurve" smooth="yes"/>
			<point x="682" y="325" type="line"/>
			<point x="682" y="354" type="line"/>
			<point x="833" y="361" type="line"/>
			<point x="850" y="363"/>
			<point x="850" y="371" type="qcurve" smooth="yes"/>
			<point x="850" y="381"/>
			<point x="822" y="403"/>
			<point x="812" y="403" type="qcurve" smooth="yes"/>
			<point x="810" y="403"/>
			<point x="804" y="401" type="qcurve" smooth="yes"/>
			<point x="795" y="398"/>
			<point x="779" y="396"/>
			<point x="770" y="395" type="qcurve" smooth="yes"/>
			<point x="683" y="391" type="line"/>
			<point x="684" y="424" type="line"/>
			<point x="869" y="433" type="line" smooth="yes"/>
			<point x="887" y="435"/>
			<point x="887" y="443" type="qcurve" smooth="yes"/>
			<point x="887" y="453"/>
			<point x="859" y="474"/>
			<point x="849" y="474" type="qcurve" smooth="yes"/>
			<point x="846" y="474"/>
			<point x="838" y="472" type="qcurve" smooth="yes"/>
			<point x="830" y="470"/>
			<point x="812" y="468"/>
			<point x="799" y="467" type="qcurve" smooth="yes"/>
			<point x="674" y="460" type="line"/>
			<point x="682" y="469"/>
			<point x="697" y="487"/>
			<point x="697" y="491" type="qcurve" smooth="yes"/>
			<point x="697" y="497"/>
			<point x="681" y="515"/>
			<point x="661" y="528"/>
			<point x="652" y="528" type="qcurve" smooth="yes"/>
			<point x="645" y="528"/>
			<point x="645" y="518" type="qcurve" smooth="yes"/>
			<point x="645" y="514"/>
			<point x="637" y="484"/>
			<point x="617" y="457" type="qcurve"/>
			<point x="542" y="453" type="line"/>
			<point x="544" y="454"/>
			<point x="562" y="474"/>
			<point x="562" y="479" type="qcurve" smooth="yes"/>
			<point x="562" y="484"/>
			<point x="541" y="509"/>
			<point x="524" y="517" type="qcurve"/>
			<point x="621" y="522" type="line" smooth="yes"/>
			<point x="629" y="523"/>
			<point x="641" y="525"/>
			<point x="641" y="529" type="qcurve" smooth="yes"/>
			<point x="641" y="533"/>
			<point x="632" y="547"/>
			<point x="620" y="558" type="qcurve"/>
			<point x="627" y="722" type="line" smooth="yes"/>
			<point x="627" y="727"/>
			<point x="632" y="736"/>
			<point x="632" y="740" type="qcurve" smooth="yes"/>
			<point x="632" y="749"/>
			<point x="622" y="755" type="qcurve"/>
			<point x="612" y="764"/>
			<point x="597" y="764" type="qcurve" smooth="yes"/>
			<point x="591" y="764"/>
			<point x="588" y="763" type="qcurve"/>
			<point x="449" y="754" type="line"/>
			<point x="408" y="772"/>
			<point x="396" y="772" type="qcurve" smooth="yes"/>
			<point x="390" y="772"/>
			<point x="390" y="766" type="qcurve" smooth="yes"/>
			<point x="390" y="762"/>
			<point x="394" y="751"/>
			<point x="397" y="743" type="qcurve" smooth="yes"/>
			<point x="406" y="725"/>
			<point x="407" y="702" type="qcurve" smooth="yes"/>
			<point x="414" y="563" type="line" smooth="yes"/>
			<point x="414" y="559"/>
			<point x="415" y="552"/>
			<point x="415" y="548" type="qcurve" smooth="yes"/>
			<point x="415" y="535"/>
			<point x="412" y="521" type="qcurve" smooth="yes"/>
			<point x="411" y="518"/>
			<point x="411" y="514" type="qcurve" smooth="yes"/>
			<point x="411" y="503"/>
			<point x="430" y="491"/>
			<point x="450" y="486"/>
			<point x="451" y="486" type="qcurve" smooth="yes"/>
			<point x="463" y="486"/>
			<point x="463" y="501" type="qcurve" smooth="yes"/>
			<point x="463" y="514" type="line"/>
			<point x="508" y="516" type="line"/>
			<point x="506" y="513"/>
			<point x="504" y="504" type="qcurve"/>
			<point x="504" y="501"/>
			<point x="503" y="499" type="qcurve"/>
			<point x="502" y="490"/>
			<point x="455" y="418"/>
			<point x="400" y="367" type="qcurve" smooth="yes"/>
			<point x="385" y="354"/>
			<point x="385" y="346" type="qcurve" smooth="yes"/>
			<point x="385" y="342"/>
			<point x="390" y="342" type="qcurve" smooth="yes"/>
			<point x="405" y="342"/>
			<point x="452" y="375" type="qcurve"/>
			<point x="450" y="269" type="line" smooth="yes"/>
			<point x="450" y="242"/>
			<point x="446" y="218" type="qcurve" smooth="yes"/>
			<point x="445" y="215"/>
			<point x="445" y="210" type="qcurve" smooth="yes"/>
			<point x="445" y="194"/>
			<point x="479" y="181"/>
			<point x="487" y="181" type="qcurve" smooth="yes"/>
			<point x="502" y="181"/>
			<point x="502" y="201" type="qcurve" smooth="yes"/>
			<point x="502" y="208" type="line"/>
		</contour>
		<contour>
			<point x="847" y="708" type="line"/>
			<point x="713" y="700" type="line"/>
			<point x="712" y="729" type="line"/>
			<point x="848" y="738" type="line"/>
		</contour>
		<contour>
			<point x="579" y="695" type="line"/>
			<point x="453" y="687" type="line"/>
			<point x="452" y="715" type="line"/>
			<point x="580" y="724" type="line"/>
		</contour>
		<contour>
			<point x="844" y="642" type="line"/>
			<point x="714" y="635" type="line"/>
			<point x="714" y="665" type="line"/>
			<point x="845" y="673" type="line"/>
		</contour>
		<contour>
			<point x="578" y="628" type="line"/>
			<point x="457" y="621" type="line"/>
			<point x="455" y="650" type="line"/>
			<point x="578" y="658" type="line"/>
		</contour>
		<contour>
			<point x="841" y="571" type="line"/>
			<point x="717" y="565" type="line"/>
			<point x="715" y="599" type="line"/>
			<point x="842" y="607" type="line"/>
		</contour>
		<contour>
			<point x="576" y="558" type="line"/>
			<point x="461" y="551" type="line"/>
			<point x="459" y="586" type="line"/>
			<point x="577" y="593" type="line"/>
		</contour>
		<contour>
			<point x="634" y="389" type="line"/>
			<point x="502" y="383" type="line"/>
			<point x="502" y="415" type="line"/>
			<point x="635" y="422" type="line"/>
		</contour>
		<contour>
			<point x="633" y="323" type="line"/>
			<point x="502" y="317" type="line"/>
			<point x="502" y="346" type="line"/>
			<point x="633" y="352" type="line"/>
		</contour>
		<contour>
			<point x="631" y="253" type="line"/>
			<point x="502" y="247" type="line"/>
			<point x="502" y="280" type="line"/>
			<point x="632" y="286" type="line"/>
		</contour>
		<contour>
			<point x="767" y="140" type="line"/>
			<point x="743" y="118"/>
			<point x="689" y="76"/>
			<point x="657" y="57" type="qcurve"/>
			<point x="627" y="72"/>
			<point x="569" y="104"/>
			<point x="542" y="121" type="qcurve" smooth="yes"/>
			<point x="534" y="126"/>
			<point x="529" y="126" type="qcurve" smooth="yes"/>
			<point x="523" y="126"/>
			<point x="503" y="104"/>
			<point x="503" y="96" type="qcurve" smooth="yes"/>
			<point x="503" y="93"/>
			<point x="513" y="81"/>
			<point x="558" y="54"/>
			<point x="609" y="28" type="qcurve"/>
			<point x="493" y="-35"/>
			<point x="354" y="-69" type="qcurve" smooth="yes"/>
			<point x="326" y="-76"/>
			<point x="326" y="-85" type="qcurve" smooth="yes"/>
			<point x="326" y="-92"/>
			<point x="345" y="-92" type="qcurve" smooth="yes"/>
			<point x="370" y="-92"/>
			<point x="472" y="-71"/>
			<point x="599" y="-29"/>
			<point x="662" y="2" type="qcurve"/>
			<point x="737" y="-32"/>
			<point x="868" y="-74"/>
			<point x="950" y="-93"/>
			<point x="952" y="-93" type="qcurve" smooth="yes"/>
			<point x="960" y="-93"/>
			<point x="978" y="-78"/>
			<point x="991" y="-59"/>
			<point x="991" y="-54" type="qcurve" smooth="yes"/>
			<point x="991" y="-46"/>
			<point x="978" y="-45" type="qcurve" smooth="yes"/>
			<point x="904" y="-34"/>
			<point x="772" y="6"/>
			<point x="712" y="32" type="qcurve"/>
			<point x="724" y="39"/>
			<point x="769" y="72"/>
			<point x="817" y="111"/>
			<point x="851" y="144"/>
			<point x="851" y="150" type="qcurve" smooth="yes"/>
			<point x="851" y="158"/>
			<point x="824" y="185"/>
			<point x="800" y="185" type="qcurve" smooth="yes"/>
			<point x="793" y="185" type="line"/>
			<point x="508" y="171" type="line"/>
			<point x="496" y="171" type="line" smooth="yes"/>
			<point x="486" y="171"/>
			<point x="465" y="173"/>
			<point x="454" y="175" type="qcurve" smooth="yes"/>
			<point x="453" y="175"/>
			<point x="450" y="176"/>
			<point x="449" y="176" type="qcurve" smooth="yes"/>
			<point x="443" y="176"/>
			<point x="443" y="172" type="qcurve" smooth="yes"/>
			<point x="443" y="167"/>
			<point x="460" y="141"/>
			<point x="473" y="131" type="qcurve" smooth="yes"/>
			<point x="479" y="126"/>
			<point x="500" y="126" type="qcurve" smooth="yes"/>
			<point x="507" y="126"/>
			<point x="523" y="126"/>
			<point x="532" y="127" type="qcurve" smooth="yes"/>
		</contour>
		<contour>
			<point x="150" y="594" type="line" smooth="yes"/>
			<point x="151" y="596"/>
			<point x="152" y="598" type="qcurve"/>
			<point x="386" y="615" type="line"/>
			<point x="398" y="617"/>
			<point x="398" y="628" type="qcurve" smooth="yes"/>
			<point x="398" y="642"/>
			<point x="368" y="677"/>
			<point x="350" y="677" type="qcurve" smooth="yes"/>
			<point x="343" y="677"/>
			<point x="337" y="674" type="qcurve" smooth="yes"/>
			<point x="325" y="670"/>
			<point x="299" y="662"/>
			<point x="287" y="661" type="qcurve" smooth="yes"/>
			<point x="182" y="652" type="line"/>
		</contour>
		<contour>
			<point x="207" y="653" type="line" smooth="yes"/>
			<point x="209" y="656"/>
			<point x="222" y="682"/>
			<point x="238" y="717"/>
			<point x="250" y="745"/>
			<point x="250" y="749" type="qcurve" smooth="yes"/>
			<point x="250" y="760"/>
			<point x="229" y="782"/>
			<point x="203" y="797"/>
			<point x="195" y="797" type="qcurve" smooth="yes"/>
			<point x="185" y="797"/>
			<point x="185" y="785" type="qcurve" smooth="yes"/>
			<point x="185" y="774" type="line" smooth="yes"/>
			<point x="185" y="755"/>
			<point x="165" y="688"/>
			<point x="130" y="606"/>
			<point x="86" y="521"/>
			<point x="61" y="483" type="qcurve" smooth="yes"/>
			<point x="46" y="460"/>
			<point x="46" y="448" type="qcurve" smooth="yes"/>
			<point x="46" y="441"/>
			<point x="52" y="441" type="qcurve" smooth="yes"/>
			<point x="58" y="441"/>
			<point x="84" y="466"/>
			<point x="115" y="505"/>
			<point x="129" y="526" type="qcurve" smooth="yes"/>
			<point x="144" y="546" type="line" smooth="yes"/>
			<point x="151" y="557"/>
			<point x="161" y="572" type="qcurve" smooth="yes"/>
			<point x="169" y="584"/>
			<point x="175" y="595" type="qcurve" smooth="yes"/>
		</contour>
		<contour>
			<point x="264" y="67" type="line" smooth="yes"/>
			<point x="230" y="44"/>
			<point x="181" y="18"/>
			<point x="169" y="16" type="qcurve" smooth="yes"/>
			<point x="161" y="14"/>
			<point x="162" y="7" type="qcurve" smooth="yes"/>
			<point x="163" y="2"/>
			<point x="184" y="-28"/>
			<point x="195" y="-39" type="qcurve"/>
			<point x="200" y="-41"/>
			<point x="203" y="-41" type="qcurve" smooth="yes"/>
			<point x="212" y="-42"/>
			<point x="251" y="-14"/>
			<point x="302" y="32"/>
			<point x="357" y="87"/>
			<point x="381" y="114" type="qcurve" smooth="yes"/>
			<point x="395" y="129"/>
			<point x="393" y="141" type="qcurve" smooth="yes"/>
			<point x="391" y="148"/>
			<point x="384" y="148" type="qcurve" smooth="yes"/>
			<point x="377" y="148"/>
			<point x="369" y="141" type="qcurve" smooth="yes"/>
			<point x="352" y="128"/>
			<point x="317" y="102"/>
			<point x="299" y="90" type="qcurve" smooth="yes"/>
		</contour>
		<contour>
			<point x="369" y="250" type="line" smooth="yes"/>
			<point x="378" y="251"/>
			<point x="390" y="257"/>
			<point x="390" y="264" type="qcurve" smooth="yes"/>
			<point x="390" y="274"/>
			<point x="370" y="294"/>
			<point x="348" y="308"/>
			<point x="343" y="308" type="qcurve" smooth="yes"/>
			<point x="340" y="308"/>
			<point x="334" y="306" type="qcurve" smooth="yes"/>
			<point x="325" y="302"/>
			<point x="307" y="299"/>
			<point x="298" y="298" type="qcurve" smooth="yes"/>
			<point x="259" y="296" type="line"/>
			<point x="260" y="430" type="line"/>
			<point x="263" y="430" type="line"/>
			<point x="361" y="438" type="line" smooth="yes"/>
			<point x="370" y="439"/>
			<point x="384" y="446"/>
			<point x="384" y="453" type="qcurve" smooth="yes"/>
			<point x="384" y="459"/>
			<point x="368" y="480"/>
			<point x="345" y="497"/>
			<point x="335" y="497" type="qcurve" smooth="yes"/>
			<point x="333" y="497"/>
			<point x="327" y="495" type="qcurve" smooth="yes"/>
			<point x="308" y="487"/>
			<point x="290" y="486" type="qcurve" smooth="yes"/>
			<point x="273" y="485" type="line"/>
			<point x="214" y="480" type="line"/>
			<point x="167" y="477" type="line"/>
			<point x="155" y="477" type="line" smooth="yes"/>
			<point x="137" y="477"/>
			<point x="123" y="480" type="qcurve"/>
			<point x="121" y="481"/>
			<point x="117" y="481" type="qcurve" smooth="yes"/>
			<point x="110" y="481"/>
			<point x="110" y="474" type="qcurve" smooth="yes"/>
			<point x="110" y="470"/>
			<point x="121" y="442"/>
			<point x="139" y="428" type="qcurve" smooth="yes"/>
			<point x="144" y="424"/>
			<point x="162" y="424" type="qcurve" smooth="yes"/>
			<point x="166" y="424"/>
			<point x="179" y="424"/>
			<point x="185" y="425" type="qcurve" smooth="yes"/>
			<point x="203" y="426" type="line"/>
			<point x="201" y="292" type="line"/>
			<point x="116" y="287" type="line" smooth="yes"/>
			<point x="112" y="287"/>
			<point x="105" y="286"/>
			<point x="101" y="286" type="qcurve" smooth="yes"/>
			<point x="87" y="286"/>
			<point x="73" y="289" type="qcurve"/>
			<point x="71" y="290"/>
			<point x="67" y="290" type="qcurve" smooth="yes"/>
			<point x="59" y="290"/>
			<point x="59" y="283" type="qcurve" smooth="yes"/>
			<point x="59" y="281"/>
			<point x="61" y="275" type="qcurve" smooth="yes"/>
			<point x="69" y="254"/>
			<point x="90" y="237" type="qcurve" smooth="yes"/>
			<point x="97" y="232"/>
			<point x="111" y="232" type="qcurve" smooth="yes"/>
			<point x="116" y="232"/>
			<point x="129" y="233"/>
			<point x="137" y="234" type="qcurve" smooth="yes"/>
			<point x="200" y="238" type="line"/>
			<point x="201" y="238" type="line"/>
			<point x="199" y="13" type="line"/>
			<point x="258" y="37" type="line"/>
			<point x="259" y="242" type="line"/>
		</contour>
	</outline>
</glyph>
<glyph name="uni4CA1" format="2">
	<advance width="1000"/>
	<unicode hex="4CA1"/>
	<note>
		uni4CA1
	</note>
	<outline>
		<contour>
			<point x="691" y="804" type="line" smooth="yes"/>
			<point x="663" y="804"/>
			<point x="663" y="793" type="qcurve" smooth="yes"/>
			<point x="663" y="786"/>
			<point x="674" y="780" type="qcurve" smooth="yes"/>
			<point x="685" y="774"/>
			<point x="700" y="762"/>
			<point x="708" y="750" type="qcurve" smooth="yes"/>
			<point x="728" y="721"/>
			<point x="820" y="601"/>
			<point x="906" y="530" type="qcurve"/>
			<point x="912" y="524"/>
			<point x="919" y="524" type="qcurve" smooth="yes"/>
			<point x="926" y="524"/>
			<point x="948" y="537"/>
			<point x="965" y="554"/>
			<point x="965" y="558" type="qcurve" smooth="yes"/>
			<point x="965" y="564"/>
			<point x="957" y="569" type="qcurve" smooth="yes"/>
			<point x="925" y="589"/>
			<point x="849" y="655"/>
			<point x="778" y="733"/>
			<point x="754" y="770" type="qcurve" smooth="yes"/>
			<point x="743" y="787"/>
			<point x="726" y="803"/>
			<point x="700" y="804" type="qcurve" smooth="yes"/>
		</contour>
		<contour>
			<point x="411" y="167" type="line" smooth="yes"/>
			<point x="422" y="168"/>
			<point x="435" y="171"/>
			<point x="435" y="177" type="qcurve" smooth="yes"/>
			<point x="435" y="187"/>
			<point x="408" y="218" type="qcurve"/>
			<point x="429" y="475" type="line" smooth="yes"/>
			<point x="430" y="481"/>
			<point x="436" y="492"/>
			<point x="436" y="497" type="qcurve" smooth="yes"/>
			<point x="436" y="503"/>
			<point x="408" y="531"/>
			<point x="393" y="531" type="qcurve" smooth="yes"/>
			<point x="387" y="531" type="line"/>
			<point x="321" y="527" type="line"/>
			<point x="354" y="571"/>
			<point x="378" y="613" type="qcurve"/>
			<point x="380" y="618"/>
			<point x="393" y="629"/>
			<point x="393" y="637" type="qcurve" smooth="yes"/>
			<point x="393" y="649"/>
			<point x="365" y="673"/>
			<point x="353" y="673" type="qcurve" smooth="yes"/>
			<point x="351" y="673"/>
			<point x="346" y="672"/>
			<point x="343" y="672" type="qcurve" smooth="yes"/>
			<point x="243" y="665" type="line"/>
			<point x="245" y="668"/>
			<point x="258" y="693"/>
			<point x="274" y="723"/>
			<point x="286" y="748"/>
			<point x="286" y="752" type="qcurve" smooth="yes"/>
			<point x="286" y="764"/>
			<point x="258" y="783"/>
			<point x="229" y="794"/>
			<point x="227" y="794" type="qcurve" smooth="yes"/>
			<point x="218" y="794"/>
			<point x="218" y="785" type="qcurve" smooth="yes"/>
			<point x="218" y="784"/>
			<point x="219" y="781"/>
			<point x="219" y="779" type="qcurve" smooth="yes"/>
			<point x="220" y="775"/>
			<point x="221" y="768"/>
			<point x="221" y="764" type="qcurve" smooth="yes"/>
			<point x="221" y="758"/>
			<point x="198" y="689"/>
			<point x="124" y="556"/>
			<point x="48" y="451" type="qcurve" smooth="yes"/>
			<point x="41" y="441"/>
			<point x="41" y="433" type="qcurve" smooth="yes"/>
			<point x="41" y="427"/>
			<point x="46" y="427" type="qcurve" smooth="yes"/>
			<point x="53" y="427"/>
			<point x="76" y="447"/>
			<point x="110" y="484" type="qcurve"/>
			<point x="111" y="480"/>
			<point x="112" y="471"/>
			<point x="112" y="466" type="qcurve" smooth="yes"/>
			<point x="123" y="236" type="line" smooth="yes"/>
			<point x="123" y="229"/>
			<point x="124" y="215"/>
			<point x="124" y="208" type="qcurve" smooth="yes"/>
			<point x="124" y="186"/>
			<point x="121" y="163" type="qcurve"/>
			<point x="121" y="156" type="line" smooth="yes"/>
			<point x="121" y="142"/>
			<point x="155" y="122"/>
			<point x="164" y="122" type="qcurve" smooth="yes"/>
			<point x="178" y="122"/>
			<point x="178" y="141" type="qcurve" smooth="yes"/>
			<point x="178" y="145" type="line"/>
			<point x="177" y="157" type="line"/>
		</contour>
		<contour>
			<point x="889" y="-26" type="line" smooth="yes"/>
			<point x="900" y="-25"/>
			<point x="914" y="-22"/>
			<point x="914" y="-15" type="qcurve" smooth="yes"/>
			<point x="914" y="-3"/>
			<point x="889" y="26" type="qcurve"/>
			<point x="910" y="422" type="line"/>
			<point x="911" y="427"/>
			<point x="917" y="436"/>
			<point x="917" y="443" type="qcurve" smooth="yes"/>
			<point x="917" y="457"/>
			<point x="883" y="478"/>
			<point x="872" y="478" type="qcurve" smooth="yes"/>
			<point x="869" y="478"/>
			<point x="863" y="477"/>
			<point x="858" y="477" type="qcurve" smooth="yes"/>
			<point x="772" y="472" type="line"/>
			<point x="774" y="561" type="line"/>
			<point x="816" y="564" type="line" smooth="yes"/>
			<point x="838" y="565"/>
			<point x="838" y="577" type="qcurve" smooth="yes"/>
			<point x="838" y="582"/>
			<point x="820" y="602"/>
			<point x="796" y="620"/>
			<point x="786" y="620" type="qcurve" smooth="yes"/>
			<point x="782" y="620"/>
			<point x="774" y="617" type="qcurve" smooth="yes"/>
			<point x="756" y="612"/>
			<point x="735" y="610" type="qcurve" smooth="yes"/>
			<point x="607" y="601" type="line" smooth="yes"/>
			<point x="602" y="601"/>
			<point x="591" y="600"/>
			<point x="586" y="600" type="qcurve" smooth="yes"/>
			<point x="579" y="600"/>
			<point x="566" y="601"/>
			<point x="559" y="602" type="qcurve"/>
			<point x="581" y="627"/>
			<point x="622" y="684"/>
			<point x="649" y="728"/>
			<point x="649" y="733" type="qcurve" smooth="yes"/>
			<point x="649" y="742"/>
			<point x="627" y="765"/>
			<point x="600" y="781"/>
			<point x="592" y="781" type="qcurve" smooth="yes"/>
			<point x="585" y="781"/>
			<point x="585" y="773" type="qcurve" smooth="yes"/>
			<point x="584" y="758"/>
			<point x="580" y="738"/>
			<point x="575" y="728" type="qcurve" smooth="yes"/>
			<point x="551" y="676"/>
			<point x="483" y="573"/>
			<point x="446" y="532" type="qcurve" smooth="yes"/>
			<point x="434" y="519"/>
			<point x="434" y="509" type="qcurve" smooth="yes"/>
			<point x="434" y="502"/>
			<point x="441" y="502" type="qcurve" smooth="yes"/>
			<point x="449" y="502"/>
			<point x="483" y="527"/>
			<point x="526" y="565"/>
			<point x="544" y="585" type="qcurve"/>
			<point x="554" y="564"/>
			<point x="573" y="550"/>
			<point x="588" y="550" type="qcurve" smooth="yes"/>
			<point x="593" y="550"/>
			<point x="605" y="550"/>
			<point x="613" y="551" type="qcurve"/>
			<point x="614" y="528"/>
			<point x="614" y="482"/>
			<point x="614" y="464" type="qcurve"/>
			<point x="537" y="460" type="line"/>
			<point x="489" y="479"/>
			<point x="476" y="479" type="qcurve" smooth="yes"/>
			<point x="468" y="479"/>
			<point x="468" y="472" type="qcurve" smooth="yes"/>
			<point x="468" y="468"/>
			<point x="472" y="457"/>
			<point x="474" y="450" type="qcurve" smooth="yes"/>
			<point x="478" y="438"/>
			<point x="480" y="413"/>
			<point x="481" y="396" type="qcurve" smooth="yes"/>
			<point x="493" y="19" type="line"/>
			<point x="493" y="7" type="line" smooth="yes"/>
			<point x="493" y="-5"/>
			<point x="491" y="-26"/>
			<point x="489" y="-38" type="qcurve" smooth="yes"/>
			<point x="488" y="-41"/>
			<point x="488" y="-47" type="qcurve" smooth="yes"/>
			<point x="488" y="-58"/>
			<point x="508" y="-76"/>
			<point x="532" y="-86"/>
			<point x="536" y="-86" type="qcurve" smooth="yes"/>
			<point x="544" y="-86"/>
			<point x="551" y="-73"/>
			<point x="551" y="-63" type="qcurve" smooth="yes"/>
			<point x="551" y="-59" type="line"/>
			<point x="550" y="-35" type="line"/>
		</contour>
		<contour>
			<point x="318" y="622" type="line"/>
			<point x="297" y="577"/>
			<point x="260" y="523" type="qcurve"/>
			<point x="160" y="516" type="line"/>
			<point x="155" y="518"/>
			<point x="147" y="520"/>
			<point x="142" y="521" type="qcurve"/>
			<point x="179" y="565"/>
			<point x="212" y="615" type="qcurve"/>
		</contour>
		<contour>
			<point x="719" y="470" type="line"/>
			<point x="668" y="467" type="line"/>
			<point x="668" y="555" type="line"/>
			<point x="720" y="558" type="line"/>
		</contour>
		<contour>
			<point x="365" y="381" type="line"/>
			<point x="290" y="376" type="line"/>
			<point x="291" y="474" type="line"/>
			<point x="370" y="479" type="line"/>
		</contour>
		<contour>
			<point x="240" y="374" type="line"/>
			<point x="167" y="369" type="line"/>
			<point x="163" y="466" type="line"/>
			<point x="241" y="471" type="line"/>
		</contour>
		<contour>
			<point x="847" y="294" type="line"/>
			<point x="793" y="294" type="line" smooth="yes"/>
			<point x="779" y="294"/>
			<point x="769" y="305"/>
			<point x="769" y="320" type="qcurve" smooth="yes"/>
			<point x="771" y="422" type="line"/>
			<point x="852" y="426" type="line"/>
		</contour>
		<contour>
			<point x="842" y="163" type="line"/>
			<point x="545" y="152" type="line"/>
			<point x="538" y="411" type="line"/>
			<point x="614" y="415" type="line"/>
			<point x="613" y="355"/>
			<point x="587" y="262"/>
			<point x="556" y="209" type="qcurve" smooth="yes"/>
			<point x="550" y="199"/>
			<point x="550" y="193" type="qcurve" smooth="yes"/>
			<point x="550" y="186"/>
			<point x="556" y="186" type="qcurve" smooth="yes"/>
			<point x="562" y="186"/>
			<point x="596" y="214"/>
			<point x="635" y="271"/>
			<point x="665" y="358"/>
			<point x="668" y="417" type="qcurve"/>
			<point x="718" y="420" type="line"/>
			<point x="717" y="311" type="line"/>
			<point x="717" y="307" type="line" smooth="yes"/>
			<point x="717" y="274"/>
			<point x="747" y="243"/>
			<point x="790" y="243" type="qcurve" smooth="yes"/>
			<point x="794" y="243" type="line"/>
			<point x="794" y="243"/>
			<point x="826" y="243"/>
			<point x="845" y="244" type="qcurve"/>
		</contour>
		<contour>
			<point x="357" y="217" type="line"/>
			<point x="289" y="214" type="line"/>
			<point x="290" y="328" type="line"/>
			<point x="362" y="332" type="line"/>
		</contour>
		<contour>
			<point x="239" y="212" type="line"/>
			<point x="175" y="209" type="line"/>
			<point x="170" y="322" type="line"/>
			<point x="240" y="326" type="line"/>
		</contour>
		<contour>
			<point x="836" y="25" type="line"/>
			<point x="549" y="17" type="line"/>
			<point x="547" y="102" type="line"/>
			<point x="840" y="113" type="line"/>
		</contour>
		<contour>
			<point x="227" y="67" type="line" smooth="yes"/>
			<point x="201" y="59"/>
			<point x="136" y="44"/>
			<point x="80" y="35"/>
			<point x="65" y="35" type="qcurve" smooth="yes"/>
			<point x="55" y="35" type="line" smooth="yes"/>
			<point x="49" y="35"/>
			<point x="49" y="30" type="qcurve" smooth="yes"/>
			<point x="49" y="29"/>
			<point x="67" y="-3"/>
			<point x="95" y="-33"/>
			<point x="110" y="-33" type="qcurve" smooth="yes"/>
			<point x="123" y="-33"/>
			<point x="196" y="-8"/>
			<point x="293" y="31"/>
			<point x="390" y="75"/>
			<point x="429" y="94" type="qcurve" smooth="yes"/>
			<point x="454" y="108"/>
			<point x="454" y="117" type="qcurve" smooth="yes"/>
			<point x="454" y="124"/>
			<point x="441" y="124" type="qcurve" smooth="yes"/>
			<point x="434" y="124"/>
			<point x="416" y="119" type="qcurve" smooth="yes"/>
			<point x="386" y="110"/>
			<point x="323" y="91"/>
			<point x="290" y="82" type="qcurve" smooth="yes"/>
		</contour>
	</outline>
</glyph>
<glyph name="uni4CA2" format="2">
	<advance width="1000"/>
	<unicode hex="4CA2"/>
	<note>
		uni4CA2
	</note>
	<outline>
		<contour>
			<point x="823" y="72" type="line" smooth="yes"/>
			<point x="833" y="73"/>
			<point x="846" y="75"/>
			<point x="846" y="81" type="qcurve" smooth="yes"/>
			<point x="846" y="90"/>
			<point x="825" y="115" type="qcurve"/>
			<point x="839" y="247" type="line" smooth="yes"/>
			<point x="840" y="252"/>
			<point x="847" y="263"/>
			<point x="847" y="270" type="qcurve" smooth="yes"/>
			<point x="847" y="280"/>
			<point x="823" y="299"/>
			<point x="809" y="299" type="qcurve" smooth="yes"/>
			<point x="806" y="299"/>
			<point x="801" y="298"/>
			<point x="798" y="298" type="qcurve" smooth="yes"/>
			<point x="684" y="292" type="line"/>
			<point x="740" y="342" type="line" smooth="yes"/>
			<point x="748" y="348"/>
			<point x="758" y="358"/>
			<point x="758" y="363" type="qcurve" smooth="yes"/>
			<point x="758" y="368"/>
			<point x="738" y="395"/>
			<point x="719" y="395" type="qcurve" smooth="yes"/>
			<point x="716" y="395"/>
			<point x="709" y="394"/>
			<point x="705" y="394" type="qcurve" smooth="yes"/>
			<point x="628" y="387" type="line"/>
			<point x="631" y="392"/>
			<point x="638" y="399"/>
			<point x="642" y="403" type="qcurve" smooth="yes"/>
			<point x="648" y="409"/>
			<point x="648" y="416" type="qcurve" smooth="yes"/>
			<point x="648" y="426"/>
			<point x="630" y="445"/>
			<point x="608" y="459"/>
			<point x="603" y="459" type="qcurve" smooth="yes"/>
			<point x="595" y="459"/>
			<point x="592" y="443" type="qcurve" smooth="yes"/>
			<point x="588" y="424"/>
			<point x="578" y="411" type="qcurve" smooth="yes"/>
			<point x="565" y="395"/>
			<point x="518" y="344"/>
			<point x="459" y="288"/>
			<point x="427" y="263" type="qcurve" smooth="yes"/>
			<point x="410" y="249"/>
			<point x="410" y="240" type="qcurve" smooth="yes"/>
			<point x="410" y="234"/>
			<point x="418" y="234" type="qcurve" smooth="yes"/>
			<point x="428" y="234"/>
			<point x="441" y="242" type="qcurve" smooth="yes"/>
			<point x="462" y="254" type="line"/>
			<point x="465" y="247"/>
			<point x="465" y="234" type="qcurve" smooth="yes"/>
			<point x="472" y="121" type="line"/>
			<point x="472" y="111" type="line" smooth="yes"/>
			<point x="472" y="104"/>
			<point x="471" y="87"/>
			<point x="470" y="79" type="qcurve" smooth="yes"/>
			<point x="470" y="76" type="line" smooth="yes"/>
			<point x="470" y="63"/>
			<point x="488" y="47"/>
			<point x="509" y="40"/>
			<point x="514" y="40" type="qcurve" smooth="yes"/>
			<point x="528" y="40"/>
			<point x="528" y="53" type="qcurve" smooth="yes"/>
			<point x="528" y="60" type="line"/>
		</contour>
		<contour>
			<point x="682" y="352" type="line"/>
			<point x="659" y="322"/>
			<point x="623" y="289" type="qcurve"/>
			<point x="520" y="283" type="line"/>
			<point x="511" y="286" type="line"/>
			<point x="531" y="300"/>
			<point x="568" y="329"/>
			<point x="584" y="344" type="qcurve"/>
		</contour>
		<contour>
			<point x="783" y="208" type="line"/>
			<point x="676" y="203" type="line"/>
			<point x="676" y="248" type="line"/>
			<point x="786" y="254" type="line"/>
		</contour>
		<contour>
			<point x="628" y="200" type="line"/>
			<point x="520" y="195" type="line"/>
			<point x="517" y="239" type="line"/>
			<point x="628" y="245" type="line"/>
		</contour>
		<contour>
			<point x="777" y="113" type="line"/>
			<point x="675" y="109" type="line"/>
			<point x="675" y="160" type="line"/>
			<point x="780" y="165" type="line"/>
		</contour>
		<contour>
			<point x="627" y="107" type="line"/>
			<point x="525" y="103" type="line"/>
			<point x="522" y="153" type="line"/>
			<point x="627" y="158" type="line"/>
		</contour>
		<contour>
			<point x="686" y="481" type="line"/>
			<point x="709" y="453"/>
			<point x="728" y="432" type="qcurve" smooth="yes"/>
			<point x="759" y="401" type="line" smooth="yes"/>
			<point x="791" y="371"/>
			<point x="872" y="317"/>
			<point x="920" y="293" type="qcurve" smooth="yes"/>
			<point x="925" y="290"/>
			<point x="929" y="290" type="qcurve" smooth="yes"/>
			<point x="935" y="290"/>
			<point x="954" y="302"/>
			<point x="972" y="320" type="qcurve" smooth="yes"/>
			<point x="975" y="323"/>
			<point x="975" y="326" type="qcurve" smooth="yes"/>
			<point x="975" y="332"/>
			<point x="963" y="339" type="qcurve" smooth="yes"/>
			<point x="896" y="372"/>
			<point x="791" y="441"/>
			<point x="753" y="482" type="qcurve"/>
			<point x="751" y="485" type="line"/>
		</contour>
		<contour>
			<point x="345" y="305" type="line"/>
			<point x="346" y="671" type="line" smooth="yes"/>
			<point x="346" y="676"/>
			<point x="352" y="691"/>
			<point x="352" y="698" type="qcurve" smooth="yes"/>
			<point x="352" y="712"/>
			<point x="335" y="727"/>
			<point x="317" y="733"/>
			<point x="315" y="733" type="qcurve" smooth="yes"/>
			<point x="311" y="733"/>
			<point x="302" y="732"/>
			<point x="296" y="732" type="qcurve" smooth="yes"/>
			<point x="188" y="725" type="line"/>
			<point x="130" y="749"/>
			<point x="117" y="749" type="qcurve" smooth="yes"/>
			<point x="110" y="749"/>
			<point x="110" y="744" type="qcurve" smooth="yes"/>
			<point x="110" y="742"/>
			<point x="114" y="734"/>
			<point x="116" y="729" type="qcurve" smooth="yes"/>
			<point x="122" y="718"/>
			<point x="128" y="678"/>
			<point x="131" y="602"/>
			<point x="131" y="535" type="qcurve" smooth="yes"/>
			<point x="131" y="423"/>
			<point x="121" y="252"/>
			<point x="100" y="121"/>
			<point x="68" y="14"/>
			<point x="45" y="-35" type="qcurve" smooth="yes"/>
			<point x="38" y="-50"/>
			<point x="38" y="-60" type="qcurve" smooth="yes"/>
			<point x="38" y="-68"/>
			<point x="43" y="-68" type="qcurve" smooth="yes"/>
			<point x="49" y="-68"/>
			<point x="62" y="-54" type="qcurve"/>
			<point x="63" y="-52"/>
			<point x="67" y="-48" type="qcurve" smooth="yes"/>
			<point x="117" y="14"/>
			<point x="165" y="171"/>
			<point x="175" y="269" type="qcurve"/>
			<point x="288" y="275" type="line"/>
			<point x="286" y="5" type="line"/>
			<point x="263" y="13"/>
			<point x="222" y="34"/>
			<point x="202" y="47" type="qcurve" smooth="yes"/>
			<point x="192" y="54"/>
			<point x="177" y="59"/>
			<point x="172" y="59" type="qcurve" smooth="yes"/>
			<point x="165" y="59"/>
			<point x="165" y="53" type="qcurve" smooth="yes"/>
			<point x="165" y="45"/>
			<point x="196" y="6"/>
			<point x="241" y="-37"/>
			<point x="284" y="-67"/>
			<point x="297" y="-67" type="qcurve" smooth="yes"/>
			<point x="314" y="-67"/>
			<point x="346" y="-38"/>
			<point x="346" y="-10" type="qcurve" smooth="yes"/>
			<point x="346" y="-1"/>
			<point x="345" y="19"/>
			<point x="345" y="31" type="qcurve" smooth="yes"/>
		</contour>
		<contour>
			<point x="841" y="751"/>
			<point x="821" y="772"/>
			<point x="797" y="789"/>
			<point x="789" y="789" type="qcurve" smooth="yes"/>
			<point x="782" y="789"/>
			<point x="782" y="777" type="qcurve" smooth="yes"/>
			<point x="782" y="762"/>
			<point x="754" y="725"/>
			<point x="717" y="693"/>
			<point x="704" y="682" type="qcurve" smooth="yes"/>
			<point x="689" y="670"/>
			<point x="689" y="663" type="qcurve" smooth="yes"/>
			<point x="689" y="658"/>
			<point x="696" y="658" type="qcurve" smooth="yes"/>
			<point x="710" y="658"/>
			<point x="758" y="682"/>
			<point x="807" y="713"/>
			<point x="841" y="741"/>
			<point x="841" y="746" type="qcurve" smooth="yes"/>
		</contour>
		<contour>
			<point x="554" y="684"/>
			<point x="550" y="690"/>
			<point x="547" y="693" type="qcurve" smooth="yes"/>
			<point x="532" y="711"/>
			<point x="496" y="745"/>
			<point x="465" y="769"/>
			<point x="458" y="769" type="qcurve" smooth="yes"/>
			<point x="454" y="769"/>
			<point x="429" y="755"/>
			<point x="429" y="748" type="qcurve" smooth="yes"/>
			<point x="429" y="743"/>
			<point x="434" y="739" type="qcurve" smooth="yes"/>
			<point x="476" y="701"/>
			<point x="502" y="663" type="qcurve" smooth="yes"/>
			<point x="505" y="659"/>
			<point x="512" y="652"/>
			<point x="517" y="652" type="qcurve" smooth="yes"/>
			<point x="527" y="652"/>
			<point x="554" y="673"/>
			<point x="554" y="680" type="qcurve" smooth="yes"/>
		</contour>
		<contour>
			<point x="289" y="525" type="line"/>
			<point x="188" y="520" type="line"/>
			<point x="188" y="673" type="line"/>
			<point x="290" y="679" type="line"/>
		</contour>
		<contour>
			<point x="288" y="327" type="line"/>
			<point x="180" y="322" type="line"/>
			<point x="182" y="357"/>
			<point x="186" y="432"/>
			<point x="187" y="470" type="qcurve"/>
			<point x="289" y="475" type="line"/>
		</contour>
		<contour>
			<point x="935" y="484" type="line"/>
			<point x="938" y="484" type="line" smooth="yes"/>
			<point x="953" y="486"/>
			<point x="953" y="496" type="qcurve" smooth="yes"/>
			<point x="953" y="504"/>
			<point x="937" y="525"/>
			<point x="915" y="540"/>
			<point x="906" y="540" type="qcurve" smooth="yes"/>
			<point x="901" y="540"/>
			<point x="893" y="537" type="qcurve" smooth="yes"/>
			<point x="875" y="531"/>
			<point x="846" y="530" type="qcurve" smooth="yes"/>
			<point x="424" y="512" type="line"/>
			<point x="410" y="512" type="line" smooth="yes"/>
			<point x="398" y="512"/>
			<point x="377" y="514"/>
			<point x="365" y="519" type="qcurve"/>
			<point x="364" y="519"/>
			<point x="362" y="520"/>
			<point x="360" y="520" type="qcurve" smooth="yes"/>
			<point x="357" y="520"/>
			<point x="357" y="517" type="qcurve" smooth="yes"/>
			<point x="357" y="512"/>
			<point x="358" y="510" type="qcurve" smooth="yes"/>
			<point x="368" y="480"/>
			<point x="400" y="466"/>
			<point x="415" y="465" type="qcurve" smooth="yes"/>
			<point x="426" y="465" type="line"/>
		</contour>
		<contour>
			<point x="865" y="595" type="line"/>
			<point x="883" y="597"/>
			<point x="883" y="605" type="qcurve" smooth="yes"/>
			<point x="883" y="613"/>
			<point x="864" y="633"/>
			<point x="841" y="649"/>
			<point x="836" y="649" type="qcurve" smooth="yes"/>
			<point x="831" y="649"/>
			<point x="829" y="648" type="qcurve" smooth="yes"/>
			<point x="806" y="640"/>
			<point x="776" y="638" type="qcurve" smooth="yes"/>
			<point x="485" y="623" type="line" smooth="yes"/>
			<point x="481" y="623"/>
			<point x="474" y="622"/>
			<point x="470" y="622" type="qcurve" smooth="yes"/>
			<point x="457" y="622"/>
			<point x="435" y="627"/>
			<point x="423" y="631" type="qcurve" smooth="yes"/>
			<point x="421" y="632"/>
			<point x="419" y="632" type="qcurve" smooth="yes"/>
			<point x="413" y="632"/>
			<point x="413" y="626" type="qcurve" smooth="yes"/>
			<point x="413" y="623"/>
			<point x="414" y="621" type="qcurve" smooth="yes"/>
			<point x="425" y="588"/>
			<point x="449" y="577"/>
			<point x="461" y="577" type="qcurve" smooth="yes"/>
			<point x="466" y="577"/>
			<point x="480" y="577"/>
			<point x="489" y="578" type="qcurve" smooth="yes"/>
		</contour>
		<contour>
			<point x="641" y="623" type="line" smooth="yes"/>
			<point x="662" y="694"/>
			<point x="674" y="778" type="qcurve"/>
			<point x="674" y="783" type="line" smooth="yes"/>
			<point x="674" y="797"/>
			<point x="648" y="810"/>
			<point x="618" y="817"/>
			<point x="611" y="817" type="qcurve" smooth="yes"/>
			<point x="601" y="817"/>
			<point x="601" y="809" type="qcurve" smooth="yes"/>
			<point x="601" y="808"/>
			<point x="602" y="804"/>
			<point x="603" y="800" type="qcurve" smooth="yes"/>
			<point x="607" y="790"/>
			<point x="609" y="771"/>
			<point x="609" y="762" type="qcurve" smooth="yes"/>
			<point x="609" y="746"/>
			<point x="601" y="695"/>
			<point x="588" y="640"/>
			<point x="581" y="620" type="qcurve" smooth="yes"/>
			<point x="563" y="572" type="line" smooth="yes"/>
			<point x="556" y="555"/>
			<point x="540" y="522"/>
			<point x="532" y="507" type="qcurve" smooth="yes"/>
			<point x="502" y="457" type="line"/>
			<point x="443" y="370"/>
			<point x="355" y="289" type="qcurve"/>
			<point x="352" y="287"/>
			<point x="347" y="281"/>
			<point x="345" y="279" type="qcurve"/>
			<point x="345" y="260" type="line"/>
			<point x="355" y="260"/>
			<point x="401" y="289"/>
			<point x="457" y="335"/>
			<point x="481" y="358" type="qcurve" smooth="yes"/>
			<point x="525" y="405" type="line"/>
			<point x="536" y="419"/>
			<point x="557" y="447"/>
			<point x="567" y="461" type="qcurve"/>
			<point x="595" y="511" type="line" smooth="yes"/>
			<point x="603" y="526"/>
			<point x="617" y="557"/>
			<point x="624" y="574" type="qcurve" smooth="yes"/>
		</contour>
		<contour>
			<point x="943" y="-13" type="line"/>
			<point x="963" y="-11"/>
			<point x="963" y="-3" type="qcurve" smooth="yes"/>
			<point x="963" y="5"/>
			<point x="942" y="25"/>
			<point x="916" y="41"/>
			<point x="910" y="41" type="qcurve" smooth="yes"/>
			<point x="905" y="41"/>
			<point x="902" y="40" type="qcurve" smooth="yes"/>
			<point x="876" y="32"/>
			<point x="843" y="30" type="qcurve" smooth="yes"/>
			<point x="446" y="15" type="line" smooth="yes"/>
			<point x="441" y="15"/>
			<point x="434" y="14"/>
			<point x="429" y="14" type="qcurve" smooth="yes"/>
			<point x="414" y="14"/>
			<point x="390" y="19"/>
			<point x="376" y="23" type="qcurve" smooth="yes"/>
			<point x="374" y="24"/>
			<point x="372" y="24" type="qcurve" smooth="yes"/>
			<point x="365" y="24"/>
			<point x="365" y="18" type="qcurve" smooth="yes"/>
			<point x="365" y="15"/>
			<point x="366" y="13" type="qcurve" smooth="yes"/>
			<point x="378" y="-20"/>
			<point x="405" y="-31"/>
			<point x="419" y="-31" type="qcurve" smooth="yes"/>
			<point x="425" y="-31"/>
			<point x="440" y="-31"/>
			<point x="450" y="-30" type="qcurve" smooth="yes"/>
		</contour>
	</outline>
</glyph>
<glyph name="uni4D14" format="2">
	<advance width="1000"/>
	<unicode hex="4D14"/>
	<note>
		uni4D14
	</note>
	<outline>
		<contour>
			<point x="459" y="587" type="line" smooth="yes"/>
			<point x="466" y="588"/>
			<point x="476" y="594"/>
			<point x="476" y="600" type="qcurve" smooth="yes"/>
			<point x="476" y="609"/>
			<point x="457" y="630"/>
			<point x="433" y="644"/>
			<point x="425" y="644" type="qcurve" smooth="yes"/>
			<point x="420" y="644"/>
			<point x="417" y="643" type="qcurve" smooth="yes"/>
			<point x="406" y="639"/>
			<point x="382" y="636"/>
			<point x="372" y="635" type="qcurve" smooth="yes"/>
			<point x="310" y="631" type="line"/>
			<point x="311" y="732" type="line" smooth="yes"/>
			<point x="311" y="748"/>
			<point x="286" y="763"/>
			<point x="257" y="768"/>
			<point x="250" y="768" type="qcurve" smooth="yes"/>
			<point x="237" y="768"/>
			<point x="237" y="760" type="qcurve" smooth="yes"/>
			<point x="237" y="757"/>
			<point x="241" y="749" type="qcurve" smooth="yes"/>
			<point x="252" y="732"/>
			<point x="252" y="709" type="qcurve" smooth="yes"/>
			<point x="251" y="627" type="line"/>
			<point x="141" y="619" type="line" smooth="yes"/>
			<point x="138" y="619"/>
			<point x="131" y="618"/>
			<point x="127" y="618" type="qcurve" smooth="yes"/>
			<point x="111" y="618"/>
			<point x="91" y="623" type="qcurve"/>
			<point x="89" y="624"/>
			<point x="86" y="624" type="qcurve" smooth="yes"/>
			<point x="79" y="624"/>
			<point x="79" y="617" type="qcurve" smooth="yes"/>
			<point x="79" y="616"/>
			<point x="80" y="613"/>
			<point x="80" y="611" type="qcurve"/>
			<point x="84" y="599"/>
			<point x="108" y="566"/>
			<point x="131" y="566" type="qcurve" smooth="yes"/>
			<point x="139" y="566"/>
			<point x="155" y="567"/>
			<point x="164" y="568" type="qcurve" smooth="yes"/>
		</contour>
		<contour>
			<point x="476" y="404"/>
			<point x="447" y="446"/>
			<point x="406" y="495"/>
			<point x="369" y="537"/>
			<point x="360" y="546" type="qcurve" smooth="yes"/>
			<point x="349" y="557"/>
			<point x="341" y="557" type="qcurve" smooth="yes"/>
			<point x="335" y="557"/>
			<point x="311" y="540"/>
			<point x="311" y="529" type="qcurve" smooth="yes"/>
			<point x="311" y="522"/>
			<point x="321" y="510" type="qcurve" smooth="yes"/>
			<point x="342" y="485"/>
			<point x="395" y="414"/>
			<point x="418" y="377" type="qcurve" smooth="yes"/>
			<point x="428" y="361"/>
			<point x="437" y="361" type="qcurve" smooth="yes"/>
			<point x="439" y="361"/>
			<point x="458" y="370"/>
			<point x="476" y="386"/>
			<point x="476" y="396" type="qcurve" smooth="yes"/>
		</contour>
		<contour>
			<point x="80" y="322"/>
			<point x="119" y="351"/>
			<point x="169" y="399"/>
			<point x="219" y="460"/>
			<point x="239" y="492" type="qcurve"/>
			<point x="241" y="497"/>
			<point x="245" y="504"/>
			<point x="245" y="508" type="qcurve" smooth="yes"/>
			<point x="245" y="520"/>
			<point x="222" y="541"/>
			<point x="197" y="554"/>
			<point x="192" y="554" type="qcurve" smooth="yes"/>
			<point x="181" y="554"/>
			<point x="181" y="537" type="qcurve" smooth="yes"/>
			<point x="181" y="519"/>
			<point x="150" y="455"/>
			<point x="103" y="383"/>
			<point x="79" y="352" type="qcurve" smooth="yes"/>
			<point x="66" y="336"/>
			<point x="66" y="327" type="qcurve" smooth="yes"/>
			<point x="66" y="322"/>
			<point x="72" y="322" type="qcurve" smooth="yes"/>
		</contour>
		<contour>
			<point x="325" y="381" type="line" smooth="yes"/>
			<point x="325" y="357"/>
			<point x="299" y="289"/>
			<point x="285" y="260" type="qcurve"/>
			<point x="247" y="311"/>
			<point x="210" y="357"/>
			<point x="195" y="369"/>
			<point x="190" y="369" type="qcurve" smooth="yes"/>
			<point x="182" y="369"/>
			<point x="159" y="351"/>
			<point x="159" y="340" type="qcurve" smooth="yes"/>
			<point x="159" y="334"/>
			<point x="166" y="325" type="qcurve" smooth="yes"/>
			<point x="188" y="299"/>
			<point x="233" y="239"/>
			<point x="255" y="207" type="qcurve"/>
			<point x="212" y="139"/>
			<point x="112" y="23"/>
			<point x="47" y="-32" type="qcurve" smooth="yes"/>
			<point x="32" y="-45"/>
			<point x="32" y="-54" type="qcurve" smooth="yes"/>
			<point x="32" y="-60"/>
			<point x="39" y="-60" type="qcurve" smooth="yes"/>
			<point x="45" y="-60"/>
			<point x="97" y="-30"/>
			<point x="171" y="26"/>
			<point x="252" y="107"/>
			<point x="287" y="158" type="qcurve"/>
			<point x="305" y="130"/>
			<point x="337" y="75"/>
			<point x="350" y="50" type="qcurve" smooth="yes"/>
			<point x="358" y="33"/>
			<point x="370" y="33" type="qcurve" smooth="yes"/>
			<point x="374" y="33"/>
			<point x="393" y="41"/>
			<point x="409" y="57"/>
			<point x="409" y="68" type="qcurve" smooth="yes"/>
			<point x="409" y="76"/>
			<point x="359" y="158"/>
			<point x="321" y="210" type="qcurve"/>
			<point x="339" y="239"/>
			<point x="371" y="303"/>
			<point x="391" y="353"/>
			<point x="391" y="361" type="qcurve" smooth="yes"/>
			<point x="391" y="373"/>
			<point x="365" y="397"/>
			<point x="337" y="413"/>
			<point x="333" y="413" type="qcurve" smooth="yes"/>
			<point x="324" y="413"/>
			<point x="324" y="399" type="qcurve" smooth="yes"/>
			<point x="324" y="398"/>
			<point x="325" y="393"/>
			<point x="325" y="391" type="qcurve" smooth="yes"/>
		</contour>
		<contour>
			<point x="778" y="118" type="line" smooth="yes"/>
			<point x="787" y="119"/>
			<point x="800" y="125"/>
			<point x="800" y="132" type="qcurve" smooth="yes"/>
			<point x="800" y="137"/>
			<point x="784" y="158"/>
			<point x="761" y="175"/>
			<point x="750" y="175" type="qcurve" smooth="yes"/>
			<point x="747" y="175"/>
			<point x="741" y="173" type="qcurve" smooth="yes"/>
			<point x="732" y="170"/>
			<point x="710" y="168"/>
			<point x="700" y="166" type="qcurve"/>
			<point x="474" y="151"/>
			<point x="472" y="151" type="qcurve" smooth="yes"/>
			<point x="455" y="151"/>
			<point x="437" y="156" type="qcurve" smooth="yes"/>
			<point x="434" y="157"/>
			<point x="430" y="157" type="qcurve" smooth="yes"/>
			<point x="423" y="157"/>
			<point x="423" y="150" type="qcurve" smooth="yes"/>
			<point x="423" y="149"/>
			<point x="425" y="143" type="qcurve" smooth="yes"/>
			<point x="427" y="139"/>
			<point x="439" y="118"/>
			<point x="459" y="100"/>
			<point x="471" y="100" type="qcurve" smooth="yes"/>
			<point x="477" y="100"/>
			<point x="494" y="101"/>
			<point x="503" y="102" type="qcurve" smooth="yes"/>
		</contour>
		<contour>
			<point x="701" y="489"/>
			<point x="679" y="520"/>
			<point x="648" y="557"/>
			<point x="623" y="586"/>
			<point x="618" y="591" type="qcurve" smooth="yes"/>
			<point x="609" y="600"/>
			<point x="604" y="600" type="qcurve" smooth="yes"/>
			<point x="597" y="600"/>
			<point x="577" y="581"/>
			<point x="577" y="573" type="qcurve" smooth="yes"/>
			<point x="577" y="566"/>
			<point x="583" y="558" type="qcurve" smooth="yes"/>
			<point x="602" y="536"/>
			<point x="633" y="491"/>
			<point x="648" y="466" type="qcurve" smooth="yes"/>
			<point x="659" y="449"/>
			<point x="667" y="449" type="qcurve" smooth="yes"/>
			<point x="675" y="449"/>
			<point x="701" y="472"/>
			<point x="701" y="481" type="qcurve" smooth="yes"/>
		</contour>
		<contour>
			<point x="765" y="442" type="line"/>
			<point x="747" y="448"/>
			<point x="708" y="458"/>
			<point x="704" y="458" type="qcurve" smooth="yes"/>
			<point x="694" y="458"/>
			<point x="694" y="449" type="qcurve" smooth="yes"/>
			<point x="694" y="443"/>
			<point x="705" y="433" type="qcurve"/>
			<point x="708" y="429"/>
			<point x="742" y="406"/>
			<point x="764" y="388"/>
			<point x="785" y="375"/>
			<point x="792" y="375" type="qcurve" smooth="yes"/>
			<point x="802" y="375"/>
			<point x="819" y="394"/>
			<point x="819" y="406" type="qcurve" smooth="yes"/>
			<point x="819" y="421" type="line"/>
			<point x="849" y="648" type="line" smooth="yes"/>
			<point x="850" y="653"/>
			<point x="856" y="663"/>
			<point x="856" y="669" type="qcurve" smooth="yes"/>
			<point x="856" y="679"/>
			<point x="838" y="694"/>
			<point x="818" y="703"/>
			<point x="813" y="703" type="qcurve" smooth="yes"/>
			<point x="811" y="703"/>
			<point x="806" y="702"/>
			<point x="803" y="702" type="qcurve" smooth="yes"/>
			<point x="649" y="692" type="line"/>
			<point x="663" y="710"/>
			<point x="692" y="752"/>
			<point x="708" y="778" type="qcurve"/>
			<point x="711" y="781"/>
			<point x="711" y="786" type="qcurve" smooth="yes"/>
			<point x="711" y="796"/>
			<point x="688" y="814"/>
			<point x="661" y="827"/>
			<point x="654" y="827" type="qcurve" smooth="yes"/>
			<point x="645" y="827"/>
			<point x="645" y="816" type="qcurve" smooth="yes"/>
			<point x="645" y="813" type="line" smooth="yes"/>
			<point x="646" y="809"/>
			<point x="646" y="802" type="qcurve" smooth="yes"/>
			<point x="646" y="782"/>
			<point x="616" y="730"/>
			<point x="588" y="688" type="qcurve"/>
			<point x="565" y="686" type="line"/>
			<point x="540" y="699"/>
			<point x="511" y="710"/>
			<point x="503" y="710" type="qcurve" smooth="yes"/>
			<point x="494" y="710"/>
			<point x="494" y="702" type="qcurve" smooth="yes"/>
			<point x="494" y="694"/>
			<point x="498" y="685" type="qcurve" smooth="yes"/>
			<point x="504" y="670"/>
			<point x="508" y="644"/>
			<point x="508" y="626" type="qcurve" smooth="yes"/>
			<point x="504" y="337" type="line" smooth="yes"/>
			<point x="504" y="320"/>
			<point x="500" y="294"/>
			<point x="498" y="280" type="qcurve"/>
			<point x="497" y="277"/>
			<point x="497" y="272" type="qcurve" smooth="yes"/>
			<point x="497" y="265"/>
			<point x="508" y="252"/>
			<point x="524" y="243" type="qcurve" smooth="yes"/>
			<point x="535" y="237"/>
			<point x="542" y="237" type="qcurve" smooth="yes"/>
			<point x="557" y="237"/>
			<point x="557" y="261" type="qcurve" smooth="yes"/>
			<point x="557" y="271" type="line"/>
			<point x="868" y="287" type="line"/>
			<point x="867" y="265"/>
			<point x="859" y="149"/>
			<point x="848" y="75"/>
			<point x="836" y="9"/>
			<point x="822" y="-32"/>
			<point x="816" y="-32" type="qcurve" smooth="yes"/>
			<point x="812" y="-32"/>
			<point x="783" y="-22"/>
			<point x="750" y="-9"/>
			<point x="722" y="2"/>
			<point x="717" y="4" type="qcurve" smooth="yes"/>
			<point x="705" y="10" type="line" smooth="yes"/>
			<point x="685" y="20"/>
			<point x="675" y="20" type="qcurve" smooth="yes"/>
			<point x="668" y="20"/>
			<point x="668" y="15" type="qcurve" smooth="yes"/>
			<point x="668" y="6"/>
			<point x="703" y="-30"/>
			<point x="755" y="-69"/>
			<point x="809" y="-97"/>
			<point x="828" y="-97" type="qcurve" smooth="yes"/>
			<point x="857" y="-97"/>
			<point x="879" y="-52"/>
			<point x="892" y="0" type="qcurve" smooth="yes"/>
			<point x="902" y="45"/>
			<point x="919" y="167"/>
			<point x="924" y="289" type="qcurve"/>
			<point x="925" y="294"/>
			<point x="930" y="304"/>
			<point x="930" y="308" type="qcurve" smooth="yes"/>
			<point x="930" y="313"/>
			<point x="907" y="339"/>
			<point x="890" y="339" type="qcurve" smooth="yes"/>
			<point x="881" y="339" type="line"/>
			<point x="558" y="321" type="line"/>
			<point x="562" y="635" type="line"/>
			<point x="790" y="650" type="line"/>
		</contour>
	</outline>
</glyph>
<glyph name="uni4E0C" format="2">
	<advance width="1000"/>
	<unicode hex="4E0C"/>
	<note>
		uni4E0C
	</note>
	<outline>
		<contour>
			<point x="336" y="638" type="line"/>
			<point x="340" y="624"/>
			<point x="340" y="554" type="qcurve" smooth="yes"/>
			<point x="339" y="496" type="line" smooth="yes"/>
			<point x="338" y="455"/>
			<point x="336" y="415" type="qcurve" smooth="yes"/>
			<point x="333" y="354" type="line"/>
			<point x="327" y="310"/>
			<point x="313" y="247" type="qcurve" smooth="yes"/>
			<point x="289" y="156"/>
			<point x="192" y="14"/>
			<point x="115" y="-47" type="qcurve" smooth="yes"/>
			<point x="92" y="-66"/>
			<point x="92" y="-80"/>
			<point x="99" y="-80" type="qcurve" smooth="yes"/>
			<point x="102" y="-80"/>
			<point x="126" y="-70" type="qcurve" smooth="yes"/>
			<point x="193" y="-41"/>
			<point x="257" y="23" type="qcurve" smooth="yes"/>
			<point x="345" y="111"/>
			<point x="379" y="250" type="qcurve"/>
			<point x="391" y="313"/>
			<point x="397" y="357" type="qcurve" smooth="yes"/>
			<point x="402" y="418" type="line" smooth="yes"/>
			<point x="404" y="458"/>
			<point x="405" y="500" type="qcurve" smooth="yes"/>
			<point x="406" y="558" type="line"/>
			<point x="406" y="618" type="line" smooth="yes"/>
			<point x="406" y="624"/>
			<point x="405" y="642" type="qcurve"/>
			<point x="608" y="652" type="line"/>
			<point x="609" y="647"/>
			<point x="609" y="640" type="qcurve" smooth="yes"/>
			<point x="609" y="19" type="line" smooth="yes"/>
			<point x="609" y="-9"/>
			<point x="601" y="-43"/>
			<point x="601" y="-46" type="qcurve" smooth="yes"/>
			<point x="601" y="-51" type="line" smooth="yes"/>
			<point x="601" y="-68"/>
			<point x="624" y="-90"/>
			<point x="651" y="-100"/>
			<point x="656" y="-100" type="qcurve" smooth="yes"/>
			<point x="675" y="-100"/>
			<point x="675" y="-74" type="qcurve" smooth="yes"/>
			<point x="674" y="371" type="line"/>
			<point x="674" y="655" type="line"/>
			<point x="912" y="666" type="line" smooth="yes"/>
			<point x="938" y="668"/>
			<point x="938" y="682" type="qcurve" smooth="yes"/>
			<point x="938" y="689"/>
			<point x="917" y="713"/>
			<point x="889" y="732"/>
			<point x="873" y="732"/>
			<point x="853" y="724"/>
			<point x="830" y="723" type="qcurve" smooth="yes"/>
			<point x="673" y="715" type="line"/>
			<point x="336" y="697" type="line"/>
			<point x="128" y="687" type="line"/>
			<point x="116" y="687" type="line" smooth="yes"/>
			<point x="90" y="687"/>
			<point x="69" y="694"/>
			<point x="67" y="694" type="qcurve" smooth="yes"/>
			<point x="61" y="694"/>
			<point x="61" y="684"/>
			<point x="73" y="650"/>
			<point x="92" y="633" type="qcurve"/>
			<point x="102" y="626"/>
			<point x="124" y="626" type="qcurve" smooth="yes"/>
			<point x="150" y="627" type="line"/>
		</contour>
	</outline>
</glyph>
<glyph name="uni4E13" format="2">
	<advance width="1000"/>
	<unicode hex="4E13"/>
	<note>
		uni4E13
	</note>
	<outline>
		<contour>
			<point x="220" y="648" type="line"/>
			<point x="207" y="648" type="line" smooth="yes"/>
			<point x="196" y="648"/>
			<point x="174" y="650"/>
			<point x="163" y="653" type="qcurve" smooth="yes"/>
			<point x="160" y="654"/>
			<point x="156" y="654" type="qcurve" smooth="yes"/>
			<point x="150" y="654"/>
			<point x="150" y="647" type="qcurve" smooth="yes"/>
			<point x="150" y="646"/>
			<point x="160" y="610"/>
			<point x="182" y="595" type="qcurve" smooth="yes"/>
			<point x="187" y="592"/>
			<point x="201" y="590"/>
			<point x="210" y="590" type="qcurve" smooth="yes"/>
			<point x="217" y="590"/>
			<point x="232" y="590"/>
			<point x="240" y="591" type="qcurve" smooth="yes"/>
			<point x="820" y="624" type="line" smooth="yes"/>
			<point x="831" y="625"/>
			<point x="845" y="632"/>
			<point x="845" y="639" type="qcurve" smooth="yes"/>
			<point x="845" y="648"/>
			<point x="824" y="671"/>
			<point x="797" y="689"/>
			<point x="789" y="689" type="qcurve" smooth="yes"/>
			<point x="784" y="689"/>
			<point x="782" y="688" type="qcurve" smooth="yes"/>
			<point x="760" y="681"/>
			<point x="737" y="679" type="qcurve" smooth="yes"/>
		</contour>
		<contour>
			<point x="150" y="455" type="line"/>
			<point x="142" y="455" type="line" smooth="yes"/>
			<point x="132" y="455"/>
			<point x="107" y="458"/>
			<point x="94" y="460" type="qcurve" smooth="yes"/>
			<point x="91" y="461"/>
			<point x="87" y="461" type="qcurve" smooth="yes"/>
			<point x="80" y="461"/>
			<point x="80" y="455" type="qcurve" smooth="yes"/>
			<point x="80" y="445"/>
			<point x="95" y="416"/>
			<point x="122" y="395"/>
			<point x="140" y="395" type="qcurve" smooth="yes"/>
			<point x="148" y="395"/>
			<point x="165" y="396"/>
			<point x="177" y="397" type="qcurve" smooth="yes"/>
			<point x="906" y="435" type="line" smooth="yes"/>
			<point x="916" y="436"/>
			<point x="930" y="442"/>
			<point x="930" y="449" type="qcurve" smooth="yes"/>
			<point x="930" y="457"/>
			<point x="906" y="482"/>
			<point x="877" y="501"/>
			<point x="869" y="501" type="qcurve" smooth="yes"/>
			<point x="865" y="501"/>
			<point x="863" y="500" type="qcurve" smooth="yes"/>
			<point x="853" y="496"/>
			<point x="829" y="491"/>
			<point x="817" y="490" type="qcurve" smooth="yes"/>
		</contour>
		<contour>
			<point x="513" y="233" type="line"/>
			<point x="673" y="242" type="line"/>
			<point x="643" y="204"/>
			<point x="556" y="109"/>
			<point x="500" y="59" type="qcurve"/>
			<point x="492" y="65"/>
			<point x="459" y="89"/>
			<point x="421" y="114"/>
			<point x="386" y="132"/>
			<point x="377" y="132" type="qcurve" smooth="yes"/>
			<point x="361" y="132"/>
			<point x="345" y="105"/>
			<point x="345" y="98" type="qcurve" smooth="yes"/>
			<point x="345" y="87"/>
			<point x="361" y="77" type="qcurve" smooth="yes"/>
			<point x="415" y="42"/>
			<point x="532" y="-46"/>
			<point x="584" y="-93" type="qcurve" smooth="yes"/>
			<point x="597" y="-104"/>
			<point x="604" y="-104" type="qcurve" smooth="yes"/>
			<point x="612" y="-104"/>
			<point x="631" y="-86"/>
			<point x="645" y="-63"/>
			<point x="645" y="-56" type="qcurve" smooth="yes"/>
			<point x="645" y="-50"/>
			<point x="636" y="-39"/>
			<point x="598" y="-10"/>
			<point x="552" y="22" type="qcurve"/>
			<point x="608" y="74"/>
			<point x="720" y="188"/>
			<point x="763" y="242" type="qcurve" smooth="yes"/>
			<point x="766" y="246"/>
			<point x="778" y="259"/>
			<point x="778" y="268" type="qcurve" smooth="yes"/>
			<point x="778" y="277"/>
			<point x="757" y="304"/>
			<point x="734" y="304" type="qcurve" smooth="yes"/>
			<point x="721" y="304" type="line"/>
			<point x="513" y="292" type="line"/>
		</contour>
		<contour>
			<point x="538" y="292" type="line"/>
			<point x="366" y="283" type="line"/>
			<point x="404" y="369" type="line"/>
			<point x="490" y="594"/>
			<point x="521" y="740"/>
			<point x="528" y="775" type="qcurve"/>
			<point x="528" y="777"/>
			<point x="529" y="781"/>
			<point x="529" y="782" type="qcurve" smooth="yes"/>
			<point x="529" y="793"/>
			<point x="509" y="810"/>
			<point x="482" y="821"/>
			<point x="461" y="826"/>
			<point x="460" y="826" type="qcurve" smooth="yes"/>
			<point x="451" y="826"/>
			<point x="451" y="818" type="qcurve" smooth="yes"/>
			<point x="451" y="813"/>
			<point x="452" y="810" type="qcurve" smooth="yes"/>
			<point x="458" y="788"/>
			<point x="458" y="770" type="qcurve" smooth="yes"/>
			<point x="458" y="756"/>
			<point x="405" y="522"/>
			<point x="298" y="265" type="qcurve" smooth="yes"/>
			<point x="297" y="262"/>
			<point x="296" y="256"/>
			<point x="296" y="253" type="qcurve" smooth="yes"/>
			<point x="296" y="235"/>
			<point x="327" y="221"/>
			<point x="339" y="221" type="qcurve" smooth="yes"/>
			<point x="349" y="221"/>
			<point x="365" y="226"/>
			<point x="376" y="227" type="qcurve" smooth="yes"/>
			<point x="523" y="235" type="line"/>
		</contour>
	</outline>
</glyph>
<glyph name="uni4E1A" format="2">
	<advance width="1000"/>
	<unicode hex="4E1A"/>
	<note>
		uni4E1A
	</note>
	<outline>
		<contour>
			<point x="354" y="709" type="line"/>
			<point x="360" y="20" type="line"/>
			<point x="120" y="16" type="line" smooth="yes"/>
			<point x="109" y="16"/>
			<point x="80" y="18"/>
			<point x="64" y="22" type="qcurve"/>
			<point x="58" y="22" type="line" smooth="yes"/>
			<point x="49" y="22"/>
			<point x="49" y="16" type="qcurve" smooth="yes"/>
			<point x="49" y="14"/>
			<point x="62" y="-19"/>
			<point x="76" y="-33" type="qcurve" smooth="yes"/>
			<point x="88" y="-44"/>
			<point x="112" y="-44" type="qcurve" smooth="yes"/>
			<point x="119" y="-44"/>
			<point x="136" y="-43"/>
			<point x="146" y="-43" type="qcurve" smooth="yes"/>
			<point x="923" y="-25" type="line" smooth="yes"/>
			<point x="933" y="-24"/>
			<point x="947" y="-18"/>
			<point x="947" y="-11" type="qcurve" smooth="yes"/>
			<point x="947" y="-1"/>
			<point x="924" y="23"/>
			<point x="897" y="42"/>
			<point x="889" y="42" type="qcurve" smooth="yes"/>
			<point x="887" y="42"/>
			<point x="883" y="41"/>
			<point x="881" y="40" type="qcurve" smooth="yes"/>
			<point x="871" y="36"/>
			<point x="847" y="31"/>
			<point x="835" y="31" type="qcurve" smooth="yes"/>
			<point x="625" y="27" type="line"/>
			<point x="635" y="711" type="line"/>
			<point x="570" y="711" type="line"/>
			<point x="561" y="26" type="line"/>
			<point x="423" y="22" type="line"/>
			<point x="419" y="709" type="line"/>
		</contour>
		<contour>
			<point x="741" y="254" type="line" smooth="yes"/>
			<point x="768" y="281"/>
			<point x="821" y="362"/>
			<point x="864" y="431"/>
			<point x="890" y="493"/>
			<point x="890" y="501" type="qcurve" smooth="yes"/>
			<point x="890" y="512"/>
			<point x="865" y="540"/>
			<point x="833" y="561"/>
			<point x="824" y="561" type="qcurve" smooth="yes"/>
			<point x="815" y="561"/>
			<point x="815" y="547" type="qcurve" smooth="yes"/>
			<point x="815" y="538" type="line" smooth="yes"/>
			<point x="815" y="514"/>
			<point x="793" y="437"/>
			<point x="761" y="365"/>
			<point x="728" y="293"/>
			<point x="716" y="274" type="qcurve" smooth="yes"/>
			<point x="702" y="251"/>
			<point x="702" y="240" type="qcurve" smooth="yes"/>
			<point x="702" y="232"/>
			<point x="708" y="232" type="qcurve" smooth="yes"/>
			<point x="718" y="232"/>
			<point x="736" y="249" type="qcurve" smooth="yes"/>
		</contour>
		<contour>
			<point x="294" y="261"/>
			<point x="271" y="329"/>
			<point x="236" y="403"/>
			<point x="199" y="475"/>
			<point x="184" y="497" type="qcurve" smooth="yes"/>
			<point x="170" y="519"/>
			<point x="159" y="519" type="qcurve" smooth="yes"/>
			<point x="150" y="519"/>
			<point x="120" y="500"/>
			<point x="120" y="491" type="qcurve" smooth="yes"/>
			<point x="120" y="487"/>
			<point x="125" y="477"/>
			<point x="128" y="472" type="qcurve" smooth="yes"/>
			<point x="153" y="423"/>
			<point x="206" y="309"/>
			<point x="227" y="237" type="qcurve"/>
			<point x="236" y="216"/>
			<point x="249" y="216" type="qcurve" smooth="yes"/>
			<point x="260" y="216"/>
			<point x="294" y="241"/>
			<point x="294" y="254" type="qcurve" smooth="yes"/>
		</contour>
		<contour>
			<point x="417" y="642" type="line"/>
			<point x="417" y="721" type="line" smooth="yes"/>
			<point x="417" y="731"/>
			<point x="407" y="748"/>
			<point x="384" y="754" type="qcurve" smooth="yes"/>
			<point x="362" y="760"/>
			<point x="350" y="760" type="qcurve" smooth="yes"/>
			<point x="337" y="760"/>
			<point x="337" y="753" type="qcurve" smooth="yes"/>
			<point x="337" y="746"/>
			<point x="342" y="740" type="qcurve" smooth="yes"/>
			<point x="350" y="730"/>
			<point x="356" y="707"/>
			<point x="356" y="698" type="qcurve" smooth="yes"/>
			<point x="356" y="642" type="line"/>
		</contour>
		<contour>
			<point x="632" y="644" type="line"/>
			<point x="632" y="723" type="line" smooth="yes"/>
			<point x="632" y="733"/>
			<point x="622" y="750"/>
			<point x="599" y="756" type="qcurve" smooth="yes"/>
			<point x="577" y="762"/>
			<point x="565" y="762" type="qcurve" smooth="yes"/>
			<point x="552" y="762"/>
			<point x="552" y="755" type="qcurve" smooth="yes"/>
			<point x="552" y="748"/>
			<point x="557" y="742" type="qcurve" smooth="yes"/>
			<point x="565" y="732"/>
			<point x="571" y="709"/>
			<point x="571" y="700" type="qcurve" smooth="yes"/>
			<point x="571" y="644" type="line"/>
		</contour>
	</outline>
</glyph>
<glyph name="uni4E1B" format="2">
	<advance width="1000"/>
	<unicode hex="4E1B"/>
	<note>
		uni4E1B
	</note>
	<outline>
		<contour>
			<point x="691" y="375"/>
			<point x="766" y="244"/>
			<point x="839" y="140"/>
			<point x="895" y="80"/>
			<point x="906" y="80" type="qcurve" smooth="yes"/>
			<point x="912" y="80"/>
			<point x="940" y="91"/>
			<point x="965" y="107"/>
			<point x="965" y="115" type="qcurve" smooth="yes"/>
			<point x="965" y="121"/>
			<point x="951" y="132" type="qcurve" smooth="yes"/>
			<point x="898" y="177"/>
			<point x="800" y="300"/>
			<point x="719" y="448"/>
			<point x="688" y="527" type="qcurve"/>
			<point x="698" y="578"/>
			<point x="710" y="696"/>
			<point x="711" y="752" type="qcurve" smooth="yes"/>
			<point x="711" y="761"/>
			<point x="694" y="773"/>
			<point x="671" y="781" type="qcurve" smooth="yes"/>
			<point x="648" y="788"/>
			<point x="635" y="788" type="qcurve" smooth="yes"/>
			<point x="619" y="788"/>
			<point x="619" y="778" type="qcurve" smooth="yes"/>
			<point x="619" y="773"/>
			<point x="625" y="765" type="qcurve" smooth="yes"/>
			<point x="631" y="758"/>
			<point x="636" y="740"/>
			<point x="636" y="732" type="qcurve" smooth="yes"/>
			<point x="635" y="690"/>
			<point x="626" y="595"/>
			<point x="610" y="500"/>
			<point x="590" y="416"/>
			<point x="578" y="387" type="qcurve" smooth="yes"/>
			<point x="544" y="301"/>
			<point x="440" y="165"/>
			<point x="372" y="105" type="qcurve" smooth="yes"/>
			<point x="353" y="87"/>
			<point x="353" y="78" type="qcurve" smooth="yes"/>
			<point x="353" y="71"/>
			<point x="362" y="71" type="qcurve" smooth="yes"/>
			<point x="370" y="71"/>
			<point x="425" y="101"/>
			<point x="500" y="160"/>
			<point x="581" y="250"/>
			<point x="649" y="371"/>
			<point x="665" y="436" type="qcurve"/>
		</contour>
		<contour>
			<point x="314" y="693" type="line" smooth="yes"/>
			<point x="308" y="564"/>
			<point x="257" y="372"/>
			<point x="176" y="225"/>
			<point x="126" y="163" type="qcurve" smooth="yes"/>
			<point x="112" y="145"/>
			<point x="112" y="136" type="qcurve" smooth="yes"/>
			<point x="112" y="127"/>
			<point x="121" y="127" type="qcurve" smooth="yes"/>
			<point x="132" y="127"/>
			<point x="182" y="168"/>
			<point x="243" y="237"/>
			<point x="300" y="324"/>
			<point x="318" y="371" type="qcurve" smooth="yes"/>
			<point x="324" y="386"/>
			<point x="336" y="419"/>
			<point x="339" y="430" type="qcurve"/>
			<point x="366" y="402"/>
			<point x="429" y="321"/>
			<point x="451" y="288" type="qcurve" smooth="yes"/>
			<point x="463" y="272"/>
			<point x="476" y="272" type="qcurve" smooth="yes"/>
			<point x="482" y="272"/>
			<point x="501" y="283"/>
			<point x="517" y="300"/>
			<point x="517" y="309" type="qcurve" smooth="yes"/>
			<point x="517" y="318"/>
			<point x="509" y="328" type="qcurve" smooth="yes"/>
			<point x="478" y="364"/>
			<point x="400" y="452"/>
			<point x="356" y="491" type="qcurve"/>
			<point x="368" y="539"/>
			<point x="383" y="655"/>
			<point x="386" y="712" type="qcurve" smooth="yes"/>
			<point x="386" y="725"/>
			<point x="358" y="742"/>
			<point x="325" y="750"/>
			<point x="316" y="750" type="qcurve" smooth="yes"/>
			<point x="300" y="750"/>
			<point x="300" y="739" type="qcurve" smooth="yes"/>
			<point x="300" y="734"/>
			<point x="303" y="728" type="qcurve" smooth="yes"/>
			<point x="308" y="721"/>
			<point x="314" y="703"/>
			<point x="314" y="696" type="qcurve" smooth="yes"/>
		</contour>
		<contour>
			<point x="952" y="-20" type="line" smooth="yes"/>
			<point x="962" y="-19"/>
			<point x="976" y="-12"/>
			<point x="976" y="-5" type="qcurve" smooth="yes"/>
			<point x="976" y="4"/>
			<point x="953" y="30"/>
			<point x="924" y="49"/>
			<point x="916" y="49" type="qcurve" smooth="yes"/>
			<point x="912" y="49"/>
			<point x="910" y="48" type="qcurve" smooth="yes"/>
			<point x="889" y="41"/>
			<point x="864" y="40" type="qcurve" smooth="yes"/>
			<point x="547" y="31" type="line"/>
			<point x="477" y="29" type="line"/>
			<point x="137" y="20" type="line"/>
			<point x="129" y="20" type="line" smooth="yes"/>
			<point x="107" y="20"/>
			<point x="81" y="26" type="qcurve" smooth="yes"/>
			<point x="78" y="27"/>
			<point x="74" y="27" type="qcurve" smooth="yes"/>
			<point x="67" y="27"/>
			<point x="67" y="21" type="qcurve" smooth="yes"/>
			<point x="67" y="20"/>
			<point x="78" y="-17"/>
			<point x="93" y="-32" type="qcurve" smooth="yes"/>
			<point x="105" y="-43"/>
			<point x="129" y="-43" type="qcurve" smooth="yes"/>
			<point x="136" y="-43"/>
			<point x="153" y="-43"/>
			<point x="163" y="-43" type="qcurve" smooth="yes"/>
		</contour>
	</outline>
</glyph>
<glyph name="uni4E1C" format="2">
	<advance width="1000"/>
	<unicode hex="4E1C"/>
	<note>
		uni4E1C
	</note>
	<outline>
		<contour>
			<point x="529" y="299" type="line"/>
			<point x="529" y="479" type="line" smooth="yes"/>
			<point x="529" y="493"/>
			<point x="498" y="507"/>
			<point x="466" y="513"/>
			<point x="464" y="513" type="qcurve" smooth="yes"/>
			<point x="449" y="513"/>
			<point x="449" y="504" type="qcurve" smooth="yes"/>
			<point x="449" y="499"/>
			<point x="454" y="491" type="qcurve" smooth="yes"/>
			<point x="460" y="481"/>
			<point x="465" y="458"/>
			<point x="465" y="449" type="qcurve" smooth="yes"/>
			<point x="465" y="299" type="line"/>
		</contour>
		<contour>
			<point x="851" y="601" type="line" smooth="yes"/>
			<point x="861" y="602"/>
			<point x="874" y="607"/>
			<point x="874" y="613" type="qcurve" smooth="yes"/>
			<point x="874" y="622"/>
			<point x="854" y="643"/>
			<point x="829" y="658"/>
			<point x="822" y="658" type="qcurve" smooth="yes"/>
			<point x="816" y="658"/>
			<point x="813" y="657" type="qcurve" smooth="yes"/>
			<point x="788" y="650"/>
			<point x="767" y="649" type="qcurve" smooth="yes"/>
			<point x="172" y="616" type="line"/>
			<point x="163" y="616" type="line" smooth="yes"/>
			<point x="142" y="616"/>
			<point x="122" y="621" type="qcurve" smooth="yes"/>
			<point x="119" y="622"/>
			<point x="115" y="622" type="qcurve" smooth="yes"/>
			<point x="109" y="622"/>
			<point x="109" y="617" type="qcurve" smooth="yes"/>
			<point x="109" y="614"/>
			<point x="119" y="588"/>
			<point x="146" y="565"/>
			<point x="170" y="565" type="qcurve" smooth="yes"/>
			<point x="174" y="565"/>
			<point x="184" y="565"/>
			<point x="190" y="566" type="qcurve"/>
		</contour>
		<contour>
			<point x="783" y="303" type="line" smooth="yes"/>
			<point x="791" y="304"/>
			<point x="803" y="309"/>
			<point x="803" y="316" type="qcurve" smooth="yes"/>
			<point x="803" y="325"/>
			<point x="785" y="347"/>
			<point x="764" y="363"/>
			<point x="758" y="363" type="qcurve" smooth="yes"/>
			<point x="753" y="363"/>
			<point x="747" y="360" type="qcurve" smooth="yes"/>
			<point x="735" y="356"/>
			<point x="711" y="354" type="qcurve" smooth="yes"/>
			<point x="308" y="332" type="line"/>
			<point x="294" y="332" type="line" smooth="yes"/>
			<point x="272" y="332"/>
			<point x="259" y="336" type="qcurve" smooth="yes"/>
			<point x="256" y="337"/>
			<point x="253" y="337" type="qcurve" smooth="yes"/>
			<point x="248" y="337"/>
			<point x="248" y="333" type="qcurve" smooth="yes"/>
			<point x="248" y="326"/>
			<point x="262" y="297"/>
			<point x="272" y="287" type="qcurve" smooth="yes"/>
			<point x="282" y="277"/>
			<point x="307" y="277" type="qcurve" smooth="yes"/>
			<point x="325" y="277" type="line"/>
			<point x="466" y="286" type="line"/>
			<point x="468" y="-22" type="line"/>
			<point x="439" y="-16"/>
			<point x="385" y="3"/>
			<point x="359" y="13" type="qcurve" smooth="yes"/>
			<point x="337" y="22"/>
			<point x="325" y="22" type="qcurve" smooth="yes"/>
			<point x="316" y="22"/>
			<point x="316" y="16" type="qcurve" smooth="yes"/>
			<point x="316" y="9"/>
			<point x="344" y="-17"/>
			<point x="388" y="-49"/>
			<point x="436" y="-77"/>
			<point x="477" y="-96"/>
			<point x="488" y="-96" type="qcurve" smooth="yes"/>
			<point x="510" y="-96"/>
			<point x="533" y="-64"/>
			<point x="533" y="-47" type="qcurve" smooth="yes"/>
			<point x="533" y="-41"/>
			<point x="532" y="-26"/>
			<point x="532" y="-17" type="qcurve" smooth="yes"/>
			<point x="528" y="289" type="line"/>
		</contour>
		<contour>
			<point x="397" y="338" type="line"/>
			<point x="264" y="329" type="line"/>
			<point x="315" y="416" type="line"/>
			<point x="396" y="590"/>
			<point x="444" y="726"/>
			<point x="458" y="761" type="qcurve"/>
			<point x="458" y="763"/>
			<point x="460" y="767"/>
			<point x="460" y="768" type="qcurve" smooth="yes"/>
			<point x="462" y="779"/>
			<point x="446" y="796"/>
			<point x="421" y="807"/>
			<point x="401" y="812"/>
			<point x="400" y="812" type="qcurve" smooth="yes"/>
			<point x="391" y="812"/>
			<point x="389" y="804" type="qcurve" smooth="yes"/>
			<point x="388" y="799"/>
			<point x="389" y="796" type="qcurve"/>
			<point x="390" y="774"/>
			<point x="387" y="756" type="qcurve" smooth="yes"/>
			<point x="384" y="742"/>
			<point x="307" y="538"/>
			<point x="192" y="311" type="qcurve"/>
			<point x="191" y="308"/>
			<point x="189" y="302"/>
			<point x="188" y="299" type="qcurve" smooth="yes"/>
			<point x="185" y="281"/>
			<point x="213" y="267"/>
			<point x="225" y="267" type="qcurve" smooth="yes"/>
			<point x="235" y="267"/>
			<point x="252" y="272"/>
			<point x="263" y="273" type="qcurve" smooth="yes"/>
			<point x="372" y="281" type="line"/>
		</contour>
		<contour>
			<point x="273" y="206" type="line" smooth="yes"/>
			<point x="273" y="188"/>
			<point x="234" y="135"/>
			<point x="177" y="79"/>
			<point x="117" y="29"/>
			<point x="96" y="12" type="qcurve" smooth="yes"/>
			<point x="76" y="-3"/>
			<point x="76" y="-13" type="qcurve" smooth="yes"/>
			<point x="76" y="-20"/>
			<point x="83" y="-20" type="qcurve" smooth="yes"/>
			<point x="89" y="-20"/>
			<point x="165" y="12"/>
			<point x="280" y="92"/>
			<point x="344" y="162" type="qcurve"/>
			<point x="348" y="168"/>
			<point x="348" y="174" type="qcurve" smooth="yes"/>
			<point x="348" y="186"/>
			<point x="319" y="210"/>
			<point x="288" y="226"/>
			<point x="282" y="226" type="qcurve" smooth="yes"/>
			<point x="273" y="226"/>
			<point x="273" y="211" type="qcurve" smooth="yes"/>
		</contour>
		<contour>
			<point x="869" y="1"/>
			<point x="897" y="30"/>
			<point x="897" y="45" type="qcurve" smooth="yes"/>
			<point x="897" y="58"/>
			<point x="883" y="69" type="qcurve" smooth="yes"/>
			<point x="836" y="109"/>
			<point x="737" y="179"/>
			<point x="668" y="222"/>
			<point x="662" y="222" type="qcurve" smooth="yes"/>
			<point x="654" y="222"/>
			<point x="637" y="206"/>
			<point x="626" y="187"/>
			<point x="626" y="183" type="qcurve" smooth="yes"/>
			<point x="626" y="175"/>
			<point x="634" y="170" type="qcurve" smooth="yes"/>
			<point x="692" y="133"/>
			<point x="789" y="59"/>
			<point x="838" y="12" type="qcurve" smooth="yes"/>
			<point x="848" y="1"/>
			<point x="857" y="1" type="qcurve" smooth="yes"/>
		</contour>
	</outline>
</glyph>
<glyph name="uni4E1D" format="2">
	<advance width="1000"/>
	<unicode hex="4E1D"/>
	<note>
		uni4E1D
	</note>
	<outline>
		<contour>
			<point x="922" y="-20" type="line" smooth="yes"/>
			<point x="932" y="-19"/>
			<point x="946" y="-12"/>
			<point x="946" y="-5" type="qcurve" smooth="yes"/>
			<point x="946" y="4"/>
			<point x="923" y="30"/>
			<point x="894" y="49"/>
			<point x="886" y="49" type="qcurve" smooth="yes"/>
			<point x="882" y="49"/>
			<point x="880" y="48" type="qcurve" smooth="yes"/>
			<point x="859" y="41"/>
			<point x="834" y="40" type="qcurve" smooth="yes"/>
			<point x="137" y="20" type="line"/>
			<point x="129" y="20" type="line" smooth="yes"/>
			<point x="107" y="20"/>
			<point x="81" y="26" type="qcurve" smooth="yes"/>
			<point x="78" y="27"/>
			<point x="74" y="27" type="qcurve" smooth="yes"/>
			<point x="67" y="27"/>
			<point x="67" y="21" type="qcurve" smooth="yes"/>
			<point x="67" y="20"/>
			<point x="78" y="-17"/>
			<point x="93" y="-32" type="qcurve" smooth="yes"/>
			<point x="105" y="-43"/>
			<point x="129" y="-43" type="qcurve" smooth="yes"/>
			<point x="163" y="-43" type="line"/>
		</contour>
		<contour>
			<point x="539" y="193" type="line" smooth="yes"/>
			<point x="537" y="193"/>
			<point x="531" y="192"/>
			<point x="528" y="192" type="qcurve" smooth="yes"/>
			<point x="517" y="192"/>
			<point x="505" y="195" type="qcurve" smooth="yes"/>
			<point x="502" y="196"/>
			<point x="498" y="196" type="qcurve" smooth="yes"/>
			<point x="492" y="196"/>
			<point x="492" y="190" type="qcurve" smooth="yes"/>
			<point x="492" y="189"/>
			<point x="493" y="183"/>
			<point x="494" y="180" type="qcurve" smooth="yes"/>
			<point x="502" y="158"/>
			<point x="522" y="140"/>
			<point x="539" y="136"/>
			<point x="542" y="136" type="qcurve" smooth="yes"/>
			<point x="545" y="136"/>
			<point x="572" y="139"/>
			<point x="608" y="144" type="qcurve" smooth="yes"/>
			<point x="637" y="148"/>
			<point x="879" y="171" type="qcurve"/>
			<point x="889" y="173"/>
			<point x="903" y="179"/>
			<point x="903" y="186" type="qcurve" smooth="yes"/>
			<point x="902" y="194"/>
			<point x="878" y="218"/>
			<point x="848" y="236"/>
			<point x="840" y="236" type="qcurve" smooth="yes"/>
			<point x="836" y="236"/>
			<point x="834" y="235" type="qcurve" smooth="yes"/>
			<point x="824" y="230"/>
			<point x="800" y="225"/>
			<point x="788" y="223" type="qcurve" smooth="yes"/>
			<point x="646" y="206"/>
			<point x="610" y="201"/>
			<point x="584" y="198" type="qcurve" smooth="yes"/>
		</contour>
		<contour>
			<point x="724" y="421" type="line"/>
			<point x="687" y="461"/>
			<point x="678" y="471" type="qcurve" smooth="yes"/>
			<point x="645" y="504" type="line"/>
			<point x="654" y="519"/>
			<point x="687" y="578"/>
			<point x="731" y="673"/>
			<point x="755" y="723"/>
			<point x="755" y="729" type="qcurve" smooth="yes"/>
			<point x="755" y="739"/>
			<point x="736" y="759"/>
			<point x="711" y="774"/>
			<point x="700" y="774" type="qcurve" smooth="yes"/>
			<point x="688" y="774"/>
			<point x="688" y="759" type="qcurve" smooth="yes"/>
			<point x="688" y="748"/>
			<point x="681" y="711"/>
			<point x="640" y="609"/>
			<point x="602" y="544" type="qcurve"/>
			<point x="593" y="553"/>
			<point x="558" y="581"/>
			<point x="549" y="581" type="qcurve" smooth="yes"/>
			<point x="540" y="581"/>
			<point x="526" y="566"/>
			<point x="518" y="549"/>
			<point x="518" y="547" type="qcurve" smooth="yes"/>
			<point x="518" y="538"/>
			<point x="532" y="527" type="qcurve" smooth="yes"/>
			<point x="565" y="500"/>
			<point x="603" y="463" type="qcurve" smooth="yes"/>
			<point x="632" y="434"/>
			<point x="692" y="368" type="qcurve"/>
		</contour>
		<contour>
			<point x="670" y="362" type="line"/>
			<point x="644" y="325" type="line" smooth="yes"/>
			<point x="617" y="285"/>
			<point x="585" y="244" type="qcurve" smooth="yes"/>
			<point x="553" y="202"/>
			<point x="517" y="161" type="qcurve"/>
			<point x="590" y="164" type="line"/>
			<point x="604" y="181"/>
			<point x="651" y="242"/>
			<point x="708" y="318"/>
			<point x="763" y="396"/>
			<point x="833" y="504"/>
			<point x="862" y="549"/>
			<point x="862" y="554" type="qcurve" smooth="yes"/>
			<point x="863" y="565"/>
			<point x="845" y="590"/>
			<point x="821" y="607"/>
			<point x="814" y="608" type="qcurve" smooth="yes"/>
			<point x="805" y="608"/>
			<point x="802" y="591" type="qcurve" smooth="yes"/>
			<point x="800" y="582"/>
			<point x="795" y="563"/>
			<point x="775" y="528"/>
			<point x="733" y="458" type="qcurve" smooth="yes"/>
			<point x="722" y="439"/>
			<point x="705" y="413" type="qcurve" smooth="yes"/>
		</contour>
		<contour>
			<point x="147" y="195" type="line" smooth="yes"/>
			<point x="128" y="194"/>
			<point x="117" y="195" type="qcurve" smooth="yes"/>
			<point x="102" y="196"/>
			<point x="95" y="197" type="qcurve" smooth="yes"/>
			<point x="85" y="199" type="line" smooth="yes"/>
			<point x="77" y="200"/>
			<point x="76" y="193" type="qcurve" smooth="yes"/>
			<point x="76" y="190"/>
			<point x="77" y="184" type="qcurve" smooth="yes"/>
			<point x="83" y="164"/>
			<point x="89" y="155" type="qcurve" smooth="yes"/>
			<point x="91" y="151"/>
			<point x="94" y="147" type="qcurve" smooth="yes"/>
			<point x="98" y="140"/>
			<point x="114" y="118"/>
			<point x="124" y="116" type="qcurve" smooth="yes"/>
			<point x="133" y="114"/>
			<point x="188" y="127"/>
			<point x="264" y="151"/>
			<point x="345" y="180"/>
			<point x="416" y="209"/>
			<point x="461" y="234"/>
			<point x="462" y="242" type="qcurve" smooth="yes"/>
			<point x="463" y="248"/>
			<point x="454" y="249" type="qcurve" smooth="yes"/>
			<point x="448" y="250"/>
			<point x="428" y="246" type="qcurve" smooth="yes"/>
			<point x="399" y="239"/>
			<point x="336" y="224"/>
			<point x="305" y="218" type="qcurve" smooth="yes"/>
			<point x="243" y="208" type="line"/>
			<point x="221" y="204" type="line"/>
		</contour>
		<contour>
			<point x="336" y="383" type="line"/>
			<point x="283" y="440"/>
			<point x="268" y="456" type="qcurve" smooth="yes"/>
			<point x="252" y="472"/>
			<point x="238" y="487" type="qcurve"/>
			<point x="270" y="532"/>
			<point x="327" y="621"/>
			<point x="359" y="694" type="qcurve" smooth="yes"/>
			<point x="362" y="700"/>
			<point x="362" y="706" type="qcurve" smooth="yes"/>
			<point x="362" y="716"/>
			<point x="341" y="738"/>
			<point x="314" y="753"/>
			<point x="306" y="753" type="qcurve" smooth="yes"/>
			<point x="295" y="753"/>
			<point x="295" y="741" type="qcurve" smooth="yes"/>
			<point x="295" y="732" type="line" smooth="yes"/>
			<point x="295" y="715"/>
			<point x="259" y="627"/>
			<point x="219" y="559"/>
			<point x="197" y="526" type="qcurve"/>
			<point x="171" y="549"/>
			<point x="158" y="557"/>
			<point x="153" y="557" type="qcurve" smooth="yes"/>
			<point x="140" y="557"/>
			<point x="120" y="526"/>
			<point x="120" y="521" type="qcurve" smooth="yes"/>
			<point x="120" y="513"/>
			<point x="137" y="499" type="qcurve" smooth="yes"/>
			<point x="165" y="477"/>
			<point x="197" y="445" type="qcurve" smooth="yes"/>
			<point x="228" y="413"/>
			<point x="302" y="331" type="qcurve"/>
		</contour>
		<contour>
			<point x="281" y="334" type="line"/>
			<point x="272" y="322" type="line" smooth="yes"/>
			<point x="242" y="279"/>
			<point x="210" y="235" type="qcurve" smooth="yes"/>
			<point x="179" y="194"/>
			<point x="147" y="155" type="qcurve"/>
			<point x="221" y="164" type="line"/>
			<point x="279" y="233"/>
			<point x="340" y="320" type="qcurve" smooth="yes"/>
			<point x="404" y="410"/>
			<point x="477" y="524" type="qcurve" smooth="yes"/>
			<point x="482" y="531"/>
			<point x="482" y="538" type="qcurve" smooth="yes"/>
			<point x="482" y="549"/>
			<point x="460" y="572"/>
			<point x="434" y="589"/>
			<point x="427" y="589" type="qcurve" smooth="yes"/>
			<point x="420" y="589"/>
			<point x="418" y="575" type="qcurve" smooth="yes"/>
			<point x="417" y="568"/>
			<point x="412" y="549"/>
			<point x="394" y="514"/>
			<point x="362" y="459" type="qcurve" smooth="yes"/>
			<point x="344" y="431"/>
			<point x="315" y="386" type="qcurve" smooth="yes"/>
		</contour>
	</outline>
</glyph>
<glyph name="uni4E22" format="2">
	<advance width="1000"/>
	<unicode hex="4E22"/>
	<note>
		uni4E22
	</note>
	<outline>
		<contour>
			<point x="466" y="673" type="line"/>
			<point x="465" y="519" type="line"/>
			<point x="284" y="509" type="line"/>
			<point x="273" y="509" type="line" smooth="yes"/>
			<point x="264" y="509"/>
			<point x="246" y="511"/>
			<point x="237" y="513" type="qcurve" smooth="yes"/>
			<point x="236" y="513"/>
			<point x="234" y="514"/>
			<point x="233" y="514" type="qcurve" smooth="yes"/>
			<point x="229" y="514"/>
			<point x="229" y="510" type="qcurve" smooth="yes"/>
			<point x="229" y="507"/>
			<point x="230" y="505" type="qcurve" smooth="yes"/>
			<point x="242" y="469"/>
			<point x="267" y="455"/>
			<point x="279" y="455" type="qcurve" smooth="yes"/>
			<point x="284" y="455"/>
			<point x="295" y="456"/>
			<point x="302" y="456" type="qcurve" smooth="yes"/>
			<point x="464" y="464" type="line"/>
			<point x="463" y="346" type="line"/>
			<point x="123" y="328" type="line" smooth="yes"/>
			<point x="120" y="328"/>
			<point x="114" y="327"/>
			<point x="110" y="327" type="qcurve" smooth="yes"/>
			<point x="102" y="327"/>
			<point x="82" y="330"/>
			<point x="70" y="332" type="qcurve" smooth="yes"/>
			<point x="67" y="333"/>
			<point x="63" y="333" type="qcurve" smooth="yes"/>
			<point x="56" y="333"/>
			<point x="56" y="328" type="qcurve" smooth="yes"/>
			<point x="56" y="324"/>
			<point x="59" y="318" type="qcurve" smooth="yes"/>
			<point x="71" y="287"/>
			<point x="100" y="272"/>
			<point x="116" y="272" type="qcurve" smooth="yes"/>
			<point x="121" y="272"/>
			<point x="134" y="272"/>
			<point x="142" y="273" type="qcurve" smooth="yes"/>
			<point x="424" y="287" type="line"/>
			<point x="346" y="152"/>
			<point x="241" y="12" type="qcurve"/>
			<point x="218" y="10" type="line" smooth="yes"/>
			<point x="212" y="9"/>
			<point x="201" y="9"/>
			<point x="196" y="9" type="qcurve" smooth="yes"/>
			<point x="177" y="9"/>
			<point x="159" y="12" type="qcurve"/>
			<point x="154" y="12" type="line" smooth="yes"/>
			<point x="146" y="12"/>
			<point x="146" y="6" type="qcurve" smooth="yes"/>
			<point x="146" y="5"/>
			<point x="157" y="-26"/>
			<point x="181" y="-55"/>
			<point x="200" y="-55" type="qcurve" smooth="yes"/>
			<point x="206" y="-55"/>
			<point x="339" y="-40"/>
			<point x="573" y="-5"/>
			<point x="729" y="24" type="qcurve"/>
			<point x="749" y="1"/>
			<point x="787" y="-46"/>
			<point x="804" y="-69" type="qcurve" smooth="yes"/>
			<point x="813" y="-82"/>
			<point x="826" y="-82" type="qcurve" smooth="yes"/>
			<point x="845" y="-82"/>
			<point x="870" y="-50"/>
			<point x="870" y="-43" type="qcurve" smooth="yes"/>
			<point x="870" y="-34"/>
			<point x="860" y="-23" type="qcurve" smooth="yes"/>
			<point x="810" y="36"/>
			<point x="706" y="149"/>
			<point x="650" y="202" type="qcurve" smooth="yes"/>
			<point x="640" y="212"/>
			<point x="631" y="212" type="qcurve" smooth="yes"/>
			<point x="622" y="212"/>
			<point x="594" y="188"/>
			<point x="594" y="179" type="qcurve" smooth="yes"/>
			<point x="594" y="172"/>
			<point x="603" y="163" type="qcurve" smooth="yes"/>
			<point x="625" y="141"/>
			<point x="669" y="95"/>
			<point x="691" y="70" type="qcurve"/>
			<point x="592" y="54"/>
			<point x="408" y="30"/>
			<point x="319" y="20" type="qcurve"/>
			<point x="363" y="76"/>
			<point x="457" y="212"/>
			<point x="506" y="291" type="qcurve"/>
			<point x="919" y="312" type="line" smooth="yes"/>
			<point x="943" y="314"/>
			<point x="943" y="325" type="qcurve" smooth="yes"/>
			<point x="943" y="331"/>
			<point x="923" y="355"/>
			<point x="898" y="375"/>
			<point x="888" y="375" type="qcurve" smooth="yes"/>
			<point x="886" y="375"/>
			<point x="882" y="374"/>
			<point x="880" y="373" type="qcurve" smooth="yes"/>
			<point x="871" y="369"/>
			<point x="848" y="366"/>
			<point x="837" y="365" type="qcurve" smooth="yes"/>
			<point x="530" y="349" type="line"/>
			<point x="531" y="468" type="line"/>
			<point x="750" y="479" type="line" smooth="yes"/>
			<point x="771" y="481"/>
			<point x="771" y="492" type="qcurve" smooth="yes"/>
			<point x="771" y="500"/>
			<point x="752" y="521"/>
			<point x="730" y="536"/>
			<point x="724" y="536" type="qcurve" smooth="yes"/>
			<point x="720" y="536"/>
			<point x="717" y="535" type="qcurve" smooth="yes"/>
			<point x="708" y="533"/>
			<point x="691" y="531"/>
			<point x="681" y="530" type="qcurve" smooth="yes"/>
			<point x="531" y="522" type="line"/>
			<point x="532" y="677" type="line"/>
		</contour>
		<contour>
			<point x="523" y="648" type="line" smooth="yes"/>
			<point x="575" y="658"/>
			<point x="687" y="684"/>
			<point x="743" y="702" type="qcurve" smooth="yes"/>
			<point x="747" y="703"/>
			<point x="754" y="709"/>
			<point x="754" y="716" type="qcurve" smooth="yes"/>
			<point x="755" y="725"/>
			<point x="741" y="757"/>
			<point x="721" y="784"/>
			<point x="713" y="785" type="qcurve" smooth="yes"/>
			<point x="708" y="785"/>
			<point x="700" y="776" type="qcurve" smooth="yes"/>
			<point x="686" y="759"/>
			<point x="667" y="752" type="qcurve" smooth="yes"/>
			<point x="568" y="716"/>
			<point x="337" y="658"/>
			<point x="189" y="631" type="qcurve" smooth="yes"/>
			<point x="177" y="629"/>
			<point x="164" y="620"/>
			<point x="163" y="616" type="qcurve"/>
			<point x="163" y="607"/>
			<point x="181" y="606" type="qcurve" smooth="yes"/>
			<point x="190" y="605"/>
			<point x="264" y="610"/>
			<point x="381" y="623"/>
			<point x="454" y="635" type="qcurve" smooth="yes"/>
		</contour>
	</outline>
</glyph>
<glyph name="uni4E24" format="2">
	<advance width="1000"/>
	<unicode hex="4E24"/>
	<note>
		uni4E24
	</note>
	<outline>
		<contour>
			<point x="372" y="658" type="line" smooth="yes"/>
			<point x="368" y="457"/>
			<point x="324" y="278"/>
			<point x="256" y="141"/>
			<point x="214" y="83" type="qcurve" smooth="yes"/>
			<point x="202" y="66"/>
			<point x="202" y="58" type="qcurve" smooth="yes"/>
			<point x="202" y="49"/>
			<point x="211" y="49" type="qcurve" smooth="yes"/>
			<point x="220" y="49"/>
			<point x="262" y="88"/>
			<point x="314" y="152"/>
			<point x="362" y="234"/>
			<point x="377" y="277" type="qcurve" smooth="yes"/>
			<point x="382" y="291"/>
			<point x="392" y="322"/>
			<point x="395" y="331" type="qcurve"/>
			<point x="416" y="306"/>
			<point x="443" y="262"/>
			<point x="461" y="232" type="qcurve" smooth="yes"/>
			<point x="471" y="216"/>
			<point x="483" y="216" type="qcurve" smooth="yes"/>
			<point x="488" y="216"/>
			<point x="505" y="227"/>
			<point x="518" y="243"/>
			<point x="518" y="251" type="qcurve" smooth="yes"/>
			<point x="518" y="260"/>
			<point x="511" y="269" type="qcurve" smooth="yes"/>
			<point x="485" y="302"/>
			<point x="446" y="353"/>
			<point x="409" y="389" type="qcurve"/>
			<point x="419" y="434"/>
			<point x="432" y="622"/>
			<point x="435" y="675" type="qcurve" smooth="yes"/>
			<point x="435" y="687"/>
			<point x="410" y="703"/>
			<point x="383" y="711"/>
			<point x="375" y="711" type="qcurve" smooth="yes"/>
			<point x="361" y="711"/>
			<point x="361" y="700" type="qcurve" smooth="yes"/>
			<point x="361" y="695"/>
			<point x="364" y="690" type="qcurve" smooth="yes"/>
			<point x="367" y="683"/>
			<point x="372" y="667"/>
			<point x="372" y="660" type="qcurve" smooth="yes"/>
		</contour>
		<contour>
			<point x="600" y="675" type="line" smooth="yes"/>
			<point x="596" y="444"/>
			<point x="552" y="265"/>
			<point x="484" y="128"/>
			<point x="442" y="70" type="qcurve" smooth="yes"/>
			<point x="430" y="53"/>
			<point x="430" y="45" type="qcurve" smooth="yes"/>
			<point x="430" y="36"/>
			<point x="439" y="36" type="qcurve" smooth="yes"/>
			<point x="448" y="36"/>
			<point x="490" y="75"/>
			<point x="542" y="139"/>
			<point x="590" y="221"/>
			<point x="605" y="264" type="qcurve" smooth="yes"/>
			<point x="610" y="278"/>
			<point x="620" y="309"/>
			<point x="623" y="318" type="qcurve"/>
			<point x="644" y="293"/>
			<point x="698" y="217"/>
			<point x="716" y="187" type="qcurve" smooth="yes"/>
			<point x="726" y="171"/>
			<point x="738" y="171" type="qcurve" smooth="yes"/>
			<point x="743" y="171"/>
			<point x="760" y="182"/>
			<point x="773" y="198"/>
			<point x="773" y="206" type="qcurve" smooth="yes"/>
			<point x="773" y="215"/>
			<point x="766" y="224" type="qcurve" smooth="yes"/>
			<point x="740" y="257"/>
			<point x="674" y="340"/>
			<point x="637" y="376" type="qcurve"/>
			<point x="647" y="421"/>
			<point x="660" y="609"/>
			<point x="663" y="692" type="qcurve" smooth="yes"/>
			<point x="663" y="704"/>
			<point x="638" y="720"/>
			<point x="611" y="728"/>
			<point x="603" y="728" type="qcurve" smooth="yes"/>
			<point x="589" y="728"/>
			<point x="589" y="717" type="qcurve" smooth="yes"/>
			<point x="589" y="712"/>
			<point x="592" y="707" type="qcurve" smooth="yes"/>
			<point x="595" y="700"/>
			<point x="600" y="684"/>
			<point x="600" y="677" type="qcurve" smooth="yes"/>
		</contour>
		<contour>
			<point x="892" y="682" type="line" smooth="yes"/>
			<point x="914" y="684"/>
			<point x="914" y="697" type="qcurve" smooth="yes"/>
			<point x="914" y="701"/>
			<point x="898" y="724"/>
			<point x="873" y="745"/>
			<point x="860" y="745" type="qcurve" smooth="yes"/>
			<point x="856" y="745"/>
			<point x="854" y="744" type="qcurve" smooth="yes"/>
			<point x="840" y="740"/>
			<point x="818" y="737"/>
			<point x="802" y="736" type="qcurve" smooth="yes"/>
			<point x="147" y="701" type="line" smooth="yes"/>
			<point x="143" y="701"/>
			<point x="133" y="700"/>
			<point x="128" y="700" type="qcurve" smooth="yes"/>
			<point x="118" y="700"/>
			<point x="96" y="703"/>
			<point x="85" y="705" type="qcurve" smooth="yes"/>
			<point x="82" y="705" type="line" smooth="yes"/>
			<point x="77" y="705"/>
			<point x="77" y="701" type="qcurve" smooth="yes"/>
			<point x="77" y="698"/>
			<point x="78" y="696" type="qcurve"/>
			<point x="85" y="671"/>
			<point x="107" y="648"/>
			<point x="129" y="643"/>
			<point x="136" y="643" type="qcurve" smooth="yes"/>
			<point x="143" y="643"/>
			<point x="159" y="644"/>
			<point x="169" y="645" type="qcurve" smooth="yes"/>
		</contour>
		<contour>
			<point x="803" y="464" type="line"/>
			<point x="802" y="-11" type="line"/>
			<point x="764" y="-3"/>
			<point x="702" y="22"/>
			<point x="673" y="38" type="qcurve" smooth="yes"/>
			<point x="663" y="44"/>
			<point x="647" y="49"/>
			<point x="642" y="49" type="qcurve" smooth="yes"/>
			<point x="636" y="49"/>
			<point x="636" y="44" type="qcurve" smooth="yes"/>
			<point x="636" y="40"/>
			<point x="660" y="5"/>
			<point x="719" y="-45"/>
			<point x="770" y="-72" type="qcurve" smooth="yes"/>
			<point x="787" y="-81"/>
			<point x="811" y="-92"/>
			<point x="821" y="-92" type="qcurve" smooth="yes"/>
			<point x="833" y="-92"/>
			<point x="869" y="-64"/>
			<point x="869" y="-34" type="qcurve" smooth="yes"/>
			<point x="869" y="-26"/>
			<point x="868" y="-7"/>
			<point x="868" y="3" type="qcurve" smooth="yes"/>
			<point x="870" y="457" type="line" smooth="yes"/>
			<point x="870" y="465"/>
			<point x="878" y="478"/>
			<point x="878" y="485" type="qcurve" smooth="yes"/>
			<point x="878" y="496"/>
			<point x="858" y="514"/>
			<point x="833" y="525"/>
			<point x="827" y="525" type="qcurve" smooth="yes"/>
			<point x="818" y="525" type="line"/>
			<point x="196" y="491" type="line"/>
			<point x="163" y="506"/>
			<point x="127" y="519"/>
			<point x="119" y="519" type="qcurve" smooth="yes"/>
			<point x="111" y="519"/>
			<point x="111" y="512" type="qcurve" smooth="yes"/>
			<point x="111" y="509"/>
			<point x="114" y="502"/>
			<point x="115" y="497" type="qcurve"/>
			<point x="125" y="472"/>
			<point x="130" y="425"/>
			<point x="130" y="393" type="qcurve" smooth="yes"/>
			<point x="130" y="52" type="line" smooth="yes"/>
			<point x="130" y="3"/>
			<point x="127" y="-33" type="qcurve" smooth="yes"/>
			<point x="126" y="-38"/>
			<point x="126" y="-46"/>
			<point x="126" y="-50" type="qcurve" smooth="yes"/>
			<point x="126" y="-64"/>
			<point x="147" y="-85"/>
			<point x="173" y="-95"/>
			<point x="179" y="-95" type="qcurve" smooth="yes"/>
			<point x="194" y="-95"/>
			<point x="194" y="-71" type="qcurve" smooth="yes"/>
			<point x="191" y="434" type="line"/>
		</contour>
	</outline>
</glyph>
<glyph name="uni4E25" format="2">
	<advance width="1000"/>
	<unicode hex="4E25"/>
	<note>
		uni4E25
	</note>
	<outline>
		<contour>
			<point x="599" y="386" type="line"/>
			<point x="611" y="701" type="line"/>
			<point x="850" y="714" type="line" smooth="yes"/>
			<point x="870" y="716"/>
			<point x="870" y="727" type="qcurve" smooth="yes"/>
			<point x="870" y="734"/>
			<point x="849" y="756"/>
			<point x="823" y="773"/>
			<point x="815" y="773" type="qcurve" smooth="yes"/>
			<point x="812" y="773"/>
			<point x="807" y="772"/>
			<point x="804" y="771" type="qcurve" smooth="yes"/>
			<point x="789" y="767"/>
			<point x="763" y="762"/>
			<point x="753" y="761" type="qcurve" smooth="yes"/>
			<point x="187" y="729" type="line" smooth="yes"/>
			<point x="183" y="729"/>
			<point x="175" y="728"/>
			<point x="170" y="728" type="qcurve" smooth="yes"/>
			<point x="161" y="728"/>
			<point x="142" y="730"/>
			<point x="132" y="732" type="qcurve" smooth="yes"/>
			<point x="129" y="733"/>
			<point x="125" y="733" type="qcurve" smooth="yes"/>
			<point x="118" y="733"/>
			<point x="118" y="727" type="qcurve" smooth="yes"/>
			<point x="118" y="725"/>
			<point x="129" y="700"/>
			<point x="153" y="676"/>
			<point x="172" y="676" type="qcurve" smooth="yes"/>
			<point x="182" y="676"/>
			<point x="203" y="678"/>
			<point x="213" y="679" type="qcurve" smooth="yes"/>
			<point x="378" y="688" type="line"/>
			<point x="387" y="375" type="line"/>
			<point x="448" y="378" type="line"/>
			<point x="441" y="692" type="line"/>
			<point x="548" y="697" type="line"/>
			<point x="537" y="383" type="line"/>
		</contour>
		<contour>
			<point x="729" y="670" type="line" smooth="yes"/>
			<point x="729" y="662"/>
			<point x="727" y="644"/>
			<point x="725" y="639" type="qcurve" smooth="yes"/>
			<point x="709" y="599"/>
			<point x="669" y="521"/>
			<point x="644" y="485" type="qcurve" smooth="yes"/>
			<point x="637" y="475"/>
			<point x="632" y="462"/>
			<point x="632" y="457" type="qcurve" smooth="yes"/>
			<point x="632" y="449"/>
			<point x="638" y="449" type="qcurve" smooth="yes"/>
			<point x="647" y="449"/>
			<point x="686" y="482"/>
			<point x="732" y="533"/>
			<point x="774" y="587"/>
			<point x="801" y="629"/>
			<point x="801" y="637" type="qcurve" smooth="yes"/>
			<point x="801" y="650"/>
			<point x="773" y="675"/>
			<point x="742" y="692"/>
			<point x="737" y="692" type="qcurve" smooth="yes"/>
			<point x="729" y="692"/>
			<point x="729" y="681" type="qcurve" smooth="yes"/>
		</contour>
		<contour>
			<point x="351" y="486"/>
			<point x="332" y="521"/>
			<point x="302" y="568"/>
			<point x="269" y="617"/>
			<point x="254" y="635" type="qcurve" smooth="yes"/>
			<point x="242" y="650"/>
			<point x="232" y="650" type="qcurve" smooth="yes"/>
			<point x="225" y="650"/>
			<point x="198" y="631"/>
			<point x="198" y="622" type="qcurve" smooth="yes"/>
			<point x="198" y="616"/>
			<point x="206" y="605" type="qcurve" smooth="yes"/>
			<point x="226" y="577"/>
			<point x="273" y="501"/>
			<point x="289" y="467" type="qcurve" smooth="yes"/>
			<point x="300" y="446"/>
			<point x="312" y="446" type="qcurve" smooth="yes"/>
			<point x="320" y="446"/>
			<point x="351" y="467"/>
			<point x="351" y="480" type="qcurve" smooth="yes"/>
		</contour>
		<contour>
			<point x="886" y="376" type="line" smooth="yes"/>
			<point x="894" y="377"/>
			<point x="905" y="384"/>
			<point x="905" y="391" type="qcurve" smooth="yes"/>
			<point x="905" y="397"/>
			<point x="890" y="418"/>
			<point x="869" y="435"/>
			<point x="860" y="435" type="qcurve" smooth="yes"/>
			<point x="858" y="435"/>
			<point x="854" y="434"/>
			<point x="852" y="433" type="qcurve" smooth="yes"/>
			<point x="829" y="426"/>
			<point x="809" y="425" type="qcurve" smooth="yes"/>
			<point x="240" y="394" type="line"/>
			<point x="209" y="408"/>
			<point x="174" y="419"/>
			<point x="166" y="419" type="qcurve" smooth="yes"/>
			<point x="159" y="419"/>
			<point x="159" y="413" type="qcurve" smooth="yes"/>
			<point x="159" y="409"/>
			<point x="162" y="400" type="qcurve" smooth="yes"/>
			<point x="167" y="385"/>
			<point x="173" y="358"/>
			<point x="173" y="342" type="qcurve" smooth="yes"/>
			<point x="173" y="333" type="line" smooth="yes"/>
			<point x="173" y="255"/>
			<point x="147" y="127"/>
			<point x="108" y="29"/>
			<point x="71" y="-37"/>
			<point x="59" y="-54" type="qcurve" smooth="yes"/>
			<point x="48" y="-69"/>
			<point x="48" y="-80" type="qcurve" smooth="yes"/>
			<point x="48" y="-88"/>
			<point x="55" y="-88" type="qcurve" smooth="yes"/>
			<point x="63" y="-88"/>
			<point x="101" y="-56"/>
			<point x="150" y="6"/>
			<point x="197" y="94"/>
			<point x="212" y="150" type="qcurve" smooth="yes"/>
			<point x="222" y="185"/>
			<point x="235" y="288"/>
			<point x="239" y="343" type="qcurve"/>
		</contour>
	</outline>
</glyph>
<glyph name="uni4E27" format="2">
	<advance width="1000"/>
	<unicode hex="4E27"/>
	<note>
		uni4E27
	</note>
	<outline>
		<contour>
			<point x="461" y="373" type="line"/>
			<point x="111" y="358" type="line"/>
			<point x="104" y="358" type="line" smooth="yes"/>
			<point x="88" y="358"/>
			<point x="69" y="363" type="qcurve" smooth="yes"/>
			<point x="66" y="364"/>
			<point x="62" y="364" type="qcurve" smooth="yes"/>
			<point x="56" y="364"/>
			<point x="56" y="361" type="qcurve" smooth="yes"/>
			<point x="56" y="355"/>
			<point x="58" y="352" type="qcurve"/>
			<point x="71" y="316"/>
			<point x="102" y="304"/>
			<point x="112" y="304" type="qcurve" smooth="yes"/>
			<point x="129" y="304" type="line"/>
			<point x="251" y="309" type="line"/>
			<point x="248" y="0" type="line"/>
			<point x="244" y="-1"/>
			<point x="204" y="-12"/>
			<point x="156" y="-24"/>
			<point x="139" y="-24" type="qcurve" smooth="yes"/>
			<point x="132" y="-24" type="line" smooth="yes"/>
			<point x="123" y="-24"/>
			<point x="123" y="-28" type="qcurve" smooth="yes"/>
			<point x="123" y="-32"/>
			<point x="127" y="-39" type="qcurve"/>
			<point x="132" y="-52"/>
			<point x="160" y="-92"/>
			<point x="178" y="-92" type="qcurve" smooth="yes"/>
			<point x="179" y="-92"/>
			<point x="236" y="-73"/>
			<point x="321" y="-42"/>
			<point x="417" y="-3"/>
			<point x="501" y="35"/>
			<point x="554" y="67"/>
			<point x="554" y="75" type="qcurve" smooth="yes"/>
			<point x="554" y="82"/>
			<point x="539" y="82" type="qcurve" smooth="yes"/>
			<point x="530" y="82"/>
			<point x="511" y="77" type="qcurve" smooth="yes"/>
			<point x="462" y="60"/>
			<point x="369" y="32"/>
			<point x="309" y="17" type="qcurve"/>
			<point x="313" y="313" type="line"/>
			<point x="374" y="316" type="line"/>
			<point x="485" y="166"/>
			<point x="751" y="-9"/>
			<point x="912" y="-61" type="qcurve" smooth="yes"/>
			<point x="915" y="-62"/>
			<point x="921" y="-63"/>
			<point x="924" y="-63" type="qcurve" smooth="yes"/>
			<point x="931" y="-63"/>
			<point x="954" y="-44"/>
			<point x="972" y="-21"/>
			<point x="972" y="-15" type="qcurve" smooth="yes"/>
			<point x="972" y="-7"/>
			<point x="951" y="-2" type="qcurve" smooth="yes"/>
			<point x="864" y="20"/>
			<point x="703" y="91"/>
			<point x="628" y="143" type="qcurve"/>
			<point x="671" y="165"/>
			<point x="745" y="212"/>
			<point x="792" y="253"/>
			<point x="792" y="260" type="qcurve" smooth="yes"/>
			<point x="792" y="266"/>
			<point x="778" y="293"/>
			<point x="759" y="318"/>
			<point x="749" y="318" type="qcurve" smooth="yes"/>
			<point x="743" y="318"/>
			<point x="740" y="309" type="qcurve" smooth="yes"/>
			<point x="736" y="298"/>
			<point x="712" y="265"/>
			<point x="649" y="214"/>
			<point x="584" y="176" type="qcurve"/>
			<point x="507" y="236"/>
			<point x="442" y="319" type="qcurve"/>
			<point x="917" y="343" type="line" smooth="yes"/>
			<point x="926" y="344"/>
			<point x="939" y="349"/>
			<point x="939" y="354" type="qcurve" smooth="yes"/>
			<point x="939" y="360"/>
			<point x="924" y="381"/>
			<point x="901" y="400"/>
			<point x="889" y="400" type="qcurve" smooth="yes"/>
			<point x="885" y="400"/>
			<point x="879" y="398" type="qcurve" smooth="yes"/>
			<point x="861" y="391"/>
			<point x="840" y="391" type="qcurve" smooth="yes"/>
			<point x="522" y="377" type="line"/>
		</contour>
		<contour>
			<point x="522" y="330" type="line"/>
			<point x="523" y="635" type="line"/>
			<point x="831" y="653" type="line" smooth="yes"/>
			<point x="841" y="654"/>
			<point x="855" y="660"/>
			<point x="855" y="666" type="qcurve" smooth="yes"/>
			<point x="855" y="674"/>
			<point x="836" y="693"/>
			<point x="812" y="708"/>
			<point x="803" y="708" type="qcurve" smooth="yes"/>
			<point x="800" y="708"/>
			<point x="794" y="706" type="qcurve" smooth="yes"/>
			<point x="784" y="703"/>
			<point x="767" y="701"/>
			<point x="759" y="700" type="qcurve" smooth="yes"/>
			<point x="524" y="686" type="line"/>
			<point x="524" y="789" type="line" smooth="yes"/>
			<point x="524" y="805"/>
			<point x="493" y="820"/>
			<point x="462" y="825"/>
			<point x="461" y="825" type="qcurve" smooth="yes"/>
			<point x="448" y="825"/>
			<point x="448" y="817" type="qcurve" smooth="yes"/>
			<point x="448" y="814"/>
			<point x="451" y="809" type="qcurve" smooth="yes"/>
			<point x="464" y="790"/>
			<point x="464" y="765" type="qcurve" smooth="yes"/>
			<point x="463" y="683" type="line"/>
			<point x="197" y="667" type="line"/>
			<point x="190" y="667" type="line" smooth="yes"/>
			<point x="174" y="667"/>
			<point x="154" y="672" type="qcurve"/>
			<point x="152" y="673"/>
			<point x="148" y="673" type="qcurve" smooth="yes"/>
			<point x="142" y="673"/>
			<point x="142" y="668" type="qcurve" smooth="yes"/>
			<point x="142" y="662"/>
			<point x="144" y="659" type="qcurve"/>
			<point x="158" y="628"/>
			<point x="190" y="616"/>
			<point x="197" y="616" type="qcurve" smooth="yes"/>
			<point x="201" y="616"/>
			<point x="210" y="616"/>
			<point x="215" y="617" type="qcurve"/>
			<point x="463" y="631" type="line"/>
			<point x="461" y="327" type="line"/>
		</contour>
		<contour>
			<point x="759" y="576"/>
			<point x="739" y="603"/>
			<point x="714" y="622"/>
			<point x="708" y="622" type="qcurve" smooth="yes"/>
			<point x="698" y="622"/>
			<point x="695" y="608" type="qcurve" smooth="yes"/>
			<point x="690" y="585"/>
			<point x="658" y="531"/>
			<point x="617" y="479"/>
			<point x="580" y="438"/>
			<point x="569" y="427" type="qcurve" smooth="yes"/>
			<point x="551" y="408"/>
			<point x="551" y="399" type="qcurve" smooth="yes"/>
			<point x="551" y="394"/>
			<point x="558" y="394" type="qcurve" smooth="yes"/>
			<point x="570" y="394"/>
			<point x="617" y="423"/>
			<point x="674" y="468"/>
			<point x="726" y="516"/>
			<point x="759" y="555"/>
			<point x="759" y="563" type="qcurve" smooth="yes"/>
		</contour>
		<contour>
			<point x="405" y="442"/>
			<point x="379" y="476"/>
			<point x="340" y="518"/>
			<point x="298" y="557"/>
			<point x="264" y="583"/>
			<point x="257" y="583" type="qcurve" smooth="yes"/>
			<point x="251" y="583"/>
			<point x="226" y="562"/>
			<point x="226" y="551" type="qcurve" smooth="yes"/>
			<point x="226" y="543"/>
			<point x="235" y="534" type="qcurve" smooth="yes"/>
			<point x="264" y="509"/>
			<point x="323" y="446"/>
			<point x="348" y="414" type="qcurve" smooth="yes"/>
			<point x="359" y="400"/>
			<point x="367" y="400" type="qcurve" smooth="yes"/>
			<point x="379" y="400"/>
			<point x="405" y="429"/>
			<point x="405" y="436" type="qcurve" smooth="yes"/>
		</contour>
	</outline>
</glyph>
<glyph name="uni4E34" format="2">
	<advance width="1000"/>
	<unicode hex="4E34"/>
	<note>
		uni4E34
	</note>
	<outline>
		<contour>
			<point x="909" y="640" type="line" smooth="yes"/>
			<point x="935" y="642"/>
			<point x="935" y="652" type="qcurve" smooth="yes"/>
			<point x="935" y="656"/>
			<point x="919" y="679"/>
			<point x="894" y="700"/>
			<point x="882" y="700" type="qcurve" smooth="yes"/>
			<point x="879" y="700"/>
			<point x="874" y="699"/>
			<point x="871" y="698" type="qcurve" smooth="yes"/>
			<point x="861" y="695"/>
			<point x="843" y="691"/>
			<point x="832" y="690" type="qcurve" smooth="yes"/>
			<point x="583" y="670" type="line"/>
			<point x="593" y="687"/>
			<point x="613" y="727"/>
			<point x="628" y="760"/>
			<point x="628" y="764" type="qcurve" smooth="yes"/>
			<point x="628" y="776"/>
			<point x="601" y="797"/>
			<point x="571" y="810"/>
			<point x="565" y="810" type="qcurve" smooth="yes"/>
			<point x="555" y="810"/>
			<point x="555" y="800" type="qcurve" smooth="yes"/>
			<point x="555" y="786" type="line" smooth="yes"/>
			<point x="555" y="767"/>
			<point x="537" y="708"/>
			<point x="508" y="641"/>
			<point x="478" y="580"/>
			<point x="454" y="535"/>
			<point x="450" y="527" type="qcurve" smooth="yes"/>
			<point x="435" y="503"/>
			<point x="435" y="490" type="qcurve" smooth="yes"/>
			<point x="435" y="481"/>
			<point x="442" y="481" type="qcurve" smooth="yes"/>
			<point x="451" y="481"/>
			<point x="482" y="514"/>
			<point x="516" y="561"/>
			<point x="545" y="605"/>
			<point x="552" y="616" type="qcurve"/>
		</contour>
		<contour>
			<point x="845" y="273" type="line"/>
			<point x="822" y="32" type="line"/>
			<point x="715" y="28" type="line"/>
			<point x="716" y="266" type="line"/>
		</contour>
		<contour>
			<point x="879" y="-24" type="line" smooth="yes"/>
			<point x="893" y="-23"/>
			<point x="911" y="-20"/>
			<point x="911" y="-12" type="qcurve" smooth="yes"/>
			<point x="911" y="-7"/>
			<point x="899" y="15"/>
			<point x="885" y="32" type="qcurve"/>
			<point x="914" y="271" type="line" smooth="yes"/>
			<point x="915" y="276"/>
			<point x="922" y="287"/>
			<point x="922" y="294" type="qcurve" smooth="yes"/>
			<point x="922" y="303"/>
			<point x="897" y="331"/>
			<point x="871" y="331" type="qcurve" smooth="yes"/>
			<point x="859" y="331" type="line"/>
			<point x="525" y="311" type="line"/>
			<point x="497" y="322"/>
			<point x="464" y="332"/>
			<point x="455" y="332" type="qcurve" smooth="yes"/>
			<point x="443" y="332"/>
			<point x="443" y="324" type="qcurve" smooth="yes"/>
			<point x="443" y="318"/>
			<point x="450" y="306" type="qcurve" smooth="yes"/>
			<point x="455" y="296"/>
			<point x="461" y="266"/>
			<point x="462" y="252" type="qcurve" smooth="yes"/>
			<point x="477" y="15" type="line" smooth="yes"/>
			<point x="478" y="8"/>
			<point x="478" y="-5"/>
			<point x="478" y="-12" type="qcurve" smooth="yes"/>
			<point x="478" y="-20"/>
			<point x="478" y="-37"/>
			<point x="476" y="-46" type="qcurve"/>
			<point x="476" y="-48"/>
			<point x="475" y="-51"/>
			<point x="475" y="-53" type="qcurve" smooth="yes"/>
			<point x="475" y="-71"/>
			<point x="499" y="-90"/>
			<point x="524" y="-97"/>
			<point x="527" y="-97" type="qcurve" smooth="yes"/>
			<point x="547" y="-97"/>
			<point x="547" y="-73" type="qcurve" smooth="yes"/>
			<point x="547" y="-70" type="line"/>
			<point x="544" y="-34" type="line"/>
		</contour>
		<contour>
			<point x="651" y="25" type="line"/>
			<point x="540" y="21" type="line"/>
			<point x="526" y="256" type="line"/>
			<point x="653" y="263" type="line"/>
		</contour>
		<contour>
			<point x="127" y="220" type="line" smooth="yes"/>
			<point x="127" y="192"/>
			<point x="119" y="155" type="qcurve" smooth="yes"/>
			<point x="118" y="152"/>
			<point x="118" y="146"/>
			<point x="118" y="144" type="qcurve" smooth="yes"/>
			<point x="118" y="128"/>
			<point x="148" y="109"/>
			<point x="163" y="105" type="qcurve" smooth="yes"/>
			<point x="170" y="103"/>
			<point x="174" y="102" type="qcurve" smooth="yes"/>
			<point x="176" y="102"/>
			<point x="176" y="101" type="qcurve"/>
			<point x="178" y="101" type="line" smooth="yes"/>
			<point x="192" y="101"/>
			<point x="192" y="121" type="qcurve" smooth="yes"/>
			<point x="195" y="599" type="line" smooth="yes"/>
			<point x="195" y="610"/>
			<point x="169" y="625"/>
			<point x="137" y="633"/>
			<point x="128" y="633" type="qcurve" smooth="yes"/>
			<point x="115" y="633"/>
			<point x="115" y="625" type="qcurve" smooth="yes"/>
			<point x="115" y="620"/>
			<point x="121" y="612" type="qcurve" smooth="yes"/>
			<point x="132" y="596"/>
			<point x="132" y="572" type="qcurve" smooth="yes"/>
		</contour>
		<contour>
			<point x="287" y="20" type="line" smooth="yes"/>
			<point x="287" y="-8"/>
			<point x="279" y="-45" type="qcurve" smooth="yes"/>
			<point x="278" y="-48"/>
			<point x="278" y="-54"/>
			<point x="278" y="-56" type="qcurve" smooth="yes"/>
			<point x="278" y="-72"/>
			<point x="308" y="-91"/>
			<point x="323" y="-95" type="qcurve" smooth="yes"/>
			<point x="330" y="-97"/>
			<point x="334" y="-98" type="qcurve" smooth="yes"/>
			<point x="336" y="-98"/>
			<point x="336" y="-99" type="qcurve"/>
			<point x="338" y="-99" type="line" smooth="yes"/>
			<point x="352" y="-99"/>
			<point x="352" y="-79" type="qcurve" smooth="yes"/>
			<point x="355" y="779" type="line" smooth="yes"/>
			<point x="355" y="790"/>
			<point x="329" y="805"/>
			<point x="297" y="813"/>
			<point x="288" y="813" type="qcurve" smooth="yes"/>
			<point x="275" y="813"/>
			<point x="275" y="805" type="qcurve" smooth="yes"/>
			<point x="275" y="800"/>
			<point x="281" y="792" type="qcurve" smooth="yes"/>
			<point x="292" y="776"/>
			<point x="292" y="752" type="qcurve" smooth="yes"/>
		</contour>
		<contour>
			<point x="803" y="378"/>
			<point x="818" y="400"/>
			<point x="824" y="422"/>
			<point x="824" y="422" type="qcurve"/>
			<point x="824" y="434"/>
			<point x="809" y="443" type="qcurve" smooth="yes"/>
			<point x="712" y="502"/>
			<point x="596" y="555"/>
			<point x="587" y="555" type="qcurve" smooth="yes"/>
			<point x="576" y="555"/>
			<point x="559" y="529"/>
			<point x="559" y="519" type="qcurve" smooth="yes"/>
			<point x="559" y="507"/>
			<point x="571" y="502" type="qcurve" smooth="yes"/>
			<point x="623" y="478"/>
			<point x="725" y="420"/>
			<point x="769" y="388" type="qcurve" smooth="yes"/>
			<point x="784" y="378"/>
			<point x="791" y="378" type="qcurve" smooth="yes"/>
		</contour>
	</outline>
</glyph>
<glyph name="uni4E3A" format="2">
	<advance width="1000"/>
	<unicode hex="4E3A"/>
	<note>
		uni4E3A
	</note>
	<outline>
		<contour>
			<point x="794" y="507" type="line"/>
			<point x="789" y="371"/>
			<point x="753" y="120"/>
			<point x="723" y="15" type="qcurve"/>
			<point x="722" y="7"/>
			<point x="713" y="7" type="qcurve" smooth="yes"/>
			<point x="709" y="7"/>
			<point x="651" y="33"/>
			<point x="566" y="76"/>
			<point x="520" y="103" type="qcurve" smooth="yes"/>
			<point x="505" y="112"/>
			<point x="495" y="112" type="qcurve" smooth="yes"/>
			<point x="483" y="112"/>
			<point x="483" y="102" type="qcurve" smooth="yes"/>
			<point x="483" y="94"/>
			<point x="513" y="61"/>
			<point x="561" y="19"/>
			<point x="616" y="-23"/>
			<point x="666" y="-58"/>
			<point x="682" y="-68" type="qcurve" smooth="yes"/>
			<point x="708" y="-84"/>
			<point x="728" y="-84" type="qcurve" smooth="yes"/>
			<point x="749" y="-84"/>
			<point x="768" y="-66" type="qcurve" smooth="yes"/>
			<point x="785" y="-50"/>
			<point x="796" y="2"/>
			<point x="801" y="23" type="qcurve" smooth="yes"/>
			<point x="815" y="80"/>
			<point x="841" y="239"/>
			<point x="860" y="418"/>
			<point x="864" y="505" type="qcurve"/>
			<point x="865" y="510"/>
			<point x="871" y="523"/>
			<point x="871" y="530" type="qcurve" smooth="yes"/>
			<point x="871" y="544"/>
			<point x="850" y="561"/>
			<point x="827" y="569"/>
			<point x="823" y="569" type="qcurve" smooth="yes"/>
			<point x="820" y="569"/>
			<point x="813" y="568"/>
			<point x="808" y="568" type="qcurve" smooth="yes"/>
			<point x="528" y="553" type="line"/>
			<point x="537" y="605"/>
			<point x="547" y="719"/>
			<point x="548" y="772" type="qcurve" smooth="yes"/>
			<point x="548" y="781"/>
			<point x="521" y="797"/>
			<point x="487" y="808"/>
			<point x="477" y="808" type="qcurve" smooth="yes"/>
			<point x="464" y="808"/>
			<point x="464" y="798" type="qcurve" smooth="yes"/>
			<point x="464" y="792"/>
			<point x="466" y="788" type="qcurve" smooth="yes"/>
			<point x="470" y="778"/>
			<point x="472" y="757"/>
			<point x="472" y="745" type="qcurve" smooth="yes"/>
			<point x="472" y="645"/>
			<point x="455" y="549" type="qcurve"/>
			<point x="216" y="539" type="line"/>
			<point x="207" y="539" type="line" smooth="yes"/>
			<point x="187" y="539"/>
			<point x="165" y="544" type="qcurve"/>
			<point x="163" y="545"/>
			<point x="158" y="545" type="qcurve" smooth="yes"/>
			<point x="150" y="545"/>
			<point x="150" y="538" type="qcurve" smooth="yes"/>
			<point x="150" y="536"/>
			<point x="152" y="530" type="qcurve" smooth="yes"/>
			<point x="158" y="515"/>
			<point x="179" y="481"/>
			<point x="197" y="477" type="qcurve"/>
			<point x="206" y="477" type="line" smooth="yes"/>
			<point x="213" y="477"/>
			<point x="228" y="478"/>
			<point x="237" y="478" type="qcurve" smooth="yes"/>
			<point x="441" y="489" type="line"/>
			<point x="432" y="452"/>
			<point x="392" y="329"/>
			<point x="313" y="179"/>
			<point x="179" y="22"/>
			<point x="75" y="-50" type="qcurve" smooth="yes"/>
			<point x="58" y="-62"/>
			<point x="58" y="-73" type="qcurve" smooth="yes"/>
			<point x="58" y="-81"/>
			<point x="68" y="-81" type="qcurve" smooth="yes"/>
			<point x="76" y="-81"/>
			<point x="134" y="-55"/>
			<point x="220" y="2"/>
			<point x="318" y="92"/>
			<point x="414" y="219"/>
			<point x="494" y="387"/>
			<point x="517" y="493" type="qcurve"/>
		</contour>
		<contour>
			<point x="696" y="229"/>
			<point x="696" y="242" type="qcurve" smooth="yes"/>
			<point x="696" y="251"/>
			<point x="658" y="296"/>
			<point x="624" y="325"/>
			<point x="571" y="373"/>
			<point x="556" y="386" type="qcurve" smooth="yes"/>
			<point x="552" y="390"/>
			<point x="542" y="395"/>
			<point x="536" y="395" type="qcurve" smooth="yes"/>
			<point x="525" y="395"/>
			<point x="501" y="371"/>
			<point x="501" y="360" type="qcurve" smooth="yes"/>
			<point x="501" y="351"/>
			<point x="510" y="344" type="qcurve"/>
			<point x="543" y="313"/>
			<point x="597" y="256"/>
			<point x="631" y="210" type="qcurve" smooth="yes"/>
			<point x="641" y="197"/>
			<point x="651" y="197" type="qcurve" smooth="yes"/>
			<point x="663" y="197"/>
			<point x="681" y="215" type="qcurve" smooth="yes"/>
		</contour>
		<contour>
			<point x="389" y="588"/>
			<point x="405" y="604"/>
			<point x="417" y="624"/>
			<point x="417" y="630" type="qcurve" smooth="yes"/>
			<point x="417" y="637"/>
			<point x="391" y="663"/>
			<point x="323" y="710"/>
			<point x="261" y="747" type="qcurve" smooth="yes"/>
			<point x="251" y="753"/>
			<point x="243" y="753" type="qcurve" smooth="yes"/>
			<point x="235" y="753"/>
			<point x="222" y="737"/>
			<point x="215" y="720"/>
			<point x="215" y="719" type="qcurve" smooth="yes"/>
			<point x="215" y="709"/>
			<point x="231" y="699" type="qcurve" smooth="yes"/>
			<point x="260" y="680"/>
			<point x="338" y="625"/>
			<point x="365" y="598" type="qcurve" smooth="yes"/>
			<point x="375" y="588"/>
			<point x="382" y="588" type="qcurve" smooth="yes"/>
		</contour>
	</outline>
</glyph>
<glyph name="uni4E3D" format="2">
	<advance width="1000"/>
	<unicode hex="4E3D"/>
	<note>
		uni4E3D
	</note>
	<outline>
		<contour>
			<point x="166" y="418" type="line"/>
			<point x="161" y="227"/>
			<point x="160" y="186" type="qcurve" smooth="yes"/>
			<point x="159" y="143"/>
			<point x="158" y="89"/>
			<point x="158" y="89" type="qcurve"/>
			<point x="158" y="68"/>
			<point x="153" y="16"/>
			<point x="148" y="-7" type="qcurve" smooth="yes"/>
			<point x="147" y="-11"/>
			<point x="147" y="-17" type="qcurve" smooth="yes"/>
			<point x="147" y="-30"/>
			<point x="167" y="-48"/>
			<point x="193" y="-58"/>
			<point x="200" y="-58" type="qcurve" smooth="yes"/>
			<point x="217" y="-58"/>
			<point x="217" y="-33" type="qcurve" smooth="yes"/>
			<point x="227" y="418" type="line"/>
		</contour>
		<contour>
			<point x="546" y="418" type="line"/>
			<point x="541" y="227"/>
			<point x="540" y="186" type="qcurve" smooth="yes"/>
			<point x="539" y="143"/>
			<point x="538" y="89"/>
			<point x="538" y="89" type="qcurve"/>
			<point x="538" y="68"/>
			<point x="533" y="16"/>
			<point x="528" y="-7" type="qcurve" smooth="yes"/>
			<point x="527" y="-11"/>
			<point x="527" y="-17" type="qcurve" smooth="yes"/>
			<point x="527" y="-30"/>
			<point x="547" y="-48"/>
			<point x="573" y="-58"/>
			<point x="580" y="-58" type="qcurve" smooth="yes"/>
			<point x="597" y="-58"/>
			<point x="597" y="-33" type="qcurve" smooth="yes"/>
			<point x="607" y="418" type="line"/>
		</contour>
		<contour>
			<point x="605" y="361" type="line"/>
			<point x="605" y="475" type="line"/>
			<point x="785" y="485" type="line"/>
			<point x="782" y="-5" type="line"/>
			<point x="759" y="3"/>
			<point x="695" y="35"/>
			<point x="672" y="49" type="qcurve" smooth="yes"/>
			<point x="650" y="63"/>
			<point x="638" y="63" type="qcurve" smooth="yes"/>
			<point x="630" y="63"/>
			<point x="630" y="56" type="qcurve" smooth="yes"/>
			<point x="630" y="46"/>
			<point x="658" y="12"/>
			<point x="702" y="-27"/>
			<point x="749" y="-62"/>
			<point x="788" y="-84"/>
			<point x="798" y="-84" type="qcurve" smooth="yes"/>
			<point x="804" y="-84"/>
			<point x="827" y="-74"/>
			<point x="846" y="-49"/>
			<point x="846" y="-28" type="qcurve" smooth="yes"/>
			<point x="846" y="-22"/>
			<point x="845" y="-11"/>
			<point x="845" y="-5" type="qcurve" smooth="yes"/>
			<point x="846" y="486" type="line" smooth="yes"/>
			<point x="846" y="494"/>
			<point x="851" y="506"/>
			<point x="851" y="512" type="qcurve" smooth="yes"/>
			<point x="851" y="518"/>
			<point x="844" y="530"/>
			<point x="834" y="537" type="qcurve" smooth="yes"/>
			<point x="827" y="543"/>
			<point x="815" y="546"/>
			<point x="807" y="546" type="qcurve" smooth="yes"/>
			<point x="796" y="546" type="line"/>
			<point x="608" y="532" type="line"/>
			<point x="576" y="549"/>
			<point x="541" y="562"/>
			<point x="533" y="562" type="qcurve" smooth="yes"/>
			<point x="524" y="562"/>
			<point x="524" y="554" type="qcurve" smooth="yes"/>
			<point x="524" y="549"/>
			<point x="528" y="539" type="qcurve" smooth="yes"/>
			<point x="533" y="522"/>
			<point x="540" y="491"/>
			<point x="543" y="450"/>
			<point x="544" y="419" type="qcurve" smooth="yes"/>
			<point x="544" y="361" type="line"/>
		</contour>
		<contour>
			<point x="227" y="354" type="line"/>
			<point x="227" y="461" type="line"/>
			<point x="387" y="471" type="line"/>
			<point x="384" y="22" type="line"/>
			<point x="362" y="31"/>
			<point x="309" y="57"/>
			<point x="288" y="70" type="qcurve" smooth="yes"/>
			<point x="266" y="84"/>
			<point x="255" y="84" type="qcurve" smooth="yes"/>
			<point x="248" y="84"/>
			<point x="248" y="77" type="qcurve" smooth="yes"/>
			<point x="248" y="64"/>
			<point x="285" y="20"/>
			<point x="339" y="-24"/>
			<point x="388" y="-54"/>
			<point x="400" y="-54" type="qcurve" smooth="yes"/>
			<point x="411" y="-54"/>
			<point x="448" y="-30"/>
			<point x="448" y="-1" type="qcurve" smooth="yes"/>
			<point x="448" y="5"/>
			<point x="447" y="18"/>
			<point x="447" y="24" type="qcurve" smooth="yes"/>
			<point x="448" y="472" type="line" smooth="yes"/>
			<point x="448" y="479"/>
			<point x="453" y="491"/>
			<point x="453" y="498" type="qcurve" smooth="yes"/>
			<point x="453" y="513"/>
			<point x="426" y="531"/>
			<point x="409" y="531" type="qcurve" smooth="yes"/>
			<point x="398" y="531" type="line"/>
			<point x="230" y="518" type="line"/>
			<point x="199" y="534"/>
			<point x="164" y="546"/>
			<point x="156" y="546" type="qcurve" smooth="yes"/>
			<point x="147" y="546"/>
			<point x="147" y="538" type="qcurve" smooth="yes"/>
			<point x="147" y="533"/>
			<point x="150" y="525" type="qcurve" smooth="yes"/>
			<point x="156" y="506"/>
			<point x="163" y="464"/>
			<point x="165" y="429" type="qcurve" smooth="yes"/>
			<point x="166" y="400"/>
			<point x="166" y="354" type="qcurve"/>
		</contour>
		<contour>
			<point x="895" y="668" type="line" smooth="yes"/>
			<point x="906" y="669"/>
			<point x="921" y="677"/>
			<point x="921" y="684" type="qcurve" smooth="yes"/>
			<point x="921" y="692"/>
			<point x="900" y="716"/>
			<point x="872" y="735"/>
			<point x="861" y="735" type="qcurve" smooth="yes"/>
			<point x="856" y="735"/>
			<point x="854" y="734" type="qcurve" smooth="yes"/>
			<point x="836" y="727"/>
			<point x="813" y="726" type="qcurve" smooth="yes"/>
			<point x="144" y="687" type="line"/>
			<point x="132" y="687" type="line" smooth="yes"/>
			<point x="122" y="687"/>
			<point x="100" y="689"/>
			<point x="91" y="692" type="qcurve" smooth="yes"/>
			<point x="85" y="694"/>
			<point x="83" y="694" type="qcurve" smooth="yes"/>
			<point x="77" y="694"/>
			<point x="77" y="688" type="qcurve" smooth="yes"/>
			<point x="77" y="674"/>
			<point x="98" y="641"/>
			<point x="108" y="632" type="qcurve" smooth="yes"/>
			<point x="118" y="625"/>
			<point x="140" y="625" type="qcurve" smooth="yes"/>
			<point x="145" y="625"/>
			<point x="159" y="625"/>
			<point x="166" y="626" type="qcurve" smooth="yes"/>
		</contour>
		<contour>
			<point x="307" y="376" type="line"/>
			<point x="303" y="383"/>
			<point x="288" y="394"/>
			<point x="265" y="384" type="qcurve" smooth="yes"/>
			<point x="249" y="377"/>
			<point x="255" y="361" type="qcurve" smooth="yes"/>
			<point x="275" y="304"/>
			<point x="289" y="239"/>
			<point x="295" y="185" type="qcurve"/>
			<point x="295" y="177"/>
			<point x="298" y="171" type="qcurve" smooth="yes"/>
			<point x="303" y="160"/>
			<point x="339" y="158"/>
			<point x="348" y="162" type="qcurve" smooth="yes"/>
			<point x="359" y="167"/>
			<point x="357" y="186" type="qcurve" smooth="yes"/>
			<point x="347" y="246"/>
			<point x="329" y="315"/>
			<point x="308" y="372" type="qcurve" smooth="yes"/>
		</contour>
		<contour>
			<point x="693" y="376" type="line"/>
			<point x="689" y="383"/>
			<point x="674" y="394"/>
			<point x="651" y="384" type="qcurve" smooth="yes"/>
			<point x="635" y="377"/>
			<point x="641" y="361" type="qcurve" smooth="yes"/>
			<point x="661" y="304"/>
			<point x="675" y="239"/>
			<point x="681" y="185" type="qcurve"/>
			<point x="681" y="177"/>
			<point x="684" y="171" type="qcurve" smooth="yes"/>
			<point x="689" y="160"/>
			<point x="725" y="158"/>
			<point x="734" y="162" type="qcurve" smooth="yes"/>
			<point x="745" y="167"/>
			<point x="743" y="186" type="qcurve" smooth="yes"/>
			<point x="733" y="246"/>
			<point x="715" y="315"/>
			<point x="694" y="372" type="qcurve" smooth="yes"/>
		</contour>
	</outline>
</glyph>
<glyph name="uni4E3E" format="2">
	<advance width="1000"/>
	<unicode hex="4E3E"/>
	<note>
		uni4E3E
	</note>
	<outline>
		<contour>
			<point x="820" y="120" type="line"/>
			<point x="837" y="122"/>
			<point x="837" y="136" type="qcurve" smooth="yes"/>
			<point x="837" y="147"/>
			<point x="818" y="164"/>
			<point x="797" y="174"/>
			<point x="792" y="174" type="qcurve" smooth="yes"/>
			<point x="787" y="174"/>
			<point x="785" y="173" type="qcurve"/>
			<point x="773" y="171"/>
			<point x="754" y="168"/>
			<point x="739" y="167" type="qcurve" smooth="yes"/>
			<point x="525" y="160" type="line"/>
			<point x="525" y="287" type="line"/>
			<point x="702" y="295" type="line" smooth="yes"/>
			<point x="722" y="297"/>
			<point x="722" y="309" type="qcurve" smooth="yes"/>
			<point x="722" y="315"/>
			<point x="707" y="333"/>
			<point x="685" y="348"/>
			<point x="675" y="348" type="qcurve" smooth="yes"/>
			<point x="670" y="348"/>
			<point x="667" y="347" type="qcurve" smooth="yes"/>
			<point x="655" y="344"/>
			<point x="636" y="341"/>
			<point x="621" y="340" type="qcurve" smooth="yes"/>
			<point x="525" y="336" type="line"/>
			<point x="525" y="422" type="line" smooth="yes"/>
			<point x="525" y="436"/>
			<point x="513" y="451"/>
			<point x="496" y="456" type="qcurve" smooth="yes"/>
			<point x="472" y="464"/>
			<point x="462" y="464" type="qcurve" smooth="yes"/>
			<point x="452" y="464"/>
			<point x="452" y="459" type="qcurve" smooth="yes"/>
			<point x="452" y="456"/>
			<point x="455" y="451" type="qcurve" smooth="yes"/>
			<point x="463" y="438"/>
			<point x="468" y="410"/>
			<point x="468" y="392" type="qcurve" smooth="yes"/>
			<point x="468" y="333" type="line"/>
			<point x="336" y="327" type="line"/>
			<point x="321" y="327" type="line" smooth="yes"/>
			<point x="311" y="327"/>
			<point x="292" y="329"/>
			<point x="281" y="332" type="qcurve" smooth="yes"/>
			<point x="280" y="332"/>
			<point x="278" y="333"/>
			<point x="277" y="333" type="qcurve" smooth="yes"/>
			<point x="272" y="333"/>
			<point x="272" y="329" type="qcurve" smooth="yes"/>
			<point x="272" y="327"/>
			<point x="273" y="325" type="qcurve" smooth="yes"/>
			<point x="284" y="292"/>
			<point x="310" y="279"/>
			<point x="326" y="279" type="qcurve" smooth="yes"/>
			<point x="343" y="279" type="line"/>
			<point x="467" y="285" type="line"/>
			<point x="466" y="158" type="line"/>
			<point x="230" y="150" type="line"/>
			<point x="223" y="150" type="line" smooth="yes"/>
			<point x="210" y="150"/>
			<point x="187" y="154"/>
			<point x="175" y="156" type="qcurve" smooth="yes"/>
			<point x="172" y="156" type="line" smooth="yes"/>
			<point x="166" y="156"/>
			<point x="166" y="151" type="qcurve" smooth="yes"/>
			<point x="166" y="148"/>
			<point x="167" y="146" type="qcurve"/>
			<point x="176" y="115"/>
			<point x="202" y="98"/>
			<point x="224" y="98" type="qcurve" smooth="yes"/>
			<point x="237" y="98" type="line"/>
			<point x="465" y="107" type="line"/>
			<point x="465" y="27" type="line" smooth="yes"/>
			<point x="465" y="2"/>
			<point x="463" y="-42"/>
			<point x="460" y="-62" type="qcurve"/>
			<point x="460" y="-67" type="line" smooth="yes"/>
			<point x="460" y="-79"/>
			<point x="481" y="-96"/>
			<point x="504" y="-105"/>
			<point x="507" y="-105" type="qcurve" smooth="yes"/>
			<point x="524" y="-105"/>
			<point x="524" y="-85" type="qcurve" smooth="yes"/>
			<point x="524" y="109" type="line"/>
		</contour>
		<contour>
			<point x="893" y="561" type="line" smooth="yes"/>
			<point x="902" y="562"/>
			<point x="916" y="568"/>
			<point x="916" y="575" type="qcurve" smooth="yes"/>
			<point x="916" y="580"/>
			<point x="898" y="602"/>
			<point x="874" y="621"/>
			<point x="863" y="621" type="qcurve" smooth="yes"/>
			<point x="857" y="621"/>
			<point x="855" y="620" type="qcurve" smooth="yes"/>
			<point x="834" y="612"/>
			<point x="812" y="611" type="qcurve" smooth="yes"/>
			<point x="633" y="603" type="line"/>
			<point x="695" y="665"/>
			<point x="755" y="752"/>
			<point x="755" y="759" type="qcurve" smooth="yes"/>
			<point x="755" y="767"/>
			<point x="731" y="791"/>
			<point x="702" y="810"/>
			<point x="693" y="810" type="qcurve" smooth="yes"/>
			<point x="685" y="810"/>
			<point x="685" y="799" type="qcurve" smooth="yes"/>
			<point x="685" y="790"/>
			<point x="674" y="747"/>
			<point x="628" y="666"/>
			<point x="576" y="600" type="qcurve"/>
			<point x="140" y="580" type="line"/>
			<point x="132" y="580" type="line" smooth="yes"/>
			<point x="110" y="580"/>
			<point x="90" y="585" type="qcurve" smooth="yes"/>
			<point x="89" y="585"/>
			<point x="87" y="586"/>
			<point x="85" y="586" type="qcurve" smooth="yes"/>
			<point x="79" y="586"/>
			<point x="79" y="579" type="qcurve" smooth="yes"/>
			<point x="79" y="576"/>
			<point x="80" y="574" type="qcurve"/>
			<point x="85" y="550"/>
			<point x="108" y="531" type="qcurve" smooth="yes"/>
			<point x="113" y="526"/>
			<point x="122" y="526" type="qcurve"/>
			<point x="126" y="525"/>
			<point x="135" y="525" type="qcurve" smooth="yes"/>
			<point x="140" y="525"/>
			<point x="152" y="526"/>
			<point x="159" y="526" type="qcurve" smooth="yes"/>
			<point x="336" y="534" type="line"/>
			<point x="278" y="452"/>
			<point x="129" y="315"/>
			<point x="49" y="260" type="qcurve" smooth="yes"/>
			<point x="28" y="246"/>
			<point x="28" y="236" type="qcurve" smooth="yes"/>
			<point x="28" y="230"/>
			<point x="37" y="230" type="qcurve" smooth="yes"/>
			<point x="44" y="230"/>
			<point x="118" y="264"/>
			<point x="229" y="337"/>
			<point x="358" y="454"/>
			<point x="419" y="538" type="qcurve"/>
			<point x="581" y="546" type="line"/>
			<point x="652" y="455"/>
			<point x="818" y="319"/>
			<point x="912" y="264" type="qcurve" smooth="yes"/>
			<point x="917" y="261"/>
			<point x="926" y="257"/>
			<point x="932" y="257" type="qcurve" smooth="yes"/>
			<point x="944" y="257"/>
			<point x="967" y="275"/>
			<point x="983" y="295"/>
			<point x="983" y="299" type="qcurve" smooth="yes"/>
			<point x="983" y="306"/>
			<point x="964" y="315" type="qcurve" smooth="yes"/>
			<point x="873" y="359"/>
			<point x="704" y="481"/>
			<point x="645" y="549" type="qcurve"/>
		</contour>
		<contour>
			<point x="534" y="659"/>
			<point x="517" y="692"/>
			<point x="491" y="737"/>
			<point x="463" y="780"/>
			<point x="452" y="795" type="qcurve" smooth="yes"/>
			<point x="442" y="808"/>
			<point x="431" y="808" type="qcurve" smooth="yes"/>
			<point x="424" y="808"/>
			<point x="395" y="794"/>
			<point x="395" y="782" type="qcurve" smooth="yes"/>
			<point x="395" y="777"/>
			<point x="401" y="769" type="qcurve" smooth="yes"/>
			<point x="420" y="742"/>
			<point x="459" y="670"/>
			<point x="472" y="637" type="qcurve" smooth="yes"/>
			<point x="478" y="622"/>
			<point x="489" y="622" type="qcurve" smooth="yes"/>
			<point x="493" y="622"/>
			<point x="515" y="630"/>
			<point x="534" y="644"/>
			<point x="534" y="654" type="qcurve" smooth="yes"/>
		</contour>
		<contour>
			<point x="359" y="636"/>
			<point x="331" y="676"/>
			<point x="293" y="721"/>
			<point x="262" y="756"/>
			<point x="260" y="758" type="qcurve" smooth="yes"/>
			<point x="250" y="768"/>
			<point x="240" y="768" type="qcurve" smooth="yes"/>
			<point x="230" y="768"/>
			<point x="207" y="749"/>
			<point x="207" y="740" type="qcurve" smooth="yes"/>
			<point x="207" y="735"/>
			<point x="213" y="727" type="qcurve" smooth="yes"/>
			<point x="237" y="699"/>
			<point x="284" y="639"/>
			<point x="300" y="609" type="qcurve" smooth="yes"/>
			<point x="310" y="593"/>
			<point x="318" y="593" type="qcurve" smooth="yes"/>
			<point x="328" y="593"/>
			<point x="359" y="617"/>
			<point x="359" y="629" type="qcurve" smooth="yes"/>
		</contour>
	</outline>
</glyph>
<glyph name="uni4E47" format="2">
	<advance width="1000"/>
	<unicode hex="4E47"/>
	<note>
		uni4E47
	</note>
	<outline>
		<contour>
			<point x="333" y="567"/>
			<point x="462" y="596" type="qcurve" smooth="yes"/>
			<point x="529" y="613" type="line" smooth="yes"/>
			<point x="638" y="641"/>
			<point x="770" y="691" type="qcurve" smooth="yes"/>
			<point x="782" y="696"/>
			<point x="782" y="717"/>
			<point x="760" y="745"/>
			<point x="734" y="765"/>
			<point x="723" y="765"/>
			<point x="697" y="740"/>
			<point x="679" y="733" type="qcurve" smooth="yes"/>
			<point x="431" y="635"/>
			<point x="189" y="583" type="qcurve" smooth="yes"/>
			<point x="156" y="576"/>
			<point x="156" y="551"/>
			<point x="183" y="551" type="qcurve" smooth="yes"/>
			<point x="194" y="552" type="line" smooth="yes"/>
		</contour>
		<contour>
			<point x="928" y="388" type="line" smooth="yes"/>
			<point x="953" y="392"/>
			<point x="953" y="406" type="qcurve" smooth="yes"/>
			<point x="953" y="417"/>
			<point x="928" y="440"/>
			<point x="897" y="455"/>
			<point x="881" y="455"/>
			<point x="838" y="433"/>
			<point x="804" y="428" type="qcurve" smooth="yes"/>
			<point x="134" y="321" type="line" smooth="yes"/>
			<point x="104" y="316"/>
			<point x="83" y="316" type="qcurve" smooth="yes"/>
			<point x="74" y="316" type="line" smooth="yes"/>
			<point x="68" y="316"/>
			<point x="63" y="317" type="qcurve" smooth="yes"/>
			<point x="61" y="317" type="line" smooth="yes"/>
			<point x="50" y="317"/>
			<point x="50" y="300"/>
			<point x="91" y="255"/>
			<point x="120" y="255"/>
			<point x="160" y="262" type="qcurve" smooth="yes"/>
		</contour>
		<contour>
			<point x="865" y="292"/>
			<point x="860" y="245" type="qcurve" smooth="yes"/>
			<point x="853" y="166"/>
			<point x="828" y="84"/>
			<point x="811" y="57"/>
			<point x="777" y="44"/>
			<point x="666" y="24"/>
			<point x="553" y="24"/>
			<point x="511" y="50" type="qcurve" smooth="yes"/>
			<point x="489" y="63"/>
			<point x="477" y="109"/>
			<point x="477" y="143" type="qcurve" smooth="yes"/>
			<point x="473" y="591" type="line" smooth="yes"/>
			<point x="473" y="612"/>
			<point x="426" y="623" type="qcurve" smooth="yes"/>
			<point x="408" y="627"/>
			<point x="387" y="627"/>
			<point x="387" y="620" type="qcurve" smooth="yes"/>
			<point x="387" y="619"/>
			<point x="389" y="613" type="qcurve"/>
			<point x="404" y="583"/>
			<point x="404" y="547" type="qcurve" smooth="yes"/>
			<point x="408" y="125" type="line" smooth="yes"/>
			<point x="408" y="68"/>
			<point x="439" y="-1"/>
			<point x="510" y="-35"/>
			<point x="591" y="-47"/>
			<point x="669" y="-47"/>
			<point x="769" y="-32" type="qcurve" smooth="yes"/>
			<point x="827" y="-24"/>
			<point x="883" y="13"/>
			<point x="901" y="88"/>
			<point x="901" y="153" type="qcurve" smooth="yes"/>
			<point x="901" y="292"/>
			<point x="878" y="292" type="qcurve" smooth="yes"/>
		</contour>
	</outline>
</glyph>
<glyph name="uni4E49" format="2">
	<advance width="1000"/>
	<unicode hex="4E49"/>
	<note>
		uni4E49
	</note>
	<outline>
		<contour>
			<point x="580" y="146"/>
			<point x="769" y="1"/>
			<point x="893" y="-58" type="qcurve" smooth="yes"/>
			<point x="895" y="-59"/>
			<point x="900" y="-61"/>
			<point x="903" y="-61" type="qcurve" smooth="yes"/>
			<point x="915" y="-61"/>
			<point x="945" y="-40"/>
			<point x="966" y="-16"/>
			<point x="966" y="-13" type="qcurve" smooth="yes"/>
			<point x="966" y="-4"/>
			<point x="949" y="2" type="qcurve" smooth="yes"/>
			<point x="855" y="41"/>
			<point x="711" y="128"/>
			<point x="596" y="225"/>
			<point x="546" y="278" type="qcurve"/>
			<point x="602" y="349"/>
			<point x="683" y="494"/>
			<point x="735" y="615"/>
			<point x="760" y="690"/>
			<point x="760" y="693" type="qcurve" smooth="yes"/>
			<point x="760" y="707"/>
			<point x="729" y="733"/>
			<point x="695" y="750"/>
			<point x="689" y="750" type="qcurve" smooth="yes"/>
			<point x="680" y="750"/>
			<point x="680" y="740" type="qcurve"/>
			<point x="681" y="735"/>
			<point x="681" y="726"/>
			<point x="681" y="721" type="qcurve" smooth="yes"/>
			<point x="681" y="694"/>
			<point x="652" y="603"/>
			<point x="602" y="492"/>
			<point x="537" y="378"/>
			<point x="501" y="329" type="qcurve"/>
			<point x="471" y="365"/>
			<point x="409" y="454"/>
			<point x="353" y="549"/>
			<point x="306" y="637"/>
			<point x="291" y="672" type="qcurve" smooth="yes"/>
			<point x="287" y="682"/>
			<point x="277" y="693"/>
			<point x="268" y="693" type="qcurve" smooth="yes"/>
			<point x="259" y="693"/>
			<point x="226" y="680"/>
			<point x="226" y="666" type="qcurve" smooth="yes"/>
			<point x="226" y="661"/>
			<point x="249" y="607"/>
			<point x="292" y="525"/>
			<point x="350" y="426"/>
			<point x="420" y="323"/>
			<point x="460" y="276" type="qcurve"/>
			<point x="379" y="179"/>
			<point x="175" y="21"/>
			<point x="70" y="-35" type="qcurve" smooth="yes"/>
			<point x="46" y="-47"/>
			<point x="46" y="-62" type="qcurve" smooth="yes"/>
			<point x="46" y="-70"/>
			<point x="57" y="-70" type="qcurve" smooth="yes"/>
			<point x="61" y="-70"/>
			<point x="120" y="-49"/>
			<point x="214" y="-5"/>
			<point x="329" y="64"/>
			<point x="449" y="162"/>
			<point x="504" y="226" type="qcurve"/>
		</contour>
		<contour>
			<point x="555" y="581"/>
			<point x="581" y="604"/>
			<point x="581" y="617" type="qcurve" smooth="yes"/>
			<point x="581" y="626"/>
			<point x="572" y="635" type="qcurve" smooth="yes"/>
			<point x="556" y="653"/>
			<point x="514" y="696"/>
			<point x="471" y="737"/>
			<point x="437" y="763"/>
			<point x="431" y="763" type="qcurve" smooth="yes"/>
			<point x="422" y="763"/>
			<point x="401" y="739"/>
			<point x="401" y="731" type="qcurve" smooth="yes"/>
			<point x="401" y="724"/>
			<point x="410" y="716" type="qcurve" smooth="yes"/>
			<point x="441" y="689"/>
			<point x="503" y="623"/>
			<point x="530" y="591" type="qcurve" smooth="yes"/>
			<point x="538" y="581"/>
			<point x="547" y="581" type="qcurve" smooth="yes"/>
		</contour>
	</outline>
</glyph>
